<?xml version="1.0" standalone="no"?>
<!DOCTYPE svg PUBLIC "-//W3C//DTD SVG 1.1//EN" "http://www.w3.org/Graphics/SVG/1.1/DTD/svg11.dtd" >
<svg xmlns="http://www.w3.org/2000/svg" xmlns:xlink="http://www.w3.org/1999/xlink" version="1.1">
<metadata>
Created by FontForge 20150102 at Mon Jan 12 20:47:39 2015
 By uniteet7
Generated in 2009 by FontLab Studio. Copyright info pending.
</metadata>
<defs>
<font id="MarkusInk" horiz-adv-x="348" >
  <font-face 
    font-family="Markus Ink"
    font-weight="400"
    font-stretch="normal"
    units-per-em="1000"
    panose-1="0 0 0 0 0 0 0 0 0 0"
    ascent="750"
    descent="-250"
    x-height="731.5"
    cap-height="732.5"
    bbox="-66 -113.348 492 878.323"
    underline-thickness="50"
    underline-position="-50"
    unicode-range="U+0020-2212"
  />
<missing-glyph horiz-adv-x="249" 
 />
    <glyph glyph-name=".notdef" horiz-adv-x="249" 
 />
    <glyph glyph-name=".null" horiz-adv-x="0" 
 />
    <glyph glyph-name="nonmarkingreturn" horiz-adv-x="183" 
 />
    <glyph glyph-name="space" unicode=" " horiz-adv-x="183" 
 />
    <glyph glyph-name="space" unicode="&#xa0;" horiz-adv-x="183" 
 />
    <glyph glyph-name="exclam" unicode="!" horiz-adv-x="138" 
d="M55 4q17 8 37.5 0.5t38.5 -11.5q1 -9 -1.5 -15t-5.5 -12t-5 -12.5t1 -15.5q-6 -2 -10 -14q-3 -8 -9.5 -7.5t-14.5 -1.5q-4 -1 -7 1.5t-6 3.5q-10 2 -21.5 -1t-19.5 3q-7 5 -7 14.5t1.5 20.5t2.5 22t-2 19q6 -1 11.5 3.5t16.5 2.5zM115 719q0 -4 2 -7.5t3 -7.5
q2 -14 0.5 -36.5t-2.5 -43.5q-1 -23 -4 -41.5t-5 -37.5q-1 -9 -0.5 -18t0.5 -18q-2 -27 -2.5 -52.5t-2.5 -56.5q-1 -14 -4 -27.5t-4 -27.5q-1 -8 0.5 -15.5t0.5 -15.5q-1 -11 -3.5 -21t-2.5 -21q-1 -15 1 -30.5t0 -29.5q-1 -14 -4.5 -27t-3.5 -25q0 -7 2.5 -13.5t2.5 -12.5
q0 -21 2 -39t13 -35q-3 -7 -12 -7t-17 -2q-6 -2 -13 -5t-14.5 -5t-15 -1.5t-13.5 6.5q-2 186 3 374q1 28 -0.5 53t-3 49t-2 48.5t1.5 53.5v39q0 18 1.5 36.5t9.5 28.5q21 2 44 0.5t42 -9.5z" />
    <glyph glyph-name="E" unicode="E" horiz-adv-x="276" 
d="M263 713q-4 -8 -10 -14.5t-6 -19.5q-8 -10 -17 -4t-22 8q-24 3 -48.5 -1t-37.5 -16q8 -60 7 -124t1 -132q11 -4 29 -4.5t37 -0.5t37 -1.5t29 -8.5q-6 -4 -10.5 -10t-8 -12.5t-8.5 -11t-12 -5.5q-5 -1 -8.5 1t-8.5 4q-21 5 -42 0t-39 -13q-4 -13 -3 -25.5t0 -23.5
q-1 -4 -3.5 -7.5t-3.5 -7.5q0 -2 1.5 -4.5t1.5 -4.5q1 -12 -1.5 -24.5t-4.5 -25t-2.5 -24t4.5 -21.5q-4 -10 -4.5 -22t-0.5 -23q-1 -8 0.5 -16.5t0.5 -16.5q0 -8 -1.5 -16t3.5 -16q35 1 67 0.5t55 -15.5q-3 -1 -2.5 -4.5t1.5 -7t1.5 -6t-2.5 -1.5q-12 -13 -33 -15.5
t-45.5 -1t-49.5 3t-44 -3.5q-17 4 -30 10.5t-22 17.5q-7 54 -3 114t9 115q3 25 3 48t4 50q1 5 2.5 7.5t2.5 6.5q4 52 4 116.5t-6 121.5q-1 7 1 14t1 15q-1 7 -1 16t-2 18q-2 11 -2.5 21t15.5 13q14 3 32.5 0.5t33.5 -1.5q19 0 40.5 3t44.5 1q20 -1 41 -2t35 -11z" />
    <glyph glyph-name="e" unicode="e" horiz-adv-x="265" 
d="M238 735q-5 -5 -11 -8t-12 -9q-3 -18 -5 -28.5t-11 -19.5q-35 8 -63.5 5.5t-55.5 -14.5q2 -6 0.5 -11t4.5 -5q-6 -12 -1 -24.5t6 -25.5q1 -11 -1 -21t0 -21q2 -35 1.5 -71.5t1.5 -65.5q19 -3 38.5 -0.5t39.5 6t40.5 6.5t40.5 3q-2 -7 -7.5 -8.5t-10.5 -4.5q3 -12 0 -20.5
t-8.5 -15t-12 -13t-10.5 -13.5q-11 -6 -26.5 -8l-31 -4t-30 -5t-24.5 -12q1 -21 0.5 -45t-1 -49t-2 -49t-3.5 -44q3 -8 3 -17t-1 -18t-1 -18t4 -16q16 0 33.5 3t36 4.5t36 0.5t33.5 -8q2 -9 8 -12.5t10 -9.5q-3 -8 -7.5 -10t-9 -2.5t-8.5 -1t-7 -3.5q-37 -2 -65 -7.5
t-62 -13.5q-9 -2 -16.5 -3t-17.5 -3q-15 -3 -29 -5.5t-22 15.5q7 115 6.5 218t0.5 206q0 36 0.5 73.5t1.5 74.5q0 26 1.5 55t-3.5 49q-2 4 -4.5 7.5t-2.5 8.5q0 8 4.5 14.5t8.5 13.5q10 1 18.5 3t19.5 0q7 -1 14 -4t13.5 -4.5t13.5 -1t14 6.5q4 0 4.5 -2.5t2.5 -4.5
q34 2 65 7t58 0z" />
    <glyph glyph-name="F" unicode="F" horiz-adv-x="339" 
d="M322 741q-2 -12 -7.5 -20.5t-7.5 -20.5q-19 -4 -40 -4t-42.5 0.5t-42 -1.5t-36.5 -11q-4 -44 -5.5 -86.5t-8.5 -79.5q6 -12 3.5 -27.5t-5.5 -28.5q16 -4 33 -2.5t33 3.5t31 2.5t28 -3.5q-2 -7 -3.5 -15.5t-5 -17t-9.5 -14.5t-16 -7q-10 -2 -19 2.5t-20 3.5q-17 -1 -32 -8
t-25 -18q-3 -47 -3 -82.5t-6 -73.5q4 -15 3 -33t0 -37q4 -6 4 -14t-4 -13q-1 -5 3.5 -5t2.5 -5q-5 0 -5 -1.5t0.5 -4t0.5 -5t-4 -2.5q2 -17 3 -30.5t4 -26.5q-4 -6 -11 -9t-15 -9q-9 -6 -16 -15.5t-22 -10.5q-17 0 -31.5 11.5t-25.5 22.5q1 30 2.5 59t2.5 62q0 2 -2.5 1.5
t-2.5 1.5q0 12 2.5 17.5t-2.5 13.5q-1 4 2 4t3 2q2 32 4.5 61t4.5 57.5t3.5 58t2.5 61.5q3 14 5.5 28.5t2.5 31.5q0 8 -2 17t-1 17q0 3 2 6t3 7q0 6 -2 12t-2 12q1 11 3.5 20t3.5 18q2 28 0.5 56t-3.5 51q5 4 8 8t8 8q37 0 67.5 1.5t64.5 3.5q38 2 73.5 5.5t67.5 -5.5z" />
    <glyph glyph-name="f" unicode="f" horiz-adv-x="302" 
d="M288 739q-6 -29 -29 -39q-42 4 -80 0.5t-76 -14.5q-5 -33 -7.5 -63.5t-3.5 -60.5t-0.5 -60t1.5 -63q15 -3 31.5 -1.5t32 3.5t29.5 0.5t24 -10.5q-2 -14 -7 -22t-13 -16q-26 0 -50 -1t-44 -15q5 -66 7.5 -141t7.5 -140q0 -8 0.5 -15.5t2.5 -12.5q4 -13 8.5 -22t-10.5 -18
q-2 -2 -6 -2.5t-8 -2.5q-6 -4 -11.5 -10t-11.5 -8q-17 -8 -35.5 -8t-29.5 11q-14 15 -11 36.5t6 46.5q-1 50 -0.5 107t2 114.5t3 112t2.5 98.5q0 35 2 67.5t4 61.5q2 16 3 31t-5 29q11 13 30.5 19t42.5 8t47.5 2.5t45.5 2.5q11 2 22 3t17 2q15 -1 35.5 -1t31.5 -9z" />
    <glyph glyph-name="G" unicode="G" horiz-adv-x="314" 
d="M223 631q-11 -2 -18.5 5t-17.5 11q-3 1 -7 0t-7 1q-7 3 -14.5 12t-16.5 8t-14.5 -10t-8.5 -21t-4.5 -24.5t-3.5 -19.5q-2 -5 -4 -8t-3 -6q-1 -10 1.5 -24t1.5 -25q0 -22 -3 -45.5t-5 -47.5q-2 -45 3.5 -92.5t4.5 -94.5q0 -21 -3 -39.5t-1 -36.5q0 -5 2 -9t2 -9
q2 -24 3 -44.5t12 -38.5q5 -9 13 -10.5t17 0t18 4.5t16 4q12 15 15 34t2.5 40.5t-2 43.5t1.5 42q-5 5 -14 8.5t-17.5 7.5t-15 9.5t-6.5 14.5q0 13 12.5 15.5t24.5 7.5q23 -3 52 -4t52 -12q5 -22 0.5 -43.5t-1.5 -44.5q2 -14 5 -28.5t1 -28.5q-2 -15 -9 -31.5t-6 -31.5
q-12 -11 -26.5 -17.5t-29.5 -13.5q-11 -5 -23 -11t-28 -9q-30 -5 -59.5 -1t-53.5 16t-40 32t-19 48q-2 26 -0.5 52t0.5 50q-1 26 -0.5 59.5t1.5 62.5q1 18 2.5 40t3 45.5t3.5 46.5t3 42q2 26 1.5 55.5t4.5 59.5q3 14 7.5 29.5t9.5 26.5t13.5 24t15.5 18q9 6 24 7.5t18 6.5
q2 2 2 -1q14 -4 36.5 -4t39.5 -9q10 -5 21.5 -11.5t22.5 -13.5q6 -2 8 -4q2 -3 2.5 -8t2.5 -9q2 -5 5 -7t3 -7q0 -13 -10.5 -20t-18.5 -14z" />
    <glyph glyph-name="g" unicode="g" 
d="M241 635q-12 -3 -23.5 -2.5t-21.5 8.5q-5 4 -7 9t-4.5 9.5t-6.5 7.5t-13 3q-12 0 -18.5 -7.5t-11 -18t-8 -22.5t-8.5 -21q-5 -60 -4 -121t3 -125q1 -32 -2 -63.5t-5 -63.5q-1 -26 0.5 -54t4.5 -53q3 -19 8 -38.5t13 -36.5q22 -5 42 -2t33 15q5 23 8.5 51t6 56.5t4 56
t1.5 49.5q-8 9 -16 7t-19 0q-10 2 -20 8.5t-15.5 15t-3 16t16.5 10.5q11 3 26.5 3.5t30.5 -1.5q28 -3 48 -6.5t44 -16.5q8 -26 2.5 -52t-7.5 -52q-2 -18 0 -35.5t-6 -34.5q2 -11 0.5 -20.5t-4 -19.5t-5 -20.5t-1.5 -23.5q-5 -6 -9.5 -13t-11.5 -12q-8 -5 -18 -6.5t-21 -3.5
q-17 -3 -31 -6t-28 -4.5t-28.5 -1.5t-32.5 3q-14 2 -29 7.5t-29 12.5t-25 16t-16 19q-14 26 -18 63t1 75q-2 42 -1.5 82t2.5 80t5.5 81.5t6.5 86.5q2 12 3.5 23.5t3.5 25.5q0 3 -1 6.5t-1 6.5q2 8 6.5 19.5t8.5 24.5t6.5 25t7.5 20q12 19 30.5 29.5t40.5 13.5t45.5 0.5
t46.5 -9.5q7 -6 15.5 -15.5t13.5 -20t5 -22t-10 -21.5z" />
    <glyph glyph-name="H" unicode="H" horiz-adv-x="308" 
d="M84 739q7 -17 9 -38t1 -43t-4 -42.5t-5 -36.5q-2 -20 -1 -39.5t0 -37.5q-2 -21 -6.5 -40t-5.5 -41q33 -6 59 -4t58 4q7 15 5.5 30t3.5 32q-1 27 1.5 57.5t4.5 62.5q1 14 3 29t4 29q2 22 4 40.5t13 34.5q14 2 34 2t36 -8q5 -38 2.5 -73t-5.5 -78q-3 -38 -5.5 -76.5
t-7.5 -76.5q-5 -37 -4.5 -74t-1.5 -72q-2 -28 -3.5 -62t-2.5 -69t0 -69.5t4 -64.5q-10 -2 -22 -4t-24 -3t-24 1t-21 7q-1 88 1 171.5t4 171.5q-9 7 -24 10t-31.5 3t-32.5 -1.5t-26 -3.5q4 -45 -1.5 -91t-0.5 -86q1 -5 1 -8.5t4 -6.5q1 -4 -3 -4.5t0 -4.5q4 -22 5 -43
t2.5 -41.5t3.5 -40.5t7 -39q-11 -3 -28 -7.5t-32 -5t-24.5 4.5t-3.5 22q2 125 7 263.5t11 284.5q1 28 1 55t2 55q1 15 1.5 33t10.5 32q14 2 23.5 4t23.5 -4z" />
    <glyph glyph-name="h" unicode="h" horiz-adv-x="317" 
d="M83 426q7 -4 19 -6t26 -2.5t27.5 0t23.5 0.5q8 5 7 17.5t-1 21.5q2 49 6.5 103.5t6.5 108.5q1 12 2 26.5t6 19.5q8 5 24 4.5t22 -1.5q1 0 7 -1.5t13 -3.5t13 -4.5t7 -3.5q4 -5 6 -18t2.5 -28t0 -28.5t-1.5 -19.5q-2 -11 -4 -26t-4 -24q2 -57 -2 -118.5t-6 -112.5
q-4 -76 -5 -156.5t10 -155.5q-22 -6 -43 -7.5t-47 -9.5q-8 5 -16.5 8t-10.5 12q-2 8 1 14t3 14q1 8 -1 17t-2 18q-1 34 1 71.5t4 74.5t3 73t-1 69q-8 1 -20 2t-24.5 1t-24.5 -2t-19 -7q-8 -51 -2.5 -100t10.5 -100q2 -11 1 -22t1 -22q2 -19 9 -32t12 -28q-11 -3 -23.5 -9.5
t-25 -10.5t-25 -3.5t-24.5 11.5q1 25 2.5 51.5t3 53.5t1 52.5t-4.5 47.5q5 48 0.5 102t-5.5 109q-1 53 -8 104.5t-11 100.5q-2 16 -1.5 28t4.5 26q10 5 26.5 7.5t25.5 -7.5q3 -4 4.5 -16t3.5 -23t4.5 -21.5t3.5 -16.5q2 -20 1.5 -43.5t1.5 -47.5q2 -18 3.5 -34.5t1.5 -31.5
q1 -17 0.5 -34t1.5 -31z" />
    <glyph glyph-name="I" unicode="I" horiz-adv-x="142" 
d="M117 731q0 -12 1 -32.5t2 -32.5q2 -26 3 -55t1 -59q0 -11 3 -22t3 -22q0 -23 0.5 -49.5t-3.5 -49.5q-2 -13 -3 -28t-2 -31t-3 -31t-7 -28q2 -10 3.5 -21t-3.5 -17q2 -27 -0.5 -54t-4.5 -55q-2 -29 1 -58t1 -62q-8 -5 -17.5 -4t-18.5 -1q-8 -2 -12 -7t-10 -7
q-30 -12 -51 21q6 45 7 95.5t8 104.5q-4 18 -1 35t4 36q6 104 8.5 207.5t-1.5 200.5q7 9 18.5 15t24.5 9t26 3.5t23 -1.5z" />
    <glyph glyph-name="i" unicode="i" horiz-adv-x="122" 
d="M80 712q7 -15 9 -29.5t3 -29.5t1 -30.5t2 -31.5q1 -11 0.5 -21t-0.5 -21q-1 -24 3 -48t5 -48q0 -14 -2 -28.5t-2 -29.5v-27t-1 -27q-1 -6 1 -11.5t2 -11.5q0 -11 -2.5 -22t-3.5 -22q-2 -14 0 -30.5t0 -30.5q-2 -8 -5 -14t-4 -14q0 -20 2.5 -38.5t-3.5 -36.5
q5 -22 8.5 -46.5t5.5 -42.5q0 -3 -7 -7t-17 -8t-21 -6t-20 0t-13 8.5t-11 12.5q-1 65 -4 130t-4 135q0 24 1.5 48.5t1.5 50.5q0 80 -0.5 160.5t-2.5 161.5q6 8 16 10.5t21 2t22 -3t19 -4.5z" />
    <glyph glyph-name="J" unicode="J" horiz-adv-x="299" 
d="M283 721q7 -21 3.5 -43.5t-5.5 -45.5q0 -5 1.5 -10t0.5 -10q-2 -15 -5.5 -30t-5.5 -31q-1 -9 -0.5 -18.5t0.5 -17.5q-2 -20 -4.5 -39.5t2.5 -40.5q-8 -42 -6.5 -86t-1.5 -88q-1 -11 -3.5 -21t-3.5 -21q-1 -35 2 -69.5t3 -68.5q-6 -12 -16 -24t-24 -20q-8 -5 -17 -6
t-17 -5q-6 -3 -11.5 -7t-11.5 -6q-21 -8 -47.5 -11.5t-50 0t-41.5 15t-22 33.5q-4 20 0 37t6 38q1 10 1 21t1 21q1 6 -0.5 12t0.5 11q4 10 16.5 14t27 3t28.5 -5.5t21 -11.5q2 -11 -3 -20.5t-9 -20.5q-2 -8 -1 -16.5t0 -19.5q-2 -20 -4.5 -34t12.5 -27q25 -4 35.5 6.5
t21.5 22.5q3 78 7 165.5t6 183.5q0 30 2 69t4 66q2 31 4.5 56t5.5 60q1 12 1.5 25t3.5 18q5 10 18 13t27.5 1t28 -7t20.5 -10z" />
    <glyph glyph-name="j" unicode="j" horiz-adv-x="288" 
d="M273 704q4 -33 2.5 -67t-5.5 -69.5t-7.5 -72t-2.5 -73.5q2 -49 -0.5 -94.5t-2.5 -93.5q0 -20 1.5 -43t3.5 -47q1 -19 1 -42t-6 -37q-3 -8 -17 -18.5t-22 -15.5q-11 -6 -22 -7t-24 -4q-20 -4 -39.5 -10.5t-37.5 -10.5q-20 5 -42.5 6.5t-37.5 9.5q-8 17 -10.5 37.5
t-0.5 42.5q1 8 3.5 15t4.5 15q4 25 2.5 50t7.5 48q7 2 19.5 2t25.5 -3t22.5 -8t10.5 -12q1 -6 -4.5 -10t-7.5 -9t-3.5 -13.5t-2.5 -16.5q-2 -13 -4 -28t-2.5 -29.5t2 -27t9.5 -21.5q22 -3 36 7.5t28 20.5q8 23 7.5 48t0.5 52q1 6 3 13t2 14q2 54 1 107t-1.5 105.5t0.5 105.5
t7 107q1 11 0.5 23.5t0.5 24.5q2 23 5.5 34.5t20.5 16.5q16 -2 37.5 -7t37.5 -15z" />
    <glyph glyph-name="K" unicode="K" horiz-adv-x="383" 
d="M127 449q11 5 16 15t12 19q6 8 14 15.5t14 17.5q3 5 3.5 10.5t4.5 10.5q5 7 13.5 15t13.5 16t9 16t9 16t11 15t10 14q5 8 7.5 17t7.5 14q9 8 21.5 8.5t26 -3t27 -8t24.5 -7.5q-2 -17 -11.5 -26.5t-14.5 -23.5q-25 -25 -42.5 -56.5t-41.5 -57.5q8 -21 7 -52t2 -61
q3 -24 6.5 -47.5t5.5 -45.5q2 -21 2 -40.5t3 -39.5q2 -15 7.5 -30t8.5 -32t5 -31.5t10 -28.5q4 -8 11 -16.5t12 -18.5t6.5 -21.5t-3.5 -26.5q-8 -5 -16.5 -6t-18.5 -3q-7 -2 -16 -4.5t-17.5 -3.5t-16 1.5t-11.5 11.5q-2 2 -1 7t-1 10q-1 4 -3.5 6.5t-2.5 3.5q-1 2 0.5 5.5
t0.5 6.5q0 4 -2.5 8t-3.5 8q-4 17 -5 35t-5 36q-2 8 -4 17l-4 18q-12 54 -19 118t-15 120q-11 -14 -25.5 -32t-28.5 -33q-1 -36 -2.5 -74t-3 -76.5t-1 -76t3.5 -70.5q-6 -1 -14.5 -5.5t-18.5 -10t-21.5 -9.5t-22.5 -4q-16 -1 -30 7t-15 25q-1 19 2 44t3 42q0 8 1.5 14.5
t1.5 11.5q-2 28 -0.5 68t2.5 75q0 81 -1 175t-1 180q0 12 -2 24t-1.5 22.5t5.5 18t18 9.5q7 1 19 0t24 -3.5t22.5 -5.5t13.5 -5q8 -5 14 -18t6 -28q0 -51 -3 -104.5t-1 -101.5z" />
    <glyph glyph-name="k" unicode="k" horiz-adv-x="361" 
d="M134 733q6 -13 6.5 -28t-2 -30.5t-5.5 -32t-4 -31.5q-1 -11 0.5 -21.5t-0.5 -21.5q-2 -21 -5.5 -49.5t-7.5 -52.5q-2 -8 -4 -15t1 -17q43 65 78.5 136t72.5 141q5 2 7.5 6t7.5 6q9 -1 18.5 -2t18 -3t14 -6.5t6.5 -11.5t-4 -18t-11.5 -22.5t-13 -22.5t-9.5 -18
q-2 -5 -1.5 -9.5t-1.5 -8.5q-4 -8 -10.5 -16t-5.5 -17q-17 -26 -33.5 -53t-30.5 -57q-2 -33 2.5 -63t12.5 -61q7 -30 19 -58t25 -54q7 -23 16.5 -50t20.5 -51q3 -5 7 -9.5t6 -9.5q2 -4 1.5 -7.5t1.5 -7.5q3 -7 8.5 -13.5t9 -13.5t4.5 -14t-5 -14q-12 -2 -25 -4.5t-25 -3
t-22 3t-16 14.5q-6 35 -16 67t-21 62t-22.5 60.5t-20.5 62.5q-8 1 -11.5 -5.5t-9.5 -10.5q-6 -5 -13.5 -8t-14.5 -6t-13 -8t-9 -13q2 -43 -3 -86t-2 -89q0 -5 2.5 -10.5t2.5 -10.5q0 -10 -3 -20t1 -21q-9 -1 -25 -4.5t-32 -5t-28.5 1.5t-15.5 16q-2 10 0.5 22t3.5 24
q0 16 0.5 32t0.5 29q2 69 4.5 136.5t5.5 135.5q3 63 7 122.5t6 119.5q1 26 1.5 50.5t0.5 51.5q7 12 20.5 14.5t28.5 0t29.5 -8t23.5 -10.5z" />
    <glyph glyph-name="L" unicode="L" horiz-adv-x="262" 
d="M108 720q2 -60 5.5 -124t0.5 -131q-3 -81 -7.5 -161.5t-8.5 -158.5q-1 -16 1 -29.5t-6 -29.5q2 -9 5 -16.5t2 -18.5q15 -5 34 -3t38.5 4t38 1.5t33.5 -9.5q0 -5 -4.5 -7.5t-9.5 -7.5q-4 -3 -6.5 -7.5t-6.5 -6.5q-7 -3 -15 -1t-16 2q-11 1 -25 -0.5t-29 -3.5t-30 -2.5
t-27 -2.5q-8 -2 -14 -5t-13 -2q-17 2 -29 11.5t-18 17.5q1 5 1 10.5t3 7.5q-4 6 -4.5 14t0.5 16q1 34 3.5 74t0.5 72q7 18 5 36q-3 91 3.5 185t8.5 192v43.5t5 42.5q20 6 41 6t40 -8z" />
    <glyph glyph-name="l" unicode="l" horiz-adv-x="324" 
d="M134 730q0 -24 -9.5 -45.5t-11.5 -45.5q-2 -14 0 -27t0 -27q-2 -6 -4.5 -12t-3.5 -12q-3 -18 -1.5 -40t1.5 -45q-1 -23 -1 -47t-1 -50q-1 -46 -2 -88.5t4 -88.5q2 -26 5.5 -50t5.5 -46q2 -11 0.5 -22.5t6.5 -21.5q25 -5 54 1.5t56 11.5q10 1 22.5 2t24 -1.5t21 -9.5
t12.5 -21q2 -7 -3 -12t-13 -8t-18 -4.5t-18 -2.5q-13 -2 -29.5 -1t-32.5 -1q-26 -3 -59.5 -5.5t-60.5 -8.5q-12 -3 -23 -5t-21 -1.5t-19 4.5t-15 15q5 55 3 110t-2 111q0 50 2.5 99t2.5 99q0 36 1 74t4 76.5t8 76t13 70.5q7 11 20 14t28 1t29.5 -7t23.5 -9z" />
    <glyph glyph-name="M" unicode="M" horiz-adv-x="403" 
d="M381 722q7 -49 6 -104q0 -14 -3 -28.5t-3 -28.5q-1 -42 3 -83.5t-3 -83.5q6 -10 3.5 -21t2.5 -23q-3 -10 -4 -22t-1.5 -25t-1.5 -24.5t-4 -19.5q1 -17 2.5 -37.5t2 -42.5t-0.5 -43.5t-4 -40.5q-2 -16 -3.5 -39t-1.5 -46q-6 1 -13.5 -2.5t-15.5 -8.5t-16.5 -9.5
t-16.5 -5.5q-9 -1 -18 1.5t-16 7.5t-9 12t4 15q8 64 10 125t5 124q3 60 8 114.5t5 117.5q-8 -16 -15.5 -37.5t-15.5 -41.5q-2 -5 -1.5 -10t-1.5 -8q-5 -10 -15 -17.5t-22 -11.5t-24 -3.5t-22 7.5q-15 11 -23 30t-14.5 41t-13 43t-17.5 36q2 -47 -2.5 -100t-7.5 -108
q-1 -17 0.5 -33t-0.5 -32q-1 -5 -4 -10t-4 -10q-2 -7 -2 -14.5t-2 -15.5q-1 -8 -3.5 -15.5t-4.5 -14.5q-1 -9 0.5 -18t-0.5 -17q-1 -5 -3.5 -9t-4.5 -9q-2 -9 -2 -19.5t-1 -20t-3 -17.5t-8 -13q-7 -6 -16 -6.5t-18 2.5t-16.5 8t-11.5 10q5 72 10.5 147t10.5 151q2 43 5 81
t0 86q-2 28 -5.5 56t-7.5 56q-2 16 -3.5 29.5t1.5 26.5q17 11 42 10t46 -6q14 -17 28.5 -34t29.5 -34q15 -31 30.5 -62t25.5 -60q8 8 12 18.5t9 20.5q4 11 8.5 21.5t7.5 21.5q4 14 6 27.5t6 27.5q1 4 3.5 7.5t4.5 8.5q5 17 9 33.5t15 29.5q24 10 45.5 5t42.5 -13z" />
    <glyph glyph-name="m" unicode="m" horiz-adv-x="407" 
d="M86 566q-1 -65 -0.5 -126t7.5 -123q-4 -14 0 -30.5t1 -32.5q4 -7 5 -13.5t5 -9.5q-2 -9 -1 -20.5l2 -23t1.5 -22.5t-2.5 -20q3 -18 4 -30.5t2.5 -24.5t4 -24.5t7.5 -29.5q-9 -9 -22 -19.5t-27.5 -15.5t-29.5 -3t-28 18q1 30 1 63v62q0 15 -2 29.5t-3 29.5q0 7 2 14t2 14
q-2 20 -3.5 40t-1.5 41q-1 7 -3 14t-2 15q-2 21 -1.5 43t-0.5 43q-1 29 -1 58.5t-2 63.5q-1 8 -2.5 15.5t-0.5 13.5q0 3 2 4.5t3 4.5q2 26 0 51.5t4 50.5q0 4 -1.5 6t-1.5 5q4 6 6 13t7 12q11 0 23 3.5t24 1.5q11 -2 17.5 -8.5t16.5 -8.5q0 -3 1.5 -4t0.5 -5
q20 -18 34.5 -40t26 -46t22 -49.5t21.5 -51.5q10 11 18 27.5t15.5 35.5t15 38.5t16.5 36.5q3 4 7 11.5t9 15t10.5 13.5t10.5 7q17 4 32 -0.5t32 -9.5q11 -20 14.5 -43t3.5 -46q0 -11 1.5 -19.5t3.5 -18.5q2 -20 0.5 -43t-2.5 -46q0 -9 1.5 -18.5t0.5 -17.5q-2 -7 -4 -15.5
t-3 -18.5q-1 -12 1 -24.5t1 -24.5t-3 -23t-2 -27q-1 -33 -4 -65.5t4 -67.5q-1 -3 -2.5 -4.5t-2.5 -3.5q2 -15 -0.5 -31t-4.5 -33q5 -1 3 -3t-1 -5q2 -14 9.5 -36t3.5 -39q-16 -2 -30.5 -8.5t-27 -10.5t-23.5 -1.5t-20 19.5q-2 57 -2 117.5t5 127.5q1 11 1.5 23t1.5 24
q5 61 7 109.5t3 102.5q-8 -16 -13.5 -35t-9 -38.5t-7 -38.5t-7.5 -35q-6 -2 -10.5 -8.5t-8 -14t-8 -14t-11.5 -7.5q-10 -2 -18 4t-17 5q-8 5 -14 12t-14 14q-17 51 -34.5 101.5t-40.5 99.5q-1 0 -1 1t-2 1z" />
    <glyph glyph-name="N" unicode="N" horiz-adv-x="335" 
d="M173 647q16 -44 28.5 -83t23.5 -90q4 66 -1.5 130t-12.5 124q9 8 20.5 10.5t23.5 1.5t25 -4t25 -6q6 -17 6.5 -35t1.5 -42q0 -8 1 -15.5t1 -15.5q0 -1 -1.5 -3.5t-1.5 -4.5q0 -10 2.5 -19.5t1.5 -19.5q-1 -34 1 -67.5t3 -68.5q0 -4 -1 -8.5t-1 -8.5q-2 -16 -2.5 -34
t-2.5 -35q-1 -10 1 -18t2 -17q1 -10 -2.5 -25t-1.5 -30q3 -42 -3.5 -77.5t-8.5 -75.5q-1 -21 -7 -41t-9 -38q-7 -4 -12 -3t-12 -2t-10 -8t-8 -7q-8 -2 -16.5 2.5t-16.5 9.5q2 12 -2 18l-8 12q10 17 6 32.5t-6 29.5q0 5 1.5 9t0.5 7q-1 5 -3.5 9t-4.5 9q-2 8 -2 16.5t-1 16.5
q-5 29 -11 58t-6 59q-6 6 -5 15.5t-1 21.5q-2 16 -6 30.5t-5 31.5q-1 8 -4.5 17t-5.5 17q-5 17 -7 33.5t-6 31.5q-6 23 -15.5 46t-17.5 48q-2 -41 -3.5 -90t-5.5 -90q-2 -16 -0.5 -32t0.5 -31q-1 -10 -3.5 -19.5t-3.5 -19.5q-3 -38 -8 -80t-3 -76q0 -20 -3 -42.5t-2 -42.5
q0 -3 2 -5.5t3 -5.5q0 -4 -1 -9.5t-1 -10.5v-10.5t-2 -10.5q2 -5 5 -8.5t2 -10.5q-12 0 -21.5 -5t-18 -9t-17 -4.5t-18.5 8.5q-3 7 -3.5 15.5t0.5 16.5t1 15.5t-3 12.5q5 38 4.5 79t-2.5 75q6 46 7.5 96t3.5 101q3 83 3.5 169t-1.5 167q9 10 24.5 14.5t35.5 2.5
q13 -2 21 -3.5t14 -5t10.5 -9.5t9.5 -16q10 -18 21.5 -37.5t25.5 -32.5z" />
    <glyph glyph-name="n" unicode="n" horiz-adv-x="359" 
d="M331 56q-17 -7 -39.5 -11t-41.5 -2q-4 21 -9 38.5t-11 34.5l-12 34t-12 37q-26 54 -45 115t-37 121q-5 20 -11.5 39t-17.5 34q-1 -45 -5 -89.5t-1 -85.5q-8 -17 -5.5 -33.5t5.5 -36.5q1 -8 0 -15t0 -13q1 -8 4.5 -14.5t4.5 -14.5q2 -7 0.5 -14t-0.5 -14q2 -13 7.5 -25
t7.5 -25q2 -8 1 -16.5t-1 -16.5q1 -9 4 -18.5t-2 -20.5q5 -5 5 -13.5t-2 -13.5q-22 -10 -41 -21.5t-50 -9.5q-4 9 -2.5 23.5t2.5 29t-1 26.5t-12 17q3 40 -0.5 80t-7.5 80t-5.5 80.5t6.5 82.5q-3 31 -3 71.5t1 83.5t1.5 83.5t-0.5 72.5q5 9 14.5 14t20.5 5.5t21.5 -2.5
t16.5 -11q10 -1 18 -3.5t16 -4.5q6 -7 6 -16t2 -17q2 -5 5 -10.5t5 -10.5q3 -11 3.5 -22.5t2.5 -22.5q3 -13 9 -32t8 -35q0 -3 -1 -6t-1 -7q1 -17 12 -35.5t16 -35.5q6 -20 9.5 -39.5t8.5 -42.5q16 -37 28.5 -80t29.5 -85q3 120 6.5 255t6.5 274q4 7 12.5 10t18 3t19 -3.5
t14.5 -7.5q16 -23 14 -47t-3 -54q-1 -23 -0.5 -47t-2.5 -47q-1 -5 -3.5 -9.5t-3.5 -9.5q-4 -23 -1.5 -49t0.5 -49q-2 -11 -1 -23t1 -26q0 -38 -4 -74.5t-3 -69.5q0 -7 1 -13t1 -12q-1 -7 -3.5 -13t-3.5 -13q0 -6 2.5 -13t2.5 -14q0 -10 -1.5 -19t-0.5 -17q2 -5 4.5 -8
t4.5 -8q5 -16 4.5 -31t-6.5 -26z" />
    <glyph glyph-name="Ntilde" unicode="&#xd1;" horiz-adv-x="341" 
d="M249 742q9 -5 15 -4t23 1q5 -8 7 -18t12 -12q5 -23 7 -43.5t9 -40.5q-7 -36 -6 -78.5t3.5 -86t1.5 -85.5t-13 -78q1 -43 -6 -80t-12 -75q4 -27 11 -54t5 -50q-8 -3 -19 -6t-22.5 -5t-22.5 -1.5t-19 6.5q-7 35 -15.5 68t-16.5 63q-8 28 -15 54q-7 22 -11 44t-10 44
q-8 30 -19 60t-23 57q-8 32 -19.5 64.5t-29.5 58.5q2 -18 2 -34t1 -32q1 -17 7.5 -31.5t8.5 -29.5q2 -8 0.5 -16t-0.5 -16q2 -14 5.5 -33.5t4.5 -39.5q1 -8 -1 -17t-2 -17q0 -5 1.5 -10t1.5 -10q0 -7 -2 -13.5t-3 -13.5q-1 -13 1.5 -25.5t1.5 -23.5q0 -17 -2.5 -32.5
t-1.5 -29.5q1 -19 4.5 -44t3.5 -49q0 -6 -1.5 -15t-3.5 -12q-3 -4 -12.5 -8.5t-21 -7.5t-22 -4t-16.5 2t-8.5 12t-3 20t0 23.5t0.5 22.5q-1 17 -4 36t-4 35q-1 8 0.5 15.5t0.5 15.5q-2 59 2 115.5t2 115.5q-2 51 -2 106.5t-2 106.5q0 11 1 23t-1 23q-1 6 -3.5 10t-2.5 9
q0 12 6.5 16.5t14.5 14.5q16 -1 29 -7.5t23.5 -15.5t19.5 -19.5t18 -20.5q18 -45 29.5 -88.5t25.5 -85.5q2 -9 9 -17t12 -16q4 -8 6 -16t5 -16q11 -26 23.5 -49t19.5 -51q2 52 -3.5 102t-3.5 95q2 25 2 50.5t5 47.5q1 6 4 12t4 12q3 27 -2.5 57.5t-1.5 61.5q5 -2 6.5 0
t3.5 3zM253 777q-3 -8 -11 -9t-16 -4q-5 -2 -8.5 -6t-8.5 -6q-8 -2 -23 -4.5t-25 -0.5q-9 2 -19 5.5t-19.5 6.5t-20 3t-21.5 -5t-21 -11t-19.5 -9t-19.5 -2t-20 9q0 21 14.5 32t38.5 14.5t55.5 1.5t64.5 -7q18 4 40.5 2t38.5 -10z" />
    <glyph glyph-name="A" unicode="A" horiz-adv-x="325" 
d="M201 20q7 32 10 68.5t3.5 74t0.5 74t2 68.5q-12 13 -32.5 9.5t-39.5 -6.5q-16 -2 -31.5 -2.5t-26.5 -8.5q3 -38 1.5 -72.5t-4 -69t-3.5 -69t3 -70.5q-8 -2 -18.5 -6t-21 -6.5t-20.5 -1t-17 11.5q-4 6 -3.5 14t0.5 18q2 65 1.5 127.5t0.5 120.5q0 14 -1 29t-1 31
q1 53 5.5 100.5t7.5 95.5q1 11 2.5 20t2.5 23q1 24 4.5 50t11.5 45.5t22 29.5t37 3q18 17 45 11q8 -2 12.5 -2t12.5 -1q24 -2 44.5 -16t39.5 -26q5 -16 15 -27t18 -24q8 -29 12.5 -60.5t6.5 -70.5q1 -25 -2 -51t-3 -52q0 -14 2.5 -27.5t0.5 -27.5q0 -4 -2 -8t-2 -8
q-1 -9 0.5 -18t0.5 -18q-1 -12 -4 -24.5t-4 -24.5q0 -6 1 -12t1 -12q-1 -10 -4.5 -19.5t-3.5 -19.5q-3 -42 -1 -81.5t1 -77.5q-1 -8 -9.5 -9.5t-16.5 -3.5q-6 -2 -12 -5.5t-11 -4.5q-11 -1 -20 5t-14 14zM144 659q-8 -6 -12.5 -15t-12.5 -16q-5 -17 -6 -33t-3 -32
q-2 -13 -6.5 -25.5t-6.5 -26.5q-1 -2 0.5 -5t0.5 -6q0 -5 -2 -10t-3 -10q-4 -32 -3 -64.5t-3 -65.5q16 -3 31.5 -2.5t31 3t31.5 4.5t34 2q6 25 5 52.5t-5 56.5t-8.5 60t-7.5 62q-2 14 -3 34t-7 36q-20 6 -45 1z" />
    <glyph glyph-name="B" unicode="B" horiz-adv-x="287" 
d="M240 526q-8 -20 -7.5 -40.5t-0.5 -39.5q-1 -20 -5.5 -39.5t-2.5 -40.5l25 -27.5t17 -38.5q2 -17 -1 -38t-4 -42q0 -21 -2 -43t-4 -43q-1 -4 -2.5 -7.5t-2.5 -8.5q-2 -16 -2.5 -31.5t-2 -29t-6 -24t-15.5 -16.5q-4 -2 -9.5 -2.5t-10.5 -2.5q-8 -4 -16 -10t-16 -8
q-5 -2 -11 -1t-12 0q-26 -5 -53 -6t-52 9q-11 10 -22 18t-19 19q6 77 14 153t13 150.5t5 146t-8 140.5q-4 11 -9 22.5t-4 23.5q1 5 6.5 11.5t3.5 14.5q20 18 50 28.5t59 8.5q29 -1 55 -18t36 -40q4 -10 8 -29.5t5 -29.5q2 -20 0.5 -44t2.5 -45zM115 311q-3 -7 -1 -12t3 -11
q1 -19 -4.5 -40.5t-7.5 -41.5q-2 -18 -1 -34t-7 -30q3 -14 1.5 -26.5t-3 -24.5t-1 -24.5t7.5 -25.5q-1 -2 -3.5 -2.5t-1.5 -5.5q3 -5 8.5 -6t11.5 -0.5t13 1.5t14 0q10 2 16 10.5t9.5 20.5t5 24.5t3.5 22.5q2 12 2.5 26.5t2.5 29.5q6 46 11 86t-3 78q-23 8 -41 0t-35 -15z
M105 672q-1 -2 -0.5 -8t2 -13t3 -14.5t2.5 -11.5q1 -6 4 -11.5t4 -13.5q2 -8 2.5 -16t0.5 -14q4 -54 0 -105.5t-5 -94.5q10 -1 15 1t13 5q11 38 12 82.5t3 91.5q1 36 0 72.5t-17 62.5q-9 3 -22 0t-17 -13z" />
    <glyph glyph-name="C" unicode="C" horiz-adv-x="296" 
d="M97 418q0 -4 3.5 -4t2.5 -4q-8 -5 -5.5 -14.5t2.5 -21.5q0 -15 -1 -33.5t1 -34.5q1 -8 3 -14.5t2 -13.5q-2 -35 0.5 -73t7.5 -75q3 -26 13 -50t28 -36q16 0 19.5 13t7.5 26q21 15 44.5 13.5t48.5 -7.5q1 -9 -2 -15.5t-5 -23.5q-20 -14 -42 -26.5t-49 -20.5q-17 -5 -36 -5
t-37 3.5t-34 9t-26 13.5q-9 9 -14.5 23.5t-9.5 31t-6 34.5t-4 35q-2 21 -3 43.5t-2 45.5q-2 57 -3 114.5t1 108.5q2 30 3.5 56t9.5 50q0 25 7 50.5t19 45.5q10 16 27 29t36.5 21t41 11.5t42.5 1.5q5 -1 16 -2t16 -5q4 -2 5 -6.5t5 -9.5t7.5 -7.5t3.5 -6.5q1 -7 -2.5 -12.5
t-9 -9t-11 -6t-9.5 -2.5q-8 0 -13.5 3.5t-11.5 4.5q-23 4 -38 -8t-23 -31q-4 -8 -9 -22t-6 -23q0 -4 1 -7.5t1 -7.5q-1 -7 -4 -13.5t-4 -13.5q-5 -31 -4.5 -63t-0.5 -59z" />
    <glyph glyph-name="a" unicode="a" horiz-adv-x="328" 
d="M309 44q-11 -4 -23 -9t-24 -8t-23.5 -3t-23.5 7q-1 33 1 64t2 69q1 11 3 22.5t1 20.5q-2 13 -2 34.5v41.5q-2 4 -4.5 6.5t2.5 6.5q-4 5 -15.5 8.5t-25 5t-26 0t-19.5 -6.5q-9 5 -18 -1t-19 -8q-3 -14 0.5 -28.5t5.5 -29.5q2 -12 0.5 -23.5t-0.5 -23.5q1 -5 3 -8.5t2 -7.5
q2 -17 1 -35t-1.5 -36t1 -35.5t7.5 -35.5q-6 -5 -13.5 -5t-15.5 -3q-6 -2 -11.5 -6t-11.5 -7.5t-13 -4.5t-16 3q-5 2 -8 7t-8 10q2 10 2 19t-1 20q0 10 2 21t2 23q-2 51 -2.5 108t-2.5 117q-1 21 -1 39t-0.5 36t-0.5 36.5t-1 40.5q-2 29 -4.5 63.5t-4.5 66.5q-2 33 5 61
t26 41q10 7 25.5 10t32.5 3.5t34 -1t30 -4.5q4 -1 8.5 -3t9.5 -3q11 -2 19.5 -1t16.5 -1q4 -1 8.5 -3t9.5 -3q14 -5 23.5 -11t18.5 -20q11 -18 13.5 -41t2.5 -48.5t-0.5 -50.5t4.5 -47q-2 0 -3.5 -8.5t-1.5 -10.5q1 -11 1.5 -18t1.5 -14.5t1.5 -16.5t0.5 -22q0 -8 2.5 -16.5
t3.5 -17.5q1 -8 -1 -15t-1 -14q1 -2 3 -5t2 -5q2 -8 2.5 -17t1.5 -17q1 -42 0 -83q3 -8 3 -16.5t-1 -17.5t-0.5 -17.5t4.5 -16.5q-5 -8 -3 -15.5t3 -15.5q1 -16 -4.5 -34.5t2.5 -35.5zM183 675q-6 1 -14 -1.5t-17 -6t-18 -6.5t-18 -2q-8 1 -11.5 4.5t-12.5 3.5
q-12 -18 -11 -40t1 -45t1.5 -47t-0.5 -47q-1 -14 1 -26.5t3 -25.5q2 -25 4 -47.5t7 -43.5q28 3 60 3.5t62 1.5q-5 76 -7.5 150.5t-10.5 146.5q-4 3 -5.5 7.5t-3 8.5t-3.5 7.5t-7 4.5z" />
    <glyph glyph-name="b" unicode="b" horiz-adv-x="293" 
d="M227 424q6 -6 16.5 -11.5t19.5 -13t14 -18.5t-1 -27q6 -18 6 -37t-2 -38t-5.5 -39.5t-3.5 -41.5q0 -8 0.5 -17t-0.5 -17q-1 -5 -3 -9.5t-3 -10.5q-1 -2 1 -4.5t2 -5.5q-1 -12 -2 -29.5t-3 -31.5q-2 -20 -12 -38t-27 -22q-5 -2 -12 -0.5t-14 0.5q-11 -2 -21 -7t-20 -6
q-11 -2 -25.5 0t-27.5 1q-12 0 -22.5 -2.5t-18.5 -0.5q-5 1 -8 4t-8 4q-9 2 -18 1t-16 4q-2 5 -5 7t-5 6q2 64 6 124t2 120q2 2 2.5 5t2.5 6q0 31 1.5 72.5t4.5 86.5t5.5 90.5t3.5 86.5q0 17 3 36t0 33q-2 5 -5.5 8.5t-5.5 7.5t-1.5 8t7.5 10q6 5 15.5 8.5t20 5.5t21 3
t18.5 1q35 0 60.5 -5t51.5 -11q16 -11 24.5 -28t12 -37.5t3.5 -42.5v-42q1 -14 -1 -30t-5 -29q-2 -5 -4.5 -9.5t-3.5 -9.5q-2 -11 -1.5 -24.5t-3.5 -27.5q-2 -5 -5.5 -7.5t-4.5 -8.5zM107 370q-1 -20 -1 -36.5v-33v-33.5t-1 -37q-1 -16 -3.5 -32.5t-2.5 -35.5q0 -15 1 -25.5
t-4 -24.5q4 -8 4.5 -16.5t-0.5 -17.5t-1.5 -19t1.5 -22q14 -5 28 -3.5t28 3.5q16 18 21.5 50.5t9.5 64.5q6 66 12 122t1 112q-11 6 -24 7.5t-26 -0.5t-24.5 -8t-18.5 -15zM122 692q-13 -3 -12.5 -15t0.5 -27q0 -54 -1 -110.5t1 -106.5q14 -2 30 4t22 18q4 7 7.5 25t5.5 30
q2 17 2.5 35.5t2.5 37.5q3 29 2.5 55.5t-8.5 48.5q-15 -4 -27 2t-25 3z" />
    <glyph glyph-name="ntilde" unicode="&#xf1;" horiz-adv-x="319" 
d="M303 694v-21t-0.5 -11t-3 -14t-8.5 -31q-5 -39 -9.5 -76.5t-6.5 -74.5q-1 -8 -3 -15.5t-2 -15.5q0 -2 1.5 -5t1.5 -5q0 -13 -3 -27t-5 -28t-1 -28t-1 -27q-1 -11 -1.5 -21t-1.5 -23q-1 -9 -4.5 -18.5t-5.5 -18.5q-2 -11 0 -22.5t0 -21.5q0 -4 -2.5 -6.5t-3.5 -6.5
q-1 -2 0.5 -5t0.5 -7q0 -4 -2 -7.5t-2 -6.5q-2 -14 -1.5 -28.5t-0.5 -27.5q-2 -19 2.5 -31t5.5 -29q-13 -2 -29.5 -3.5t-32.5 3.5q-17 54 -28.5 109t-21.5 111t-20 113t-24 116q-8 -24 -5.5 -48.5t3.5 -50.5q1 -22 0.5 -42.5t-1.5 -42.5q-2 -51 -2.5 -100t-0.5 -106
q0 -18 1.5 -37.5t-1.5 -42.5q-5 -5 -14.5 -9.5t-20 -6t-20.5 -0.5t-17 6q4 72 4.5 144t-1.5 144.5t-5.5 146t-5.5 149.5q0 9 -1 21t-1 25t1 23.5t4 16.5q6 10 13.5 14.5t16.5 6t18.5 1.5t19.5 1q4 -2 4.5 -5.5t2.5 -7.5q6 -2 9.5 -1t11.5 1q15 -22 25.5 -46t20.5 -53
q5 -16 9 -28t10 -28q12 -32 17.5 -73t16.5 -83q7 14 7 29.5t1 29.5q2 23 3 45t1 44q-1 6 1 11t2 10q-1 17 -5 33.5t3 33.5q-5 12 -5.5 21.5t-0.5 19t-1 18.5t-7 20q3 7 1 12t3 12q21 5 49 -2t48 -16zM268 781q-10 -11 -29 -16q-5 -8 -14 -12t-17 -10q-4 2 -6 0t-4 0
q-6 -2 -12 -6.5t-14 -6.5q-15 -5 -33 -3.5t-35 -0.5q-6 -1 -12 -3.5t-12 -1.5q-4 0 -6 1.5t-6 3.5q-12 3 -22.5 2.5t-20 -1.5t-19 -1t-19.5 5q1 12 1 15.5t9 3.5q32 18 72.5 24t85.5 7q8 0 17 -3.5t17 -3.5q9 0 19 4t20 7t20.5 3t19.5 -7z" />
    <glyph glyph-name="O" unicode="O" 
d="M318 158q3 -6 2 -12t-2.5 -12t-2 -11t2.5 -9q-6 -17 -12.5 -33t-16.5 -32q-8 -4 -16.5 -7.5t-19.5 -8.5q-7 -4 -11.5 -9t-9.5 -7q-24 -14 -60.5 -18t-72 2.5t-63.5 24.5t-35 49q-4 17 -3.5 41.5t2.5 43.5q2 45 5.5 94t10.5 88q11 57 18.5 113t12.5 112q1 13 0.5 25
t1.5 24q3 23 9.5 44t11.5 42q8 8 14 17.5t17 15.5q15 4 28 6.5t28 3.5q6 0 12 -2.5t13 -2.5q20 -1 38 1.5t38 -4.5q9 -4 23.5 -13t20.5 -17t11.5 -23.5t11.5 -23.5q5 -8 3.5 -24.5l-2.5 -27.5q0 -8 3 -14.5t2 -14.5q0 -4 -2 -8t-3 -8q-1 -11 2 -21.5t3 -21.5q2 -21 -2 -41
t-3 -35q1 -8 4 -15.5t3 -15.5q0 -19 -1.5 -38t-1.5 -38q0 -6 2 -12.5t3 -12.5q0 -11 -2.5 -23.5t-2.5 -24.5q0 -10 1 -19.5t0 -19.5q0 -7 -1.5 -14t-3.5 -14q-2 -11 -2.5 -21t-5.5 -18zM185 56q21 31 28.5 71.5t13.5 77.5q5 28 6 57l2 58q1 20 1 45.5t-2 45.5q-1 5 1 9.5
t2 8.5q-1 42 -1.5 83.5t-1.5 80.5q-1 26 -4 50.5t-14 47.5q-2 0 -2.5 1t-2.5 1q-11 -9 -25.5 -13t-31.5 -8q-12 -18 -16.5 -39.5t-6 -44t-3 -45.5t-6.5 -45q5 -14 1.5 -28t-5.5 -28q-1 -14 -1.5 -25.5t-2.5 -22.5q-2 -16 -2.5 -35.5t-0.5 -40.5t-1.5 -42t-5.5 -40
q3 -41 1.5 -84t11.5 -85q6 -7 10.5 -14.5t16.5 -8.5q8 6 19.5 7.5t21.5 4.5z" />
    <glyph glyph-name="o" unicode="o" horiz-adv-x="353" 
d="M331 676q7 -33 7 -69t-3 -71.5t-7 -70.5t-7 -67q-2 -5 2 -4.5t3 -4.5q-8 -26 -7 -55t-1 -57q0 -7 -2.5 -13t-2.5 -12q0 -37 4 -73.5t9 -72.5q-5 -16 -6.5 -31.5t-8.5 -27.5q-4 -7 -11 -16.5t-13 -13.5q-13 -9 -28 -8t-32 -1q-5 0 -10.5 -3t-10.5 -5q-2 0 -6 1t-7 1
q-21 -2 -41.5 -3t-41.5 3q-8 2 -15 2t-11 1q-3 1 -5.5 4t-6.5 4q-2 1 -5.5 0t-5.5 0q-4 2 -13.5 8.5t-14.5 9.5q-10 9 -16 23.5t-1 28.5q-3 5 -6.5 10t-5.5 10q3 49 6.5 104.5t3.5 108.5q0 2 -1.5 3t-1.5 3q0 14 3 29t3 31q1 11 0 25t0 30q2 47 7 91.5t11 86.5q3 20 10 42
t14 34q19 30 53 39t79 7q14 -1 28.5 -6t26.5 -6q5 0 9 1.5t8 0.5q3 -1 7.5 -3.5t10.5 -4.5q5 -2 11.5 -2t10.5 -2q11 -5 15.5 -17t12.5 -22zM204 676q-5 0 -8.5 -2t-7.5 -1q-7 2 -12.5 5.5t-11.5 2.5q-13 -1 -19 -12t-14 -20q-1 -5 0.5 -7t1.5 -6q-8 -10 -8 -20t-2 -21
q-2 -14 -6 -28.5t-4 -28.5q0 -20 -2.5 -36.5t-3.5 -33.5q-1 -5 1 -10t2 -11q0 -15 -2.5 -30.5t-0.5 -29.5q2 -12 2.5 -23t-4.5 -21q4 -33 4 -68t-1.5 -70.5t-1.5 -71t6 -69.5q8 -10 11.5 -20.5t14.5 -13.5q8 -3 19 -2t21.5 4t19.5 7t13 7q21 18 24 48.5t-0.5 65l-7 69
t5.5 59.5q-4 25 0 50t7 51q9 77 14 151t-9 140q-10 -6 -19.5 -4.5t-21.5 0.5z" />
    <glyph glyph-name="P" unicode="P" horiz-adv-x="302" 
d="M94 301q-3 -40 -7 -92t0 -98q1 -5 2.5 -9.5t2.5 -9.5t-0.5 -9.5t-1.5 -8.5q2 -6 4.5 -12.5t2.5 -12.5q-1 -10 -9 -21t-20 -19.5t-26.5 -12.5t-27.5 0q-7 25 -7 52t-1 53q-2 61 -3.5 120t-3.5 115q-2 4 2 2.5t3 1.5q1 19 2.5 44t4.5 47q2 5 -2 3.5t-3 1.5t3.5 4.5t2.5 5.5
q1 36 3.5 78t1.5 81q0 15 1 33.5t-1 36.5q-1 11 -4.5 17.5t-8.5 13.5q5 13 9.5 24.5t18.5 16.5q6 2 13.5 0t15.5 -2q17 1 35.5 4t32.5 -4q13 -2 26.5 -1.5t26.5 0.5t25 -1.5t22 -7.5q5 -2 15 -12t14 -15q4 -6 6 -14t10 -11q-4 -6 -0.5 -9.5t5.5 -8.5q6 -23 5.5 -47.5
t2.5 -49.5q-5 -32 -5.5 -74.5t2.5 -78.5q-7 -21 -14 -38.5t-24 -31.5q-2 -2 -6 -3.5t-7 -4.5q-7 -6 -17 -14t-23 -10q-7 -2 -14 -2.5t-15 -2.5q-22 -6 -36 -4t-34 -3zM102 691q4 -41 5 -80.5t0 -79.5t-3 -81.5t-5 -86.5q14 -12 39 -9.5t39 14.5q13 12 15 33.5t4 41.5
q3 40 5 78.5t2 67.5q-1 29 -4 59.5t-18 47.5q-9 -1 -19 0t-20.5 1.5t-20.5 -1t-19 -5.5z" />
    <glyph glyph-name="p" unicode="p" horiz-adv-x="290" 
d="M178 692q-16 2 -32 -1t-29 -13q-2 -11 -2.5 -21.5t-0.5 -17.5q-1 -8 1.5 -17t1.5 -18q-1 -8 -2.5 -16.5t-0.5 -14.5t0 -8t0 -7q0 -2 1.5 -6t1.5 -7q0 -12 -4 -28t2 -30q-10 -20 -7 -44t-1 -50q-2 -5 2 -3.5t3 -1.5q-5 -2 -4.5 -9t4.5 -10q16 6 32.5 12t23.5 20
q4 11 5.5 29.5t3.5 38.5q4 45 6.5 89.5t4.5 88.5q-6 10 -7 22.5t-3 22.5zM175 344q-18 -10 -36.5 -15.5t-34.5 -13.5q0 -31 -6 -63.5t-1 -65.5q-5 -40 -5 -83.5v-80.5q-7 -4 -10.5 -2.5t-12.5 -1.5q-8 -4 -13 -12t-12 -10q-15 -4 -24.5 3.5t-16.5 16.5q0 17 1.5 34.5
t1.5 34.5q0 4 2 9.5t-4 5.5q8 32 7.5 65.5t1.5 66.5q1 17 2.5 34t3.5 36q8 103 13 205.5t1 208.5q5 6 11.5 8t14 2t15 -1t15.5 0q9 2 20 5.5t22 5.5h3h1q33 3 60.5 -4t53.5 -27q6 -14 14 -27.5t9 -31.5q0 -2 -1.5 -4.5t-1.5 -4.5q0 -3 1.5 -5.5t1.5 -5.5q1 -10 -1 -22.5
t-2 -23.5q0 -7 1 -13t0 -11q0 -3 -2 -5.5t-2 -5.5q-2 -7 0 -14t1 -14t-3 -13.5t-3 -11.5q-2 -11 1 -21.5t2 -20.5q0 -4 -1.5 -7.5t-1.5 -6.5q-2 -13 -3 -24.5t-4 -23.5q-10 -18 -33 -25.5t-46 -18.5z" />
    <glyph glyph-name="Q" unicode="Q" horiz-adv-x="322" 
d="M268 66q21 -22 44.5 -42t43.5 -31q5 -3 14.5 -7.5t18.5 -10t14.5 -10.5t2.5 -9q-1 -2 -9 -2.5t-18 0t-19.5 1.5t-14.5 3q-27 8 -45.5 15t-30.5 14t-20.5 14t-15.5 14q-6 -3 -10.5 -5.5t-8.5 -4t-9 -2.5t-13 -3q-11 -3 -25.5 -7.5t-24.5 -6.5q-25 -6 -48.5 -2t-42 16.5
t-30 32.5t-11.5 45q0 2 2 5.5t2 5.5t-2.5 4t-2.5 4q-1 4 1 8t2 9q0 9 -1.5 19.5t-1.5 19.5q0 21 2 49t3.5 58.5t2 62t-1.5 60.5q-2 43 -8.5 83.5t-4.5 76.5q-8 26 -7 46t4 40q4 27 17 52t32 39q17 12 34 13t47 5q21 2 45.5 2.5t47 -3t40.5 -13t25 -27.5q3 -9 6 -22t5 -25
q3 -14 4 -29.5t3 -32.5q1 -8 3 -16t3 -16q2 -21 -1.5 -42.5t-4.5 -42.5q-1 -7 1 -13.5t0 -12.5q-1 -4 -2.5 -8t-2.5 -8q-2 -15 1 -31t1 -31q-2 -13 -4 -21.5t-1 -23.5q2 -21 -1.5 -40.5t-4.5 -39.5q-2 -16 -5 -31.5t-4 -30.5q0 -3 1.5 -6.5t0.5 -7.5q-2 -17 -3.5 -45
t-13.5 -55zM156 88q-12 11 -15.5 19t-8.5 21q-2 5 5 17t10 19q14 11 26.5 1t27.5 -24q1 36 4 76.5t6.5 84t6 88.5t2.5 91q0 20 -3 39t-5 39q-1 15 -1.5 36t-4 41.5t-11 37.5t-22.5 23q-12 5 -23.5 3.5t-20.5 -7.5t-16 -15t-10 -18q2 -8 -0.5 -15t-4.5 -15q-4 -19 -0.5 -38.5
t5.5 -40.5q1 -17 0.5 -33.5t-0.5 -31.5q0 -23 3.5 -44.5t-1.5 -41.5q12 -55 7.5 -112t-6.5 -116q4 -14 3.5 -32l-1 -36t1 -35.5t9.5 -31.5q24 -8 38.5 3.5t25.5 25.5z" />
    <glyph glyph-name="R" unicode="R" horiz-adv-x="293" 
d="M271 340q-11 -8 -27.5 -11t-29.5 -11q9 -23 16 -39t12 -41q2 -13 3.5 -27t4.5 -27q3 -12 8 -23t7 -22q2 -14 2.5 -31t1 -33.5t1.5 -31.5t6 -26q-4 -5 -13.5 -8.5t-14.5 0.5q-14 -11 -33 -14.5t-36 7.5q-5 13 -4 29.5t-1 34.5q-5 43 -6.5 89t-10.5 89l-4.5 18t-7 17.5
t-12 10t-18.5 -4.5q-3 -27 -5 -58t-3.5 -62.5t-1.5 -62t2 -57.5q-6 -7 -14 -7.5t-18 -2.5q-7 -2 -12 -6t-11 -7t-12.5 -5t-16.5 1q-13 4 -25 22q11 68 12.5 136.5t3.5 137.5q2 68 -1 132.5t-3 134.5q0 4 0.5 7.5t0.5 8.5q1 14 -0.5 28.5l-3 29t-1.5 28t4 26.5q31 6 65 18
t71 10q9 -1 18 -4.5t18 -5.5q5 -1 9.5 0.5t9.5 -0.5q16 -5 32.5 -18t24.5 -27q10 -17 12.5 -41t0.5 -47q2 -4 2.5 -7t2.5 -6q-3 -29 -2 -59.5t2.5 -62t1 -62t-6.5 -57.5zM94 674q8 -20 7.5 -39t0.5 -41q2 -32 5.5 -66.5t6.5 -65.5q2 -29 0.5 -58.5t0.5 -59.5q17 -2 34.5 2
t29.5 12q5 34 8.5 68t5.5 70q2 21 3.5 43t-0.5 43q-1 23 -1 51.5t-8 51.5q-9 6 -22.5 8.5t-27.5 1t-26 -6.5t-17 -14z" />
    <glyph glyph-name="r" unicode="r" horiz-adv-x="263" 
d="M197 402q11 -17 12.5 -38.5t6.5 -45.5q4 -19 6 -35t4 -41q1 -16 0.5 -31t-0.5 -31q0 -20 2.5 -37.5t0.5 -37.5q-1 -9 0 -18.5t2 -18.5q2 -20 3.5 -35.5t9.5 -31.5q-22 -5 -38 -2q-13 -18 -47 -14q-12 8 -14 32q-2 19 -2 42t-0.5 45.5t-1.5 43.5t-3 38q2 33 0.5 71
t-3.5 76q-1 12 -1 22.5t-7 19.5q-6 -2 -14 -2.5t-16.5 -1.5t-15.5 -4t-10 -10q0 1 0 -3v-9v-10v-7q2 -16 5.5 -34.5t4.5 -32.5t-3.5 -29.5t-2.5 -35.5q1 -16 6 -32t7 -28q1 -6 2 -14.5t1 -14.5q0 -2 -2 -4.5t-1 -4.5q1 -7 2.5 -15.5t2.5 -21.5q0 -11 -0.5 -20t3.5 -19
q-8 -5 -14 -3t-12 0q-8 -2 -13 -9t-12 -9q-6 -2 -11 1.5t-11 -1.5q-13 6 -16.5 17t-3.5 24.5t2 29.5t1 31q-2 28 -2.5 64t-0.5 73.5v74v66.5q0 57 5 114t5 109q0 17 -2.5 40t-2.5 41q0 17 1.5 24t11.5 15q23 9 49.5 12t53 1t51.5 -8t46 -13q2 -5 5.5 -7.5t7.5 -5.5
q2 -1 3 -6.5t3 -1.5q4 -26 7.5 -57t-2.5 -63q-1 -5 -2.5 -8t-2.5 -7q0 -6 1.5 -12t0.5 -12q-2 -32 -11.5 -62t-20.5 -55q-5 -4 -8.5 -7t-4.5 -10zM67 685q2 -38 0 -73t-3.5 -69t-1 -66.5t7.5 -65.5q25 -3 44 10t27 37q11 31 14.5 72.5t3.5 79.5q0 21 -1 41t-5 37
q-20 8 -45 8.5t-41 -11.5z" />
    <glyph glyph-name="S" unicode="S" horiz-adv-x="304" 
d="M267 702q8 -4 15 -6.5t12 -7.5q-5 -16 -5.5 -30t-7.5 -29q-3 -7 -12 -21t-16 -16q-6 -2 -14.5 2.5t-16 11.5t-13.5 14t-8 12t-1 13.5t1 16.5q-15 4 -24.5 -3.5t-15 -21t-7 -31.5t-0.5 -34q1 -14 5 -27t-3 -22q3 -6 7.5 -14.5t10.5 -15.5q21 -6 40 -14t39 -14
q15 -12 20.5 -28.5t6.5 -35t-1.5 -38.5t-5.5 -38q-2 -12 -1 -24t-1 -23q-4 -29 -11 -56t-3 -51q-7 -19 -10 -39.5t-6.5 -40t-10 -36.5t-21.5 -29q-20 -2 -39.5 -11t-39.5 -12q-60 -7 -109 17q-5 9 -12.5 18t-8.5 21q-3 23 -0.5 51t0.5 51q9 7 21 8.5t24.5 -1.5t24 -8
t19.5 -10q-4 -13 -5 -28t0.5 -30t6.5 -28t13 -22q8 -2 12.5 1t13.5 4q13 12 21 31.5t12.5 42t6.5 46t5 44.5q2 15 5 29.5t5 29.5q2 14 1 28.5t1 28.5q0 2 2 5t3 5q2 28 -0.5 53t-3.5 49q-26 8 -52 17t-45 27q-8 7 -15.5 17.5t-10.5 22.5q-6 23 -5 60t5 66q5 36 29 60.5
t59 25.5h19t20 -2q5 -1 11.5 -5t15.5 -6q17 -5 27 -9t21 -11z" />
    <glyph glyph-name="s" unicode="s" horiz-adv-x="307" 
d="M202 667q-8 9 -22.5 10t-21.5 -8q-6 -8 -7.5 -21.5t-0.5 -28.5t3.5 -29.5t4.5 -23.5q2 -10 3.5 -18.5t7.5 -16.5q12 -15 29.5 -24t35 -16.5t31.5 -18t18 -28.5q3 -31 5 -64t1.5 -65.5t-4 -63t-10.5 -55.5q-6 -34 -15 -72.5t-26 -67.5q-19 -10 -42.5 -26t-46.5 -23
q-15 -4 -33 -5t-34.5 1.5t-29.5 8.5t-20 16q-3 5 -5 12.5t-5 15.5q-5 14 -11 27.5t-8 31.5q-2 11 -2 19.5t5 19.5q21 8 39.5 7.5t44.5 -4.5q6 -12 8.5 -28t6.5 -31t11.5 -27t22.5 -17q10 3 15.5 10t9 15.5t6 17t6.5 16.5q1 22 6.5 44t8.5 47q2 14 1 29t1 29q2 35 3.5 73
t-2.5 74q0 4 -2 12t-4.5 16t-5.5 14t-6 8q-14 7 -29 12.5t-29 12.5t-26.5 16.5t-19.5 25.5q-1 2 0 7t-6 4q1 21 -3 45.5t-4 50.5q1 25 10 46t21 37q6 8 9 9.5t14 3.5q14 1 34.5 3t37.5 0q3 0 6 -2t7 -3q5 -1 10.5 0.5t10.5 -0.5q8 -2 15 -7t16 -7q9 -3 18 -2.5t16 -7.5
q3 -4 3.5 -9t4.5 -7q-2 -11 -6 -21t-9 -20q-3 -5 -8 -14t-16 -10q-6 -1 -15 2t-17 9t-12.5 14.5t-2.5 19.5z" />
    <glyph glyph-name="T" unicode="T" horiz-adv-x="406" 
d="M397 741q-3 -10 -5.5 -14.5t-4.5 -6t-5 -2t-7 -3.5q-33 -5 -68.5 -4.5t-73.5 -9.5q3 -46 1.5 -96t3.5 -99q-5 -63 -2.5 -126.5t4.5 -129.5q0 -7 -3 -12.5t-4 -13.5q0 -2 2.5 -4t2.5 -4q1 -5 -2 -13t-3 -14v-31t2 -29q0 -6 -2.5 -8t-4.5 -5q5 -14 6 -27t0.5 -25l-1 -24
t2.5 -25q-9 -3 -18.5 -2.5t-20.5 -1.5q-8 -2 -15.5 -7t-15.5 -6q-8 0 -13 4.5t-13 12.5q5 45 7 87.5t2 83v81.5t1 83q2 78 0.5 161t-2.5 177q-12 12 -28 12.5t-33 -2t-35 -4t-35 6.5q-4 2 -9 2t-7 4q-3 5 -2.5 10.5t0.5 10.5q0 7 7.5 11.5t18.5 7.5t22.5 4.5t19.5 1.5
q17 0 33.5 -3.5t30.5 -3.5q14 1 28 3.5t29 4.5q17 2 34.5 2t36.5 2q17 0 38 -0.5t40.5 -2t35.5 -5t24 -9.5z" />
    <glyph glyph-name="t" unicode="t" horiz-adv-x="383" 
d="M369 743l-10.5 -28t-15.5 -23q-35 5 -59 4t-50 -9q-9 -9 -13.5 -22t-6 -28t-1.5 -31.5v-31.5q-1 -15 2.5 -32.5t5.5 -31.5q-3 -12 -2.5 -24.5t2.5 -25.5q1 -8 3.5 -15.5t4.5 -15.5q2 -14 2.5 -30t2.5 -32q2 -20 1.5 -41t-0.5 -43q0 -10 -1.5 -20t-1.5 -19q0 -3 1.5 -6.5
t1.5 -6.5q-1 -23 -2 -47.5t6 -47.5q-5 -13 -2 -27t-3 -28q0 -4 3 -5t3 -5q-2 -14 -2 -20t-4 -19q-9 -6 -21.5 -13t-25 -11.5t-25.5 -5.5t-23 4q-5 3 -6.5 10t-6.5 13q3 25 0 48t-3 45q1 64 6.5 130t9.5 127q1 5 0 9.5t-1 9.5q1 14 4 27t4 27q0 5 -2 10.5t-1 10.5
q4 48 -0.5 102.5t-1.5 110.5q-16 -4 -37 -7t-41.5 -2.5t-38.5 6t-28 17.5q2 7 6 12t7 10q17 7 36.5 9.5t40 2.5t40.5 -0.5t39 1.5q11 1 19.5 1.5t19.5 -0.5q13 -1 24.5 2.5t24.5 5.5q26 3 55.5 4.5t60.5 -5.5z" />
    <glyph glyph-name="U" unicode="U" horiz-adv-x="369" 
d="M231 726q6 13 20 16.5t30.5 2t33 -5.5t28.5 -6q2 -8 1.5 -18.5t-3.5 -15.5q4 -12 2.5 -24t-0.5 -26q1 -24 4.5 -49.5t3.5 -53.5q0 -18 -3.5 -36.5t-4.5 -36.5t-3 -35.5t0 -35.5q2 -53 1 -108.5t-11 -108.5q-1 -10 -7 -18q0 -15 -4 -30t-10.5 -29.5t-13 -28t-10.5 -26.5
q-8 -4 -13.5 -11t-12.5 -13q-23 -8 -46 -19t-50 -12q-5 -1 -11.5 0.5t-14.5 2.5q-13 1 -27.5 1.5t-28 3t-25.5 7.5t-19 14q-8 4 -12 5q-6 11 -11.5 24t-11.5 24q-2 36 -0.5 68.5t5.5 64t8.5 62.5t8.5 63q-2 26 1 53t5 56q2 16 0.5 32t-0.5 34q2 32 3 65.5t-6 64.5
q4 10 2.5 23t-3 25t0 22.5t10.5 16.5q20 2 39.5 2.5t37.5 -10.5q1 -5 -2.5 -5t-4.5 -2q0 -40 1 -79l2 -78t0 -79.5t-4 -84.5q1 -6 0.5 -6.5t2.5 -4.5q0 -2 1.5 -4.5t1.5 -4.5q-4 -38 0 -82.5t2 -88.5q-1 -11 -4.5 -23t-3.5 -23q-1 -14 2 -27t-2 -30q4 -6 5.5 -12.5t2 -13
t2 -12.5t6.5 -12q8 -9 20 -10.5t25 2.5t24 12t17 16q5 15 11 31.5t11 33.5t7.5 33.5t0.5 31.5q8 28 8.5 61t0.5 68q1 26 1 58.5t-2 62.5q3 19 3.5 43.5t-1 51.5t-4 55t-5.5 53q0 4 1 7t1 7q-1 12 -4 21.5t2 18.5q-3 4 -3.5 10t-4.5 9z" />
    <glyph glyph-name="u" unicode="u" horiz-adv-x="355" 
d="M110 731q1 -12 -1 -24t-4 -22.5t-2.5 -21t2.5 -19.5q-4 -18 -2.5 -40.5t0.5 -43.5q0 -20 1.5 -41.5t6.5 -41.5q-4 -35 -3 -80q1 -20 -1.5 -43.5t-3.5 -48.5q0 -26 0.5 -51.5t-1.5 -51.5q-3 -35 -7.5 -67.5t0.5 -58.5q3 -13 8 -23t15 -16q29 2 56.5 5t52.5 11q14 26 15 58
t4 65q1 4 3 8t2 9q1 5 -1 10.5t-2 10.5q-2 24 -1 50.5t-1 50.5q-6 70 -11 140t-15 128q2 32 -0.5 66t-4.5 67q8 9 19 9.5t21 -1.5q-2 0 2.5 -0.5t8.5 -2.5q23 -7 47 -8q2 -6 -1.5 -17t4.5 -16q-7 -8 -4 -16.5t4 -17.5q1 -3 -1 -7t-2 -8q-1 -9 0.5 -18t1.5 -17q-1 -23 -2 -45
t0 -45q1 -16 4.5 -32t5.5 -33q2 -18 0.5 -37.5t0.5 -40.5q1 -6 3.5 -12t3.5 -12q2 -11 0.5 -21t-0.5 -21q3 -32 4 -64.5t-2 -63.5t-11 -61t-24 -58q-8 -2 -10 -7.5t-7 -9.5q-20 -15 -56.5 -19.5t-72.5 -9.5q-9 -1 -18.5 -3.5t-18.5 -1.5q-29 2 -53.5 11t-41.5 27
q-14 16 -17.5 37.5t-1.5 53.5q3 43 8.5 91.5t9.5 96.5q6 72 12 134.5t7 130.5q0 17 -0.5 37t-1 39.5t-2 37t-2.5 31.5q12 15 34.5 13t43.5 -8z" />
    <glyph glyph-name="V" unicode="V" horiz-adv-x="342" 
d="M327 729q-1 -11 -8 -21q2 -13 -1 -26t-4 -26q-1 -14 -3.5 -28t-2.5 -27q0 -4 1.5 -7.5t1.5 -7.5q-1 -11 -4.5 -22t-5.5 -22q-4 -33 -2 -67t-1 -68q-1 -11 -2 -21t0 -23q1 -11 -2.5 -21.5t-5.5 -21.5q-1 -9 -0.5 -17.5t-0.5 -17.5q-2 -12 -3.5 -27.5t-3.5 -31t-4 -30.5
t-4 -26q-2 -6 -4.5 -12t-3.5 -12q-1 -4 1 -7t2 -6q0 -5 -3 -10.5t-3 -10.5q-2 -17 -0.5 -34t-4.5 -33l3 -10.5t2 -9.5q-6 -5 -18 -11t-25 -9.5t-25.5 -2.5t-21.5 12q-8 78 -27 170.5t-39 180.5q-3 12 -4.5 22.5t-4.5 21.5q-14 60 -34.5 123.5t-38.5 116.5q-2 5 -4 13.5
t-7 19.5q-5 10 -9 21t-2 16q2 10 11 14.5t21 4.5t24 -3t20 -7q16 -28 25.5 -60t16.5 -67q8 -37 19.5 -74.5t19.5 -75.5q3 -14 4.5 -25t8.5 -22q2 -35 13.5 -63.5t17.5 -56.5q-3 -7 -1 -15.5t4 -13.5q9 115 17.5 234.5t16.5 239.5q7 10 19.5 14t25.5 3.5t25 -5.5t18 -12z" />
    <glyph glyph-name="v" unicode="v" 
d="M336 745q-1 -7 -5.5 -12t-9.5 -11q-5 -27 -11.5 -54.5t-6.5 -58.5q0 -33 -7 -68.5t-11 -73.5q-1 -14 0 -27.5t-1 -27.5q-1 -8 -3.5 -14.5t-4.5 -14.5q-5 -23 -7 -43.5t-13 -38.5q1 -20 -7 -35.5t-9 -37.5q-7 -14 -10 -28t-5.5 -27.5l-5 -27t-8.5 -26.5q2 -14 -4 -30
t-13 -28q3 -8 2 -15t-3 -13.5t-4 -13.5t-1 -15q-13 -1 -26.5 -2.5t-25.5 -1.5t-22.5 3.5t-18.5 13.5q-4 54 -16.5 112t-19.5 107q-1 6 0.5 12.5t-0.5 12.5q-6 42 -15 87t-14 87q-2 9 -0.5 18.5t0.5 18.5q-2 17 -6 36t-7 39q-4 26 -6.5 51t-4.5 50q0 5 -2.5 15t-4.5 21.5
t-2.5 21.5t2.5 16q6 10 19 10.5t28 -2.5t28.5 -8t19.5 -6q7 -8 9.5 -18t3 -20.5t0 -22.5t1.5 -25q2 -20 6.5 -40.5t6.5 -41.5q4 -28 3.5 -56.5t3.5 -55.5q7 -53 15 -107t7 -99q6 4 8.5 11t4 14.5t3.5 15.5t7 13q4 13 6 28t10 24q0 12 3.5 27.5t9.5 25.5q7 47 11.5 102
t10.5 113q3 38 6 78.5t5 78.5q11 9 24.5 9.5t27.5 -3.5t27 -10.5t22 -11.5z" />
    <glyph glyph-name="sterling" unicode="&#xa3;" horiz-adv-x="342" 
d="M181 604q-1 3 -1 6t-2 5q0 20 1.5 42t3.5 37q-8 4 -19.5 0.5t-22.5 -5.5q-5 -2 -5 -7.5t-5 -6.5q3 -19 2.5 -38t-0.5 -37.5t1.5 -35t8.5 -29.5q-3 -27 -2.5 -55t-4.5 -54q1 -2 2.5 -3t2.5 -3q27 0 47 6t49 7q7 -3 9.5 -10t1.5 -15t-4.5 -15.5t-9.5 -10.5q-24 -1 -45 -5
t-40 -13q-1 -7 0.5 -12t4 -9.5t4.5 -9t2 -11.5q10 -8 9.5 -22.5t0.5 -31.5q1 -12 1.5 -25.5t-1.5 -22.5q-1 -4 -3 -7t-3 -6q-1 -2 -0.5 -4t0.5 -4q-4 -18 -15 -34.5t-13 -32.5q-16 -10 -23.5 -28t-18.5 -32q17 -6 37 -5t38 5q19 4 38 8.5t36 10.5q9 -4 20 -3.5t19 -1.5
q2 0 3.5 -0.5t2.5 -0.5h2q10 -2 19 -3.5t17 -4.5q-5 -8 -13.5 -9.5t-13.5 -8.5q-3 -14 -12 -23q-33 -2 -62.5 -10t-59.5 -13q-11 -2 -22 -0.5t-22 -0.5q-21 -4 -42.5 -7.5t-41.5 -3t-36.5 7.5t-28.5 25q17 29 33.5 57t34.5 56q3 13 8.5 27.5t10.5 30.5t8.5 33.5t1.5 38.5
q-1 14 -7.5 30.5t-8.5 30.5q-2 13 -3 18t-13 8q-20 -12 -44 -10t-39 17q2 13 10.5 20t20 10t25 3.5t27.5 2.5q2 0 3 2t3 2q8 53 8.5 120t-1.5 132q0 12 2 23.5t3 22.5q10 11 24.5 20.5t32.5 15.5t37.5 8.5t38.5 -0.5q4 -1 8 -3.5t10 -4.5q9 -3 16.5 -4t12.5 -6
q11 -9 13.5 -23.5t12.5 -25.5q-3 -15 -3.5 -30.5t-1 -30.5t-2 -30t-7.5 -29q-12 -8 -25.5 -8.5t-23.5 5t-15.5 16.5t-1.5 25z" />
    <glyph glyph-name="W" unicode="W" horiz-adv-x="502" 
d="M492 756q-11 -21 -15 -46t-9 -52q-5 -28 -10 -58t-7 -62q-1 -5 -1.5 -10.5t-2.5 -10.5q-2 -9 -4 -22.5t1 -26.5q-5 -7 -4.5 -15t-1.5 -17q-2 -11 -6.5 -20t-6.5 -19q-2 -4 -0.5 -8t0.5 -8t-3.5 -7t-3.5 -6q-1 -5 -0.5 -10t-1.5 -10q-2 -8 -5 -18t-4 -19q-1 -11 -1 -19
t-1 -20q-1 -17 -6 -34t-7 -35q-2 -32 -0.5 -62t2.5 -61q-4 -6 -12 -8.5t-16 -6.5q-13 -6 -31 -11.5t-32 6.5q-5 5 -5.5 10t-2.5 11l-16 42t-22 38q-5 -15 -11.5 -29.5t-13 -29.5t-10.5 -31.5t-4 -36.5q-4 -9 -14.5 -16t-23 -10.5t-26 -2t-22.5 9.5q-5 32 -12.5 61.5
t-13.5 63.5q-8 46 -17.5 96.5t-16.5 101.5q-3 24 -5 46.5t-6 44.5q-2 8 -3.5 14.5t-6.5 13.5q-8 45 -17 98t-24 99q-2 7 -6.5 16.5t-7.5 19t-1.5 18t10.5 14.5q10 6 20 5t18 -6t15 -13t11 -15q10 -18 17.5 -39.5t13 -45t9.5 -47t7 -44.5q4 -31 9.5 -57.5t3.5 -56.5
q6 -11 8 -23.5t3 -26.5t2.5 -28t4.5 -26q2 -9 3.5 -17t2.5 -20q4 -32 13.5 -61.5t12.5 -58.5q11 11 13.5 25t6.5 28q3 15 9 30t9 30q3 22 -6.5 47t-15.5 51q-7 31 -15 57.5t-6 52.5q16 8 27.5 3t20.5 -15.5t16 -24t13 -23.5q11 -1 14 10.5t8 18.5q6 7 14 13t15.5 8
t12.5 -0.5t7 -13.5q2 -10 4 -18t-2 -15q-9 -16 -14 -37t-5.5 -44t4.5 -46.5t15 -42.5q4 16 7.5 24t7 15t6.5 16.5t6 29t6.5 51.5t8.5 85t7.5 108.5t10.5 109.5q2 17 6 40t5 47q9 9 23 12.5t28.5 2t27 -7t18.5 -13.5z" />
    <glyph glyph-name="w" unicode="w" horiz-adv-x="474" 
d="M460 721q-4 -14 -7.5 -30.5t-5.5 -35.5q-3 -17 -3 -35t-2 -36q-2 -22 -3.5 -43.5t-3.5 -44.5q-2 -17 -8.5 -38t-8.5 -46q1 -33 -3.5 -60.5t-15.5 -55.5q-11 -16 -19 -35.5t-15 -40t-13 -41t-12 -39.5q2 -10 -1 -20t-6 -21q-1 -5 -4 -9t-5 -9q-3 -8 -3.5 -18.5t-1.5 -20.5
t-2 -17t-5 -9q-5 -2 -10 -1t-12 0q-14 -2 -26.5 -4t-25.5 9q-8 17 -12.5 35t-8 37t-8 37.5t-11.5 36.5q-6 -17 -6 -39t-5 -45q-4 -15 -9.5 -34.5t-5.5 -39.5q-14 -2 -29.5 -4.5t-29.5 -2.5t-25.5 5t-18.5 17q5 26 -1 51.5t-4 48.5q-12 48 -21 105t-15.5 116.5t-10.5 118.5
t-6 113q-1 27 -2.5 47.5t-5.5 48.5q-1 6 -2 13.5l-2 15t0 14.5t5 11q5 6 13 6.5t17 -1t17 -5.5t13 -7q10 -26 15.5 -58.5t8.5 -67t6 -70t9 -66.5q-2 -2 -2 -5.5t-1 -6.5q6 -24 9 -54t5.5 -61.5t6.5 -63t12 -59.5q17 23 25.5 54.5t18.5 65.5q5 17 10 27.5t22 12.5
q25 3 40 -1.5t17 -30.5q2 -22 5 -40t5.5 -35.5t2.5 -35.5t-3 -39q10 9 14.5 29.5t8.5 34.5q10 37 21.5 62t13.5 54q5 33 9.5 52t7.5 46q2 17 1 34t-1.5 34.5t1 35.5t7.5 36q-3 20 0 48t2 55q-1 15 -2 30.5t7 29.5q13 5 30 2t32 -10.5t24.5 -17.5t7.5 -19z" />
    <glyph glyph-name="X" unicode="X" horiz-adv-x="333" 
d="M56 735q17 -23 29 -51t22.5 -58t21 -61t24.5 -58q8 4 9 14t8 15q-2 5 0.5 7.5t-0.5 4.5q7 17 16.5 37t19 41t19.5 41t18 38q5 10 6.5 18.5t9.5 12.5q5 3 14 3t17.5 -2.5t15.5 -7.5t8 -11q2 -8 -3.5 -14.5t-9.5 -12.5q-4 -9 -5 -21.5t-6 -20.5q-2 -3 -5 -5t-3 -4
q-2 -6 -1.5 -13t-1.5 -16q-7 -8 -10 -17.5t-8 -19.5q-8 -17 -14.5 -32t-14.5 -35t-17 -42t-16 -42q-2 -6 -4 -14t-2 -14q-1 -4 -1 -10t1 -9q2 -21 10.5 -46.5l16.5 -49.5l16 -46t17 -44q5 -13 13 -28t13 -29q9 -24 14.5 -48.5t16.5 -47.5q2 -6 6 -11t3 -13q-17 -1 -33 -7
t-41 -4q-14 4 -17.5 16.5t-8.5 25.5q-5 11 -11 22t-9 23q-1 5 -0.5 9t-1.5 8q-1 3 -3.5 6t-4.5 7q-9 22 -13.5 48t-15.5 46q-9 -3 -14.5 -10.5t-9.5 -16.5t-7 -19t-6 -19q-6 -17 -12 -41.5t-10 -46.5q-5 -8 -7.5 -18t-4 -20.5t-3 -20t-4.5 -16.5q-8 -7 -20.5 -5t-23.5 1
q-25 -4 -33 13t-5.5 46t13.5 65t23.5 71t24 64.5t16.5 45.5q3 11 5.5 23.5t7.5 25.5q5 12 9.5 25t3.5 24q0 10 -5 23t-10 27q-3 12 -6.5 24.5t-7.5 22.5q-11 29 -19.5 61.5t-16.5 67.5q-4 17 -9.5 36t-9 37t-3 32.5t8.5 22.5q5 3 16.5 2t14.5 -5z" />
    <glyph glyph-name="x" unicode="x" horiz-adv-x="322" 
d="M299 713q-13 -68 -35 -134t-52 -125q-2 -20 -11 -36.5t-9 -37.5q0 -13 6.5 -30.5t11.5 -33.5q10 -33 21.5 -63t22.5 -64q5 -17 9.5 -33t9.5 -30q2 -4 5 -7.5t5 -8.5q4 -9 6 -21t7 -20t7.5 -12.5t10.5 -18.5q-5 -6 -13.5 -9.5t-18 -4t-19 2.5t-16.5 10q-4 4 -4.5 10
t-3.5 12q-2 6 -5.5 11t-5.5 9q-8 22 -15 44.5t-14 44.5q-8 22 -15 42.5t-13 40.5q-12 -3 -19 -14t-11.5 -25t-8.5 -29t-10 -26q-6 -35 -16.5 -78.5t-17.5 -77.5q-11 0 -23 -2.5t-24 -4t-23 0t-19 9.5q8 29 17.5 57t17.5 57q7 23 16 51t20 56q14 35 23 67t23 75q2 7 5.5 13
t3.5 11q1 13 -6.5 31.5t-14.5 33.5q-12 29 -22.5 52t-22.5 50q-8 18 -17.5 37.5t-17.5 39.5t-13.5 41t-6.5 42q13 14 35 12.5t36 -12.5q5 -33 13 -58.5t20 -52.5q5 -34 20.5 -65t26.5 -63q8 8 11 19.5t5 25.5q20 44 35 97.5t28 104.5q17 8 36.5 5.5t28.5 -18.5z" />
    <glyph glyph-name="Y" unicode="Y" horiz-adv-x="344" 
d="M328 719q-1 -9 -3.5 -16t-3.5 -17q-9 -12 -15.5 -28.5t-13.5 -34t-15.5 -33.5t-21.5 -26q-2 -17 -7 -26.5t-14 -20.5q3 -8 -2 -13.5t-7 -12.5q-3 -14 -2 -28.5t-4 -28.5t-5 -32t-2 -38q-2 -40 -0.5 -73t0.5 -66q0 -6 -2 -11t-2 -11q-2 -10 0 -20.5t1 -19.5
q-1 -6 -3.5 -11.5t-2.5 -11.5q-1 -4 1 -7t2 -8t-1.5 -10.5t-1.5 -10.5q-1 -20 1.5 -41t4.5 -42q-3 -6 -10.5 -7.5t-10.5 -8.5q-13 4 -24.5 1.5t-22 -6t-19.5 -4t-17 8.5q-3 4 -4 14t-1 19q1 17 3 38.5t4.5 43.5t3.5 42.5t-1 34.5q5 7 4 14t-1 15q1 5 2.5 8t2.5 8
q2 14 0.5 27.5t-0.5 24.5q1 18 3 40.5t4 46.5t3 47t0 42q-30 68 -62 128t-70 117q5 11 15.5 14t23 2.5t24.5 -3t20 -3.5q23 -42 49 -91t46 -91q12 15 22 38t18 47.5t15 49t13 44.5q8 9 19 10.5t22.5 -1t23 -6.5t21.5 -6z" />
    <glyph glyph-name="y" unicode="y" horiz-adv-x="338" 
d="M323 725q4 -16 0 -35.5t-9 -34.5q-1 -5 -3.5 -16t-5.5 -16q-3 -6 -9.5 -16t-8.5 -19q-2 -5 -1 -9t-1 -8q-3 -10 -7.5 -17.5t-9 -15.5t-8 -16.5t-4.5 -19.5q-8 -6 -11 -16t-10 -18q-1 -11 -6 -20t-10 -19q-3 -6 -5 -13t-5 -13q-1 -2 -4 -4.5t-4 -5.5q-2 -7 -1 -15t-1 -15
q-1 -4 -3 -6.5t-3 -5.5q-2 -6 -1.5 -13t-0.5 -14q-1 -9 -3.5 -17t-3.5 -16q-3 -35 -8.5 -70t-8.5 -71q-2 -15 -0.5 -30t0.5 -31q-1 -5 -3 -8.5t-2 -8.5q0 -8 1.5 -16.5t3 -17.5t1 -18.5t-5.5 -17.5q-14 2 -26.5 -0.5t-25 -4.5t-24 -0.5t-22.5 10.5q3 35 2 69.5t5 69.5
t10.5 80.5t11.5 87.5q4 18 7.5 36.5t7.5 39.5q2 12 2 25t8 24q-13 21 -21.5 51t-19.5 55q-17 38 -34 73.5t-37 73.5q-4 5 -8.5 8t-4.5 9q0 10 7.5 13.5t19 4.5t23.5 1.5t20 4.5q5 -5 14.5 -5.5t17.5 -2.5q-2 -11 4.5 -23.5t6.5 -23.5q21 -30 35.5 -67.5t31.5 -70.5
q24 42 40 92t33 99q7 6 16.5 7.5t20 0t21 -5.5t19.5 -8z" />
    <glyph glyph-name="Z" unicode="Z" horiz-adv-x="327" 
d="M311 739q-2 -30 -14.5 -49.5t-26.5 -37.5q-10 -32 -26 -56t-29 -53q-6 -21 -18 -40t-20 -41q-7 -23 -11.5 -46t-14.5 -45q1 -18 -4 -33.5t-9 -32.5q-10 -43 -13 -86.5t-9 -90.5q-2 -7 -5.5 -13t-4.5 -13q-2 -9 1.5 -18.5t-1.5 -18.5q24 -10 48.5 -8t48.5 7t46.5 9
t43.5 -3q-2 -8 -10 -10.5t-15 -7.5q-11 -8 -20 -18t-20 -15q-57 -5 -105.5 -10.5t-104.5 -6.5q-5 3 -9.5 5.5t-8.5 7.5q10 21 11.5 45t5.5 49q2 15 5.5 30t5.5 30q5 30 6.5 60.5t8.5 59.5q1 7 3.5 13t4.5 13q2 8 1.5 15.5t1.5 15.5q2 6 5 12t5 13q5 20 9 38t12 36
q7 17 15.5 33.5t16.5 33.5q16 35 31.5 67.5t37.5 60.5q-2 4 2 10t8.5 12.5t7.5 12.5t1 9t-17.5 1.5t-27.5 -2.5q-20 -1 -42 -3.5t-41 -3.5t-31 1t-12 11q-3 15 0 22t9.5 10t16 3h18.5q11 1 23.5 0.5t25.5 -0.5q14 1 29.5 3.5t30.5 4.5q25 3 47 5.5t36 4.5q8 -5 19 -1t22 -1z
" />
    <glyph glyph-name="z" unicode="z" horiz-adv-x="304" 
d="M290 723q3 -14 -2 -26t-9 -25q-2 -6 -2.5 -12.5t-2.5 -13.5q-6 -16 -14 -30.5t-14 -30.5q-3 -9 -5.5 -17.5t-5.5 -17.5q-3 -8 -7 -15t-6 -15t-2.5 -15t-2.5 -15q-2 -4 -4 -7t-4 -7q-8 -22 -12.5 -44t-10.5 -44q-5 -19 -12.5 -35.5t-11.5 -34.5q-5 -22 -7.5 -44t-7.5 -45
q-1 -5 -3 -7.5t-3 -7.5q-3 -11 -2.5 -23t-1.5 -24q-1 -5 -3 -10t-3 -10q-4 -26 -2 -47t-3 -44q18 -5 36.5 -1.5t38.5 5.5q7 0 16.5 1t19 0t16.5 -4.5t9 -11.5q2 -12 -3.5 -17.5t-14 -7.5t-18.5 -2t-16 -1q-4 0 -8.5 1t-8.5 1q-17 0 -32.5 -4.5t-32.5 -6.5q-7 -2 -13.5 -0.5
t-12.5 0.5q-12 -2 -25 -5t-26.5 -4.5t-27 0.5t-26.5 10q5 27 15.5 50.5t15.5 50.5q5 25 10 47.5t13 45.5q11 32 20.5 69t20.5 70q11 38 20 79.5t27 76.5q12 53 32 99.5t33 95.5q-7 -1 -18.5 0.5t-25.5 -0.5q-24 -2 -51.5 -8.5t-47.5 -4.5h-9.5t-10.5 2t-8 7.5t-3 16.5
q0 9 6 13.5t14.5 6t16.5 1.5t13 1q33 3 75.5 7.5t79.5 5.5q14 -3 30 -4t25 -14z" />
    <glyph glyph-name="Ccedilla" unicode="&#xc7;" horiz-adv-x="297" 
d="M244 714q0 -9 1 -20t0 -21.5t-4.5 -19.5t-11.5 -15q-3 -3 -10 -7.5t-24 -0.5q-33 11 -24 47q-9 7 -21.5 6.5t-25 -6.5t-22 -15t-11.5 -18q-5 -20 0 -41.5t7 -44.5q0 -6 -2 -12t0 -12q1 -5 3.5 -10t2.5 -10q2 -8 -1 -18.5t-2 -16.5q2 -14 4.5 -27t5.5 -25q3 -17 4 -37.5
t1 -43.5t0.5 -47t2.5 -46q-5 -36 -2.5 -80.5t3.5 -82.5q0 -26 19 -42q11 -8 19 -3t16 11q5 12 9 26t6 34q1 13 0.5 23t1.5 24q1 3 6 5.5t11.5 3.5t14 2t13.5 1q19 1 27.5 -1t19.5 -7q7 -18 5.5 -30.5t-6.5 -31.5q-11 -17 -18.5 -37.5t-22.5 -35.5q-5 -6 -13.5 -9.5
t-15.5 -8.5q-10 -8 -19.5 -14t-23.5 -1q-12 -9 -14.5 -20.5t-3 -23.5t-3 -24t-15.5 -21q-17 -1 -31 -1t-24 12q2 18 4 36.5t3 40.5q-4 8 -11 7t-13 1q-16 6 -27 18.5t-22 21.5q-7 35 -9.5 63.5t1.5 61.5q-2 57 0.5 112t6 107.5t6 102.5t0.5 98q0 7 5 8q-6 20 -4 46t10 43
q9 7 18 16t19 16.5t21.5 12.5t24.5 4l4 2t4 3q24 3 49 0t45 -8q9 -5 17 -10z" />
    <glyph glyph-name="ccedilla" unicode="&#xe7;" horiz-adv-x="314" 
d="M228 574q-23 2 -35 12.5t-21 25.5q5 13 1 23t-2 19q-3 4 -9.5 6t-14.5 2.5t-16 -0.5t-14 -3q-9 -7 -20 -18.5t-16 -22.5q0 -10 -0.5 -20.5l-1 -21t0.5 -20t5 -16.5q-3 -21 2.5 -43.5t12 -45t10.5 -45.5t-1 -46q-1 -5 -1.5 -14t-0.5 -15q1 -15 1 -30t1 -27q2 -54 8.5 -108
t6.5 -102q2 -4 3 -4.5t4 -3.5q16 1 31 1.5t24 18.5q11 24 13 49t3 46q9 9 21.5 10.5t26 -2t26 -9.5t20.5 -10q-1 -31 -7 -54t-13 -55q-16 -14 -35.5 -28t-45.5 -14q-10 -8 -13.5 -21t-15.5 -18q-2 -8 -4.5 -16t-8.5 -12q5 -20 -9.5 -36.5t-31.5 -18.5q-13 -2 -21 7.5
t-16 18.5q7 23 15.5 44t16.5 44q-9 0 -12.5 -0.5t-13.5 1.5q-29 5 -45.5 27t-25.5 48q-6 62 -6.5 122.5t1.5 119.5t4 116t1 113q0 18 -0.5 38t1 39.5t5.5 37.5t13 33q18 15 46 23t58 10t59.5 -1t51.5 -12q2 -4 6 -14t6 -13q-4 -15 -4.5 -31t-2 -31.5t-5.5 -29t-16 -23.5z
" />
    <glyph glyph-name="at" unicode="@" horiz-adv-x="305" 
d="M105 328q-3 -3 -5 -11q-2 -7 -3 -20.5t0 -35.5t-1 -46.5t-2.5 -45.5t2.5 -36.5t12 -20.5t21 -4.5t24.5 4.5t25 9.5t22.5 11.5q10 24 13.5 46.5t4.5 44.5t-0.5 44.5t-1.5 46.5q-1 11 0.5 21.5t-4.5 19.5q1 7 1.5 6.5l0.5 -0.5l-1 4t-3 20q1 5 1 13.5t-1 18.5t-3.5 19.5
t-6.5 16.5q4 20 -2 38.5t-13 34.5q-12 7 -25 7t-26 -3.5t-26.5 -9t-26.5 -8.5q-2 -7 -2 -16.5v-19.5t-1.5 -19.5t-7.5 -16.5q-16 -17 -28 -13t-19.5 18.5t-9.5 36t3 39.5q5 17 8 29.5t9 26.5q5 11 19 13t29 6q14 4 30 10.5t34 9.5q14 2 28 2t27 -4q1 0 7 -1t13 -2.5t14 -4
t10 -5.5q9 -11 11.5 -25.5t6.5 -28.5q0 -14 3.5 -32t8.5 -37.5t9 -38.5t5 -34q-3 -8 -3 -0.5t1 18t1 17t-2 -3.5q-1 -23 1 -51.5t-1 -61.5q-2 -33 0.5 -66t-4.5 -61q4 -36 -6 -60.5t-31 -47.5q-12 -8 -27.5 -14t-29.5 -17q-2 -2 -12.5 -3.5t-23.5 -3t-25 -3t-17 -1.5
q-22 -4 -39.5 8.5t-29.5 28.5q-3 26 -5 47.5t-3.5 42t-2 43t0.5 51.5q1 35 5.5 68t24.5 57q20 9 41.5 17t40 10.5t31.5 -4.5t16 -28q1 -4 1.5 -14.5t1.5 -22.5t1.5 -23t0.5 -17q1 -12 1.5 -23.5t0.5 -22.5q0 -17 -4 -44t-14 -47q-4 -5 -12 -7.5t-17 -2.5t-17.5 2t-13.5 5
q-7 5 -9 12.5t-2 13.5q0 7 2 15q3 5 9 8t11 8q1 13 2 29t1 31t-2 28t-7 21q-4 3 -9 -0.5t-10 -8.5z" />
    <glyph glyph-name="ampersand" unicode="&#x26;" 
d="M195 539q5 14 6 35.5t3 43.5q1 2 0.5 3.5t-0.5 3.5q2 5 2 13t-2 16.5t-6 14.5t-11 8q-26 4 -35 -12.5t-13 -37.5q-2 -5 -1 -10t0 -10q-7 -23 -11.5 -50t-6 -55.5t-0.5 -57t6 -53.5q9 -11 25 -13.5t29 -9.5q18 -9 44.5 -4t49.5 7q12 1 26.5 5.5t25.5 -0.5q8 -3 11.5 -11
t5 -17.5t0.5 -20t-2 -19.5q-14 -4 -27.5 -8.5t-24.5 -12.5q0 -20 -0.5 -55.5t-4 -73t-10 -71t-16.5 -49.5q-16 -13 -32.5 -19.5t-35.5 -12.5q-5 -2 -10 -5t-10 -5q-14 -5 -30 -4.5t-28 2.5q-9 1 -22 6.5t-25.5 13t-23.5 16t-15 16.5q-9 16 -9.5 37t-2.5 41q-2 32 -5.5 66
t-3.5 63q-1 34 11.5 58t30.5 44q-5 35 -4.5 75t4.5 83q2 19 7 37t7 36q2 16 2 32.5t2 32.5t7 30t17 25q8 7 16 10t17 10q31 2 57.5 1.5t49.5 -11.5q2 -2 5 -5.5t8 -6.5q4 -2 8 -2t6 -2q8 -6 14.5 -20.5t8.5 -23.5q4 -18 2 -38.5t-5 -36.5q-2 -7 -4.5 -13.5t-3.5 -12.5
q-2 -11 -2 -20t-5 -14q-6 -6 -16 -6t-20 3.5t-18.5 9t-11.5 11.5zM149 308q-11 2 -26 -1t-23 -15q-9 -14 -5.5 -34.5t2.5 -40.5q-1 -18 -1 -37t1.5 -37t4.5 -33.5t8 -24.5q5 -7 16 -18t17 -11t11.5 2.5t10.5 6.5t10.5 6.5t12.5 2.5q7 16 6.5 32.5t0.5 33.5q2 35 9.5 67
t11.5 64q4 6 3 12.5t-6 11.5q-10 -3 -18.5 -2t-16.5 4t-15.5 6.5t-13.5 4.5z" />
    <glyph glyph-name="Euro" unicode="&#x20ac;" horiz-adv-x="321" 
d="M193 682q-11 1 -19 -8t-12 -19q-8 -23 -10 -51.5t-6 -56.5q-4 -29 -2.5 -66.5t0.5 -82.5q18 -6 40.5 -5.5t45 2.5t45 3t40.5 -5q-2 -7 -9 -8t-14 -3q-11 -6 -21 -15t-24 -11q-25 -3 -51 0t-48 -7q2 -28 1.5 -54t1.5 -58q1 -27 3 -55t3 -57q1 -8 1 -15t1 -14q1 -9 2 -16
t3 -17q5 -7 12 -14.5t17 -8.5t16 6t9.5 17.5t5.5 22.5t3 23q6 10 17.5 14.5t24.5 4.5t25.5 -4t20.5 -11q-8 -19 -14 -40t-17 -38q-20 -9 -41.5 -21t-47.5 -16q-39 -6 -70 8t-51 41q-7 18 -8 38.5t-3 40.5q-2 31 1 62.5t4 61.5q1 23 0 46.5t2 46.5q-4 6 -15 7t-22.5 1.5
t-21 3.5t-10.5 12q-2 11 -2 18.5t6 11.5t21.5 5t44.5 -2q1 45 4.5 87.5t5.5 87.5q2 41 6.5 69.5t25.5 50.5q11 11 26 21t35 12q12 1 26.5 0t27 -5.5t20 -13.5t4.5 -25q-2 -11 -11.5 -17.5t-20 -8t-19 4t-8.5 19.5z" />
    <glyph glyph-name="dollar" unicode="$" horiz-adv-x="262" 
d="M180 788q1 -12 3 -24.5t7 -22.5q12 -2 22 -6t20 -9q9 -19 7.5 -41.5t-18.5 -34.5q-15 -5 -26.5 0t-17.5 13q1 10 -1.5 14.5t-0.5 12.5q-14 1 -21 -9q-5 -21 -8 -48t2 -50q2 -13 9 -23t5 -21q6 -8 11 -15.5t10 -13.5q13 -13 26 -23t18 -26q2 -7 1 -13.5t1 -15.5
q2 -11 6 -20.5t2 -28.5q-1 -8 -1 -15.5t-1 -15.5q0 -5 -2.5 -10t-3.5 -11q-3 -20 1 -41.5t2 -46.5q-7 -22 -5.5 -45.5t1.5 -45.5t-5 -40t-25 -29q-11 -7 -28 -9.5t-29 -10.5q-7 -5 -10 -12.5t-3.5 -16t-0.5 -18t-1 -16.5q-7 -3 -12.5 -8t-11.5 -9t-13.5 -7t-19.5 -1
q-10 5 -13 14.5t-3 20t1 21t-1 17.5q-20 8 -29.5 21.5t-12 31t-1 38.5t3.5 44q3 6 12 9.5t19 4.5t19.5 -1t14.5 -8q-8 -10 -10.5 -27t1.5 -33.5t13.5 -29t25.5 -12.5q12 0 17.5 6.5t12.5 14.5q7 17 6 36t1 44q3 34 6.5 69t4 69.5t-2 67.5t-11.5 63q-22 23 -46 39
q-14 15 -21 38t-9 49t0 53t6 49q5 4 7 10.5t4 12.5q7 5 14 10.5t12 13.5q-2 11 -1.5 26.5t6.5 27.5q13 8 33 8t32 -5z" />
    <glyph glyph-name="exclamdown" unicode="&#xa1;" horiz-adv-x="160" 
d="M120 717q11 -19 14 -43.5t3 -49.5t-1 -48.5t3 -40.5q-4 -32 -4.5 -67t-8.5 -71q-2 -8 -3.5 -16.5t-5.5 -16.5q5 -35 -3 -72t-12 -69q-2 -19 -5 -41.5t-5 -45.5q-2 -17 -6.5 -34t-2.5 -32q0 -10 5.5 -19t7.5 -19q2 -12 1.5 -24t4.5 -23q-8 -7 -21 -9t-24 -5
q-10 -3 -22 -6.5t-24 4.5q1 41 -0.5 85t0.5 87q4 79 16 149.5t17 140.5q1 17 0.5 33t0.5 33q2 46 -0.5 100t5.5 112q17 3 34.5 9.5t35.5 -1.5zM146 821q0 -9 3.5 -16.5t6.5 -16.5q-8 -9 -16 -13t-16.5 -6.5t-18 -5t-19.5 -6.5q-15 0 -21 7.5t-6.5 18t2.5 21.5t7 20
q22 6 37.5 4.5t40.5 -7.5z" />
    <glyph glyph-name="one" unicode="1" horiz-adv-x="172" 
d="M163 725q4 -24 4 -46.5t-1 -45.5t-2.5 -47.5t-0.5 -52.5q1 -22 -0.5 -43t0.5 -43q2 -35 0 -70.5t-7 -69.5q-3 -22 -1 -47t1 -50q0 -23 -2 -44t-4 -41.5t-2 -41.5t5 -44q2 -8 4.5 -15t0.5 -11q-1 -3 -9.5 -6.5t-18.5 -7t-20 -6t-14 -2.5q-12 -2 -19 -0.5t-13 6.5
q0 37 1.5 74.5t1.5 75.5q1 83 10 163t11 165q-3 27 -4 52.5t2 51.5q-2 9 -3.5 19t3.5 18q-8 -1 -17 -6.5t-19.5 -9.5t-21.5 -3.5t-21 11.5q-2 7 2 12.5t9 12.5q14 19 29.5 44t32.5 45q14 17 39 20t44 -17z" />
    <glyph glyph-name="two" unicode="2" horiz-adv-x="257" 
d="M100 40q8 -5 21 -5t27.5 2t29.5 4.5t27 2.5q7 -1 20 -4.5t11 -13.5q-1 -6 -7.5 -8t-14.5 -3.5l-16 -3t-12 -5.5q-21 0 -42.5 -2.5t-42.5 -5t-42.5 -2.5t-43.5 6q-6 29 2.5 55.5t12.5 49.5q3 21 3.5 44.5t1 47.5t2.5 47t8 43q5 17 9 30.5t16 25.5q11 22 24.5 45.5t25.5 49
t21 53t11 58.5q1 23 1.5 51t-1.5 54q-1 9 -3 17.5t-8 15.5q-14 1 -22 -8t-17 -20.5t-20.5 -20.5t-30.5 -6q-12 1 -16.5 7.5t-3 15t7 18t11.5 18.5q5 6 17 16.5t19 13.5q12 4 28.5 6t33.5 1t32.5 -5t24.5 -12q2 -2 6 -7t8 -11t7 -11.5t5 -8.5q5 -14 6.5 -32t0.5 -37t-2 -38.5
t-1 -35.5v-22.5t-4 -22.5t-11 -23t-12 -24q-3 -8 -5 -13.5t-6 -13.5q-5 -9 -8.5 -16l-8.5 -17q-3 -8 -9 -13.5t-10 -12.5q-4 -5 -5.5 -11t-3.5 -11q-6 -11 -12.5 -22.5t-10.5 -24.5q-4 -12 -2.5 -24.5t-1.5 -27.5q-1 -8 -4.5 -18t-5.5 -21q-3 -28 -4.5 -55t-5.5 -54
q-2 -12 -4 -23t-1 -22z" />
    <glyph glyph-name="three" unicode="3" horiz-adv-x="237" 
d="M165 406q3 -12 13.5 -16t18.5 -12q8 -10 10 -26.5t4 -30.5q1 -15 5 -32.5t6 -34.5q3 -31 3 -63t2 -64q-3 -10 -4 -22t-3 -24t-5 -23t-10 -18q-6 -2 -10.5 -6t-9.5 -9q-13 0 -24 -3.5t-21.5 -8t-21.5 -8.5t-23 -5q-20 -2 -37 1.5t-37 8.5q-8 9 -12.5 16t-9.5 21
q-5 15 -0.5 25.5t24.5 12.5q15 2 32 -0.5t22 -10.5q2 -4 1.5 -8.5t1.5 -7.5q2 -4 11.5 -8t14.5 -3q7 1 14.5 9.5t9.5 14.5q4 12 6 27.5t2 32.5t-1 35t-2 33q-2 12 -3 21t-1 22q0 32 -1.5 59t-7.5 57q-5 6 -13 8t-17.5 2h-19t-16.5 2q-9 2 -18 11.5t-4 19.5q4 7 12 9.5
t16.5 4.5t16.5 4t14 7q12 12 17.5 31t6.5 39q0 12 1 30t0 34v42q0 7 -2 13t-1 13q1 12 5 25t-3 28q-9 0 -14.5 -3.5t-10 -8t-8.5 -9.5t-10 -7t-18 -2.5t-22 4.5q-12 5 -14.5 14.5t0.5 20t10.5 19.5t15.5 14q11 6 32.5 8.5t44.5 0.5q11 -1 17.5 -4t16.5 -5q11 -4 23 -5.5
t22 -9.5q2 -5 4.5 -11t7.5 -11q2 -40 1.5 -86t-9.5 -99q-5 -32 -12.5 -58t-28.5 -37z" />
    <glyph glyph-name="four" unicode="4" horiz-adv-x="294" 
d="M97 260q13 -5 25.5 -2.5t24.5 4.5q8 24 9.5 48.5t2.5 49t4 47.5t15 44q23 5 37.5 -4t20.5 -29q3 -9 1.5 -18t-1.5 -17q0 -29 3 -57t4 -48q5 -3 12.5 -2t14 1t11 -4.5t2.5 -18.5q-4 -7 -13 -8t-14 -6q-5 -18 -6.5 -37.5t-2.5 -39.5t-3 -40.5t-8 -41.5q5 -12 5 -24
t-3 -22.5t-8.5 -19.5t-9.5 -15q-16 -8 -37.5 -12.5t-39.5 3.5q-4 26 -3 54t3.5 57t4.5 58.5t0 59.5q-15 1 -33.5 -1.5t-38.5 -3.5q-11 -1 -24 0.5t-24.5 5t-20.5 10t-10 15.5q-1 5 1 8.5t3 8.5q3 14 6 33t7 36q9 32 13 64.5t12 67.5q5 20 9 43t9 46q9 39 15 85t16 82
q8 6 11 21q10 3 23.5 4.5t25.5 0t20.5 -7t10.5 -15.5q2 -11 -2 -26.5t-6 -29.5q-2 -11 -1 -19.5t-1 -18.5q-1 -10 -5.5 -19.5t-7.5 -20.5q-2 -13 -3.5 -24.5t-5.5 -22.5q-2 -5 -4 -8.5t-3 -8.5q-4 -14 -4 -29.5t-3 -29.5q-2 -8 -4.5 -13.5t-3.5 -12.5q-2 -16 -1 -32.5
t-7 -27.5q1 -16 -1.5 -30.5t-6.5 -29t-7.5 -29.5t-4.5 -31z" />
    <glyph glyph-name="five" unicode="5" horiz-adv-x="283" 
d="M273 709q-1 -10 -6.5 -14t-4.5 -12q-13 -1 -22 -5.5t-18 -9.5t-19 -8.5t-24 -2.5q-8 4 -21.5 7t-22.5 -1q-8 -20 -6 -40t6 -43q10 -9 24.5 -9t27.5 -2q6 -1 11.5 -3t11.5 -4q16 -4 29 -8t21 -21q5 -23 7.5 -43t2.5 -43q0 -20 -6 -39.5t-7 -38.5q-1 -18 -1 -33.5t-1 -34.5
q0 -13 -0.5 -33t-0.5 -40q0 -11 2.5 -20t3.5 -19q2 -10 1.5 -20t0.5 -19q2 -20 5 -40.5t5 -41.5q-3 -10 -7.5 -18.5t-9.5 -16.5q-15 -12 -36.5 -16.5t-44.5 -5.5q-18 -6 -40 -12t-44 -7.5t-42 4.5t-33 24q-2 9 -5.5 24t-5 30.5t0.5 28t12 17.5t25.5 3t29.5 -6q6 -8 8 -16.5
t3.5 -17.5l3 -18t6.5 -18q6 -11 18 -14.5t24.5 -1t23.5 9.5t15 18q2 11 -0.5 24t2.5 23q-5 35 -6 73t-2 75q0 5 0.5 9.5t0.5 9.5q2 43 -0.5 81.5t5.5 71.5q-4 12 -5 26.5l-2 29t-3.5 27.5t-8.5 24q-20 -2 -34 -2.5t-30 -5.5q-3 -1 -6 -3.5t-7 -3.5q-18 -2 -27 4t-12 16.5
t-3.5 24.5t-1.5 29q-2 24 -3 49.5t7 52.5q-2 3 -2 7v9q20 9 48 11t50 7q3 1 3 -3q26 5 52 1t50 -8q10 -1 19 -1t15 -8z" />
    <glyph glyph-name="six" unicode="6" horiz-adv-x="344" 
d="M312 623q-11 -7 -26.5 -8.5t-21.5 -12.5q-17 -5 -30 -1.5t-22 12.5q-3 20 -2 42.5t-13 40.5q-14 6 -25.5 0t-23.5 -10q-5 -22 -8.5 -48.5t-6.5 -54l-6 -55t-6 -50.5q-8 -17 -8 -42t-2 -47q14 -6 30.5 -3t35.5 1q31 -4 60.5 -16.5t52.5 -20.5q5 -11 14.5 -19.5t12.5 -21.5
q4 -14 2.5 -32t2.5 -35q2 -8 5.5 -15t1.5 -19q-2 -6 -4.5 -12t-4.5 -12q-3 -26 -4 -51.5t-12 -41.5q3 -5 2 -11.5t-3.5 -12.5t-5.5 -11t-3 -9q-20 -15 -40 -29.5t-46 -23.5q-10 1 -15 -1t-12 -6q-13 2 -31 1t-29 6q-14 0 -26 3.5t-22.5 9.5t-20.5 13.5t-19 13.5
q-13 24 -21 46q-1 14 -2 31.5l-2 35t-0.5 33.5t2.5 28q-5 29 -1 62.5t6 64.5q2 47 3 91.5t3 87.5t6.5 85t13.5 84q9 15 20.5 27.5t23.5 25.5q22 11 42 9.5t42 -0.5q22 0 40.5 -2t31.5 -10q10 -5 19.5 -13t20.5 -13q12 -21 20.5 -41.5t10.5 -42.5zM104 252q-3 -7 -4 -14
t-1 -15q0 -23 -1 -48t0.5 -48.5t7 -44t18.5 -33.5q5 -5 14 -9.5t19.5 -6.5t21 -0.5t18.5 8.5q8 14 14.5 33t6.5 42q1 26 3 56.5t0 56.5q-1 9 -4 19t-5 20q-3 13 -3.5 24.5t-3.5 16.5q-4 6 -12.5 12.5t-19 11t-22 7t-21.5 0.5q-7 -2 -12.5 -5.5t-13.5 -4.5q2 -17 -1.5 -37.5
t1.5 -40.5z" />
    <glyph glyph-name="seven" unicode="7" horiz-adv-x="328" 
d="M310 698q4 -14 1.5 -29t-8.5 -30t-13 -28.5t-11 -23.5q-5 -16 -10.5 -35.5t-10 -38t-7.5 -34.5t-4 -24q-2 -6 -5 -12.5t-5 -14.5q-1 -5 -2.5 -15.5t-3 -21.5t-3 -20.5t-1.5 -10.5q-2 -17 -7 -34.5t-6 -34.5q0 -2 1 -5.5t1 -5.5q-2 -9 -5.5 -18.5t-4.5 -18.5q0 -4 1 -7.5
t1 -7.5q-2 -11 -5.5 -21.5t-2.5 -22.5q-2 -8 -3 -17.5t-1 -18.5v-16.5t-1 -10.5q-4 -17 -9.5 -32t-7.5 -30q-1 -18 4.5 -31.5t7.5 -31.5q-11 -7 -25 -6t-27 -3q-8 -2 -19.5 -5.5t-22.5 1.5q-5 1 -8 5.5t-7 7.5q3 49 5 101t5.5 103t10.5 99t20 90q-2 2 -3.5 3t-0.5 5
q8 28 20.5 70t20.5 84q3 14 5.5 27t4.5 25q9 17 16.5 35t12.5 39q-17 6 -38 6t-40 -3q-3 -6 -3.5 -13.5t-4.5 -12.5q-11 1 -21 -4t-19 -10.5t-18 -10.5t-19 -4q-11 0 -16.5 7.5t-15.5 11.5q7 14 4 30t1 30q2 7 6 10.5t5 10.5q13 7 28 9t31.5 1.5t33 -3t32.5 -3.5
q8 2 17.5 2.5t18.5 -1.5q20 -3 41.5 -7t31.5 -12q9 2 16.5 1t14 -3t12.5 -5.5t14 -5.5z" />
    <glyph glyph-name="eight" unicode="8" horiz-adv-x="294" 
d="M238 468q4 -4 11.5 -6t15 -3.5t14 -4t9.5 -7.5q-2 -8 -2 -16t1 -22q0 -15 -4.5 -31t-7.5 -34q-4 -25 -4 -51.5t-1 -52.5q0 -6 -2 -12t-2 -12q-1 -6 0.5 -11t0.5 -10q-4 -47 -17 -88.5t-30 -74.5q-10 -3 -14.5 -11t-9.5 -16q-18 -6 -35 -12.5t-37 -7.5q-15 -1 -32.5 0.5
t-33.5 6.5t-29 13.5t-19 21.5q-6 14 -6.5 34.5t-1.5 37.5q0 32 4 65.5t4 59.5q1 46 3.5 85.5t13.5 82.5q5 22 13 38.5t19 30.5q-13 14 -25 28t-19 34q-2 31 -0.5 57.5t5.5 56.5q2 17 2.5 30t8.5 24q4 4 9.5 8t10.5 10q10 10 16.5 16t17.5 14q27 7 53.5 6t58.5 -9
q18 -5 39 -9.5t28 -16.5q10 -20 5.5 -43t-7.5 -46q-2 -18 -0.5 -37t-0.5 -36q-1 -5 -2.5 -8t-2.5 -7q-2 -8 0 -14.5t0 -13.5q-3 -11 -9 -19t-9 -18zM139 429q-18 -26 -25 -63t-11 -72q5 -7 1.5 -17t-3.5 -19q1 -11 3.5 -22t3.5 -22q1 -24 0.5 -49t0 -49.5t3 -47.5t10.5 -42
q17 7 22 25.5t8 34.5q5 1 6.5 6.5t2.5 12t2.5 13.5t6.5 10q-5 8 -0.5 17.5t0.5 20.5q4 12 4 28v30q1 55 0.5 101t1.5 99q-6 8 -16 8t-21 -3zM114 653q-5 -8 -2.5 -18.5t1.5 -21.5q-1 -14 -3.5 -30.5t-3.5 -28.5q-1 -20 9.5 -34t13.5 -28q11 -8 26 -11q1 3 5 3
q12 16 9.5 32.5t-3.5 31.5q0 2 2 1.5t2 1.5q0 11 -1 23.5t-1 25.5q0 18 -3 36t-2 37q-6 -2 -13 -3.5l-14 -3t-13 -4.5t-9 -9z" />
    <glyph glyph-name="nine" unicode="9" horiz-adv-x="325" 
d="M289 28q-9 -7 -22 -10t-28 -4t-30.5 -1.5t-30.5 -3.5q-20 -3 -44.5 -8.5t-53.5 -1.5q-11 2 -23 5t-17 6t-15 16t-12 23q-4 10 -3 20t0 20q5 11 17 15t26 3t28.5 -4.5t25.5 -7.5q2 -11 1 -22.5t5 -25.5q7 -5 15.5 -9.5t19.5 -3.5q8 1 21 6t15 10q3 15 3.5 39.5t0.5 50
t1.5 49.5t8.5 39q-5 20 -0.5 41.5t4.5 47.5q-11 4 -21 4.5t-19 -1t-17 -3t-16 -0.5q-24 4 -47 21.5t-29 46.5q-4 17 -2.5 44t-0.5 48q0 7 -1 12.5t-1 10.5q1 9 4.5 15.5t4.5 13.5q1 6 -1 13.5t-2 12.5q0 16 1 37t4 42t8.5 39t14.5 27q9 10 23 18t30 13t33 8t31 3
q44 1 72.5 -9.5t35.5 -46.5q3 -14 3 -30.5t-0.5 -34t-0.5 -34t2 -31.5q3 -17 2.5 -36t-1.5 -39t-2 -41.5t1 -42.5q3 -11 2 -22t-3 -16q-4 -14 -5 -31.5t1 -28.5q0 -5 -3 -5t-4 -4q1 -23 -2 -44t-5.5 -41t-3 -40.5t4.5 -42.5q1 -4 -2.5 -3.5t-2.5 -4.5q5 -22 5.5 -47.5
t-4.5 -38.5zM202 699q-20 -4 -35 -15t-22 -30q1 -22 -7 -50.5t-13 -60.5q-1 -11 1 -19.5t4 -18.5q2 -14 0 -29.5t-2 -29.5q1 -13 4 -27t8 -26t11.5 -20.5t14.5 -11.5q8 -4 18.5 0t20.5 5q2 6 6 8q-1 24 3.5 46.5t5.5 44.5q2 44 1 75.5t-3 66.5q-1 12 -1.5 25.5t-1.5 26.5
t-3.5 23.5t-7.5 16.5h-2z" />
    <glyph glyph-name="zero" unicode="0" horiz-adv-x="372" 
d="M342 602q5 -44 9 -93.5t-7 -91.5q5 -14 4 -28t-3.5 -27t-5 -24.5t-0.5 -20.5q-5 -17 -7.5 -33t-3.5 -31t-2.5 -29.5t-4.5 -28.5q-4 -20 -8.5 -40.5t-5.5 -41.5q-3 -9 -9.5 -24t-14 -29.5t-14.5 -26t-13 -13.5q-11 -11 -27.5 -18t-37.5 -5q-8 0 -16 0.5t-12 -3.5
q-121 12 -139 124q-3 20 -8 39.5t-8 42.5q0 11 -1.5 18.5t-3.5 19.5q-3 29 -0.5 58t4.5 59q1 20 1.5 40.5t2.5 40.5q2 14 4.5 26t4.5 24q4 22 2.5 42t8.5 38q-1 32 13.5 63.5t25.5 60.5q16 10 27 24t28 22q20 -1 41.5 4t53.5 0q6 -2 15.5 -3.5t14.5 -3.5q2 -1 3.5 -3.5
t4.5 -4.5q7 -5 15 -6t14 -5q15 -9 22.5 -22t12.5 -27.5t9 -30.5t11 -32zM201 145q15 38 20.5 82.5t11.5 89.5q5 32 10 63t5 63q0 20 -2 36t-4 31q-2 10 -1.5 20.5t-0.5 21.5q-2 21 -6 42t-9 38q-2 5 -6.5 16t-9.5 19q-10 14 -19.5 6.5t-18.5 -18.5q-17 -45 -31.5 -93.5
t-17.5 -101.5q-8 -10 -9 -24t-2 -26q-4 -27 -4.5 -59t-2.5 -58q-1 -20 5 -36.5t3 -34.5q5 -8 6.5 -19t3 -22.5t3.5 -23t8 -20.5q4 -27 8.5 -52t24.5 -35q11 23 22 46.5t13 48.5z" />
    <glyph glyph-name="question" unicode="?" horiz-adv-x="220" 
d="M100 -61q-1 -6 -8 -13.5t-18 -13t-23.5 -6t-24.5 8.5q1 0 -4.5 7t-6.5 9q-2 10 1 22t1 22q8 11 21 10t27 1q16 -5 21 -20t14 -27zM93 35q-4 -5 -8.5 -2.5t-9.5 1.5q-7 -2 -13.5 -7t-13 -8.5t-14 -5t-16.5 3.5q-10 7 -13 17.5t-3 23t1.5 25.5t1.5 24v6.5t2 9.5
q0 39 4.5 71.5t13.5 61.5q6 20 12 33.5t17 28.5q10 13 22 23t20 24q9 14 18 28.5t13 31.5q8 30 8 66v66q1 31 4.5 56t1.5 51q0 6 -1.5 16t-3.5 15q-6 15 -25.5 15t-31.5 -10q-6 -13 -8.5 -26.5t-5.5 -27.5q-5 -2 -13 -6q-5 -2 -9.5 1t-8.5 8t-7.5 11t-6.5 9q-2 20 3 39
t16 34q12 11 30 16.5t37 5.5t37 -5t30 -14q13 -17 18.5 -35.5t8 -39.5t4 -44t4.5 -47q1 -4 1 -12v-17v-17t1 -12q3 -16 3 -38t-1 -40q-1 -9 -1.5 -18.5t-2.5 -17.5q-5 -23 -14.5 -42.5t-25.5 -31.5q-13 -10 -21.5 -23.5t-16.5 -24.5q-2 -3 -6 -6t-7 -8q-1 -3 -0.5 -6
t-0.5 -6q-4 -11 -9 -21.5t-7 -21.5q-2 -7 -1 -13.5t1 -12.5q-2 -11 -5.5 -22t-4.5 -22q-1 -13 0 -26t-5 -23q10 -13 8.5 -30t-0.5 -32z" />
    <glyph glyph-name="questiondown" unicode="&#xbf;" horiz-adv-x="252" 
d="M180 672q7 -15 4.5 -33.5t-1.5 -37.5q1 -14 3.5 -27.5t0.5 -27.5q-2 -8 -4.5 -14.5t-4.5 -13.5q-4 -25 -2.5 -49.5t-5.5 -46.5q-10 -15 -20 -28.5t-24 -25.5q-20 -32 -28.5 -71.5t-9 -82.5t4 -87.5t9.5 -86.5q2 -13 2.5 -25.5t10.5 -24.5q22 -5 28 5t6 25.5t-1.5 32.5
t4.5 26q6 8 16.5 9.5t22 -0.5t22 -5.5t16.5 -4.5q4 -14 -3.5 -21.5t-11.5 -16.5q-2 -5 -1 -9.5t0 -9.5q-2 -5 -5.5 -12t-8 -14.5t-9 -14.5t-7.5 -10q-11 -11 -31 -19t-48 -5q-47 5 -68.5 31t-29.5 76q-2 10 -2.5 22.5t-0.5 23.5q-1 32 0.5 70t2.5 76q1 39 6 67t25 56
q8 12 19 22t20 19q11 13 16.5 28.5t7.5 32.5t2 36.5v40.5v65.5t2 59.5q7 7 17 9t20.5 1.5t21 -4t17.5 -6.5zM185 754q5 -10 2.5 -15.5t-2.5 -12.5q-4 -3 -7 -6t-8 -5q-7 -3 -13 -5.5t-11 -4.5q-15 -8 -27 -5t-19 12.5t-8.5 24.5t3.5 30q22 5 47.5 5t42.5 -18z" />
    <glyph glyph-name="parenleft" unicode="(" horiz-adv-x="167" 
d="M169 763q2 -12 -1 -21t-8 -16.5t-11.5 -14t-11.5 -13.5q-9 -27 -10 -56t-3 -59q-2 -32 -4.5 -59.5t-4.5 -62.5q-2 -47 -11 -89.5t-13 -84.5q-2 -17 2 -35t6 -38q1 -9 0 -18.5t0 -18.5q2 -15 6 -30t7 -30q3 -17 5 -33.5t5 -31.5t8 -28.5t15 -23.5q7 -2 15.5 -2.5t17 -2
t15 -4.5t10.5 -9q-2 -9 -10 -11t-16 -6q-11 -5 -20.5 -11.5t-26.5 -4.5q-5 1 -9.5 3t-9.5 4q-12 2 -21.5 1.5t-16.5 3.5q-7 3 -14 11.5t-13.5 18.5t-11.5 21t-8 20q-2 8 -4 17.5t-4 19.5q-2 9 -3.5 18.5t-3.5 19.5q-3 17 -6 37t-3 38q0 8 3 15t3 15q2 42 -0.5 82.5t5.5 72.5
q-5 11 -3 21.5t3 23.5q1 27 0 56.5t2 59.5q3 37 4.5 75t6.5 71t15.5 57.5t31.5 36.5q9 5 22.5 6.5t21.5 0.5q15 -2 28 -3.5t24 -8.5z" />
    <glyph glyph-name="parenright" unicode=")" horiz-adv-x="187" 
d="M48 46q22 54 28.5 125t5.5 143q-1 51 -2 105t-3 106q-2 35 -3.5 72.5t-4.5 74.5q-2 18 -7 35.5t-14 29.5q-8 -1 -17.5 -0.5t-18 3.5t-14 8.5t-4.5 14.5q2 12 19 16t31 5t30.5 0t32.5 -4t29 -9t20 -16q0 -11 7.5 -18t10.5 -17q5 -14 6 -33t0 -39.5t-3 -42t-3 -39.5
q0 -20 -1 -34t3 -28q-5 -57 0 -123t5 -129q0 -25 -3.5 -50.5t-8 -50t-9 -48.5t-5.5 -46q-23 -43 -70 -68q-12 1 -20 -1.5t-16 -6t-16 -7.5t-20 -6q-9 -2 -19.5 -0.5t-12.5 11.5q-1 6 2.5 10t8 7t10 5.5t8.5 5.5q11 8 19 20t19 19z" />
    <glyph glyph-name="bracketleft" unicode="[" horiz-adv-x="157" 
d="M169 744q-31 1 -42 -9.5t-10 -45.5q0 -10 1.5 -19.5t3.5 -19.5q1 -11 0.5 -19.5t1.5 -19.5q2 -16 -2 -35t-5 -33q-1 -27 1.5 -55t0.5 -56q-1 -15 -4 -30t-3 -30q1 -12 0.5 -20t-1.5 -19q-2 -26 1.5 -51.5t4.5 -50.5q1 -11 -1 -23t-3 -23q-2 -8 -2 -21t0.5 -25.5
t1.5 -22.5t1 -12q4 -19 8.5 -38t-4.5 -32q2 -6 1 -13q8 -8 18.5 -10t22.5 -2.5t24 -0.5t22 -3q11 -27 -1.5 -38t-35 -14t-47 -3.5t-36.5 -6.5q-9 1 -22 3.5t-24.5 7.5t-20.5 12.5t-10 17.5q0 4 1 14t2 18q5 32 6 73.5t-2 79.5q-1 17 1 35t1 36q-1 20 -0.5 38.5t1.5 38.5
q1 16 0 32t0 33q1 9 3.5 18t1.5 17q-1 17 -2.5 32.5t-0.5 32.5q0 10 2.5 18.5t1.5 17.5q1 4 -1 7t-2 6q-1 8 1 17.5t2 18.5q0 34 -2.5 71.5t-6.5 76.5q-1 8 -3 18t-4 19.5t-2 18.5t4 15t12.5 9.5t18.5 5t20 0.5t17 -3q15 -1 34.5 0.5t35.5 -2.5q18 -4 26 -18.5t-6 -33.5z
" />
    <glyph glyph-name="bracketright" unicode="]" horiz-adv-x="198" 
d="M177 777q5 -13 6.5 -28.5t-0.5 -30.5q10 -18 5 -35.5t-8 -34.5q-1 -5 0 -10.5t0 -10.5q-2 -15 -7 -34t-6 -39q-2 -42 -3.5 -80.5t-1.5 -80.5q0 -9 0.5 -16.5t-1.5 -14.5q4 -7 3.5 -18t4.5 -18q-4 -24 -2.5 -51.5t4.5 -56t6.5 -56.5t5.5 -53q1 -11 -1 -21.5t5 -19.5
q-3 -10 -2 -19.5t2.5 -18.5t3 -17.5t-0.5 -16.5t-8.5 -15t-15 -13t-17.5 -10.5t-16 -6.5q-14 1 -30 2.5t-33 0.5q-11 0 -18.5 -4t-19.5 -2q-4 1 -6.5 3t-7.5 5q-12 5 -25 9t-21 17q-6 9 -3.5 16.5t9 12.5t16.5 6.5t19 0.5q4 2 5.5 6.5t5.5 7.5q7 0 7.5 -6.5t7.5 -6.5
q5 2 17 3.5t14 11.5q-3 43 -4.5 85t-2.5 87q0 29 -2.5 57t0.5 55q2 11 2 21.5v24.5q0 2 -1.5 4.5t-1.5 4.5t2.5 4t2.5 5q0 14 -1.5 29t-2.5 31q0 28 4.5 56t4.5 56q0 5 -2 10.5t-2 10.5q1 13 4.5 28t5.5 31q1 8 0 16t0 16q2 16 5 32t2 33q-13 4 -34 5t-40 8q-9 3 -18.5 13
t-10.5 15q-1 10 5 11t8 8q29 5 54 2t55 -5q23 2 39.5 0t35.5 -11z" />
    <glyph glyph-name="fraction" unicode="&#x2044;" horiz-adv-x="500" 
 />
    <glyph glyph-name="slash" unicode="/" horiz-adv-x="325" 
d="M-1 12q8 23 16 50.5t15 50.5q5 16 11.5 32t10.5 31l13.5 49.5t16.5 53.5q5 14 11.5 27.5t6.5 28.5q10 12 11 27.5t11 26.5q2 23 12 43.5t13 45.5q4 5 6 11.5t7 10.5v14q7 9 9 19t5 20q7 17 15 33t15 34q1 2 -0.5 5.5t0.5 7.5q2 5 6 11.5t7 14.5q2 7 3.5 14t4.5 15
q5 14 8 32t10 25q3 3 16.5 2.5t29 -3.5t29.5 -7.5t17 -9.5q2 -3 1 -10.5t-4 -16.5t-6 -17.5t-5 -13.5q-4 -9 -7.5 -16.5t-7.5 -16.5q-3 -8 -7 -16t-9 -15q-10 -39 -21 -72.5t-28 -65.5q-8 -31 -17 -55t-14 -57q-8 -14 -14.5 -33t-11.5 -39l-10 -40t-11 -36q-4 -15 -9.5 -35
t-11 -40.5t-11.5 -39.5t-12 -33q1 -14 0 -26t-6 -21q-11 -6 -21 -12.5t-20 -11t-20 -6.5t-21 2q-9 4 -16.5 11.5t-15.5 16.5z" />
    <glyph glyph-name="backslash" unicode="\" horiz-adv-x="291" 
d="M284 28q-11 -12 -19 -26q-16 -8 -34.5 -11.5t-36.5 6.5q-7 10 -13 20.5t-6 27.5q-18 42 -28.5 86.5t-28.5 83.5q-4 13 -5 19t-3 12q-15 60 -33.5 117.5t-33.5 116.5q-15 61 -27 120t-30 117q4 12 13.5 17t21 5t24.5 -2.5t25 -4.5q11 -11 15.5 -28t8.5 -32q6 -8 9.5 -18
t10.5 -16q8 -20 9 -40.5t5 -41.5q3 -17 9.5 -35t9.5 -38q2 -12 4 -19.5t5 -17.5q2 -5 1.5 -10.5t1.5 -10.5t4.5 -9t4.5 -9q8 -23 14.5 -47t11.5 -47q0 -2 -0.5 -5t-0.5 -5q2 -8 7 -16.5t2 -17.5q8 -12 12.5 -27.5t8.5 -31.5t9 -32t14 -29q0 -8 4 -18t6 -17q0 -3 2.5 -13
t5 -20.5t5 -18.5t2.5 -9q3 -7 8 -12t5 -13z" />
    <glyph glyph-name="numbersign" unicode="#" horiz-adv-x="452" 
d="M202 441q5 -7 13 -3t17 2q7 26 15.5 53.5t14.5 53.5q2 9 2.5 17.5t3.5 16.5q3 9 9.5 24t8.5 25q2 5 3.5 13t3.5 13q3 10 6 23t3 19q1 5 -0.5 8.5t-0.5 6.5q4 16 20.5 17t31.5 -1q6 -1 11 -3.5t5 -12.5q-1 -9 0.5 -21t1.5 -25t-2.5 -24.5t-10.5 -19.5q4 -10 3 -18.5
t-5 -17.5t-8.5 -18.5t-6.5 -19.5q-3 -15 -3 -30.5t-3 -26.5q-2 -5 -4.5 -8t-3.5 -7q-3 -9 -3.5 -17.5t-3.5 -16.5q10 -6 22.5 -7t26 -0.5t26.5 0t24 -5.5q1 -1 3 -4q1 -2 2 -5t0 -8q0 -5 -4 -11q-2 -3 -4 -5q-1 -6 -17.5 -5.5t-37 2.5t-38 2t-20.5 -6q-4 -4 -4 -10v-5
q5 -3 14.5 -3t20.5 0.5t21.5 2t16.5 1.5q14 1 29 -2t28 -3q12 -10 4.5 -25t-22.5 -17q-24 4 -47.5 1t-43.5 4q-7 -5 -15.5 -5.5t-16.5 -2.5q-4 -12 -9 -25.5t-9.5 -28t-7.5 -28.5t-2 -27q-1 -3 -3 -5.5t-3 -5.5q2 -19 -3.5 -37t-9.5 -36q-2 -5 -1 -10t-1 -10q-1 -3 -3 -5.5
t-4 -5.5q-5 -23 -4 -45.5t-4 -45.5q-6 -11 -13 -22t-26 -11q-12 -1 -24.5 0.5t-22 5.5t-14.5 9t-2 10q7 11 9 20t3 18t3 19t8 22q5 40 17 78t20 80q4 20 10.5 40.5t10.5 40.5q-8 6 -19.5 4.5t-17.5 -9.5q-6 -20 -9.5 -41t-11.5 -42q-11 -29 -15 -57.5t-15 -57.5
q-6 -20 -11 -48t-11 -44q-2 -10 -10 -24t-20 -17q-15 -5 -31 2.5t-21 16.5q-2 6 1.5 18t5.5 20q4 14 6 28t5 28q2 5 4.5 10t3.5 10q4 10 7 20t3 16q11 45 21 86t23 79q-1 4 -4.5 5t-5.5 4q-11 -3 -25.5 -5.5t-27 -1.5t-21.5 6t-9 16q3 10 2.5 11.5t3.5 9.5q3 8 12.5 5.5
t33.5 -4.5q11 2 26.5 1t29.5 4l2 6t1 8q-6 2 -16 2t-20.5 -1t-21.5 -1.5t-19 1.5q-9 2 -7.5 12t0.5 18q-2 12 10.5 15t29.5 2.5t34 -2t25 2.5q12 41 21.5 83t21.5 86q9 32 18.5 61.5t7.5 62.5q0 6 1 12.5t4 11t8.5 5.5t14.5 -3q14 -5 25 -15.5t7 -26.5q0 -12 -2 -17
q9 -20 3.5 -41t-10.5 -37q2 -11 -0.5 -21.5t-6 -21t-6.5 -20.5t-3 -20q-11 -18 -14 -43t-12 -48zM187 375q7 -2 11 -3t12 1q1 5 2.5 8t2.5 8q-4 -2 -8.5 -1.5t-8.5 0.5t-7 -3t-4 -10z" />
    <glyph glyph-name="percent" unicode="%" horiz-adv-x="324" 
d="M278 738q8 5 17 3t19 -4q6 -14 6.5 -30t-1.5 -30q-2 -10 -6.5 -17.5t-8.5 -15.5q-6 -16 -9.5 -30t-11.5 -28q-5 -10 -12.5 -22t-8.5 -24q-10 -18 -20 -39.5t-14 -41.5q-19 -25 -23 -60q-9 -18 -16 -40t-13 -46t-11.5 -48.5t-11.5 -46.5q-2 -5 -4 -9t-4 -9t-1.5 -11.5
t-1.5 -12.5q-2 -5 -5 -10.5t-5 -10.5q-5 -20 -9.5 -41.5t-19.5 -35.5q1 -11 -2.5 -18.5t-4.5 -18.5q-11 -11 -20 -23.5t-22 -21.5q-19 -2 -32.5 5.5t-22.5 20.5q26 80 55 166t62 170q2 5 5 8t5 8t1.5 10t1.5 10q5 14 11.5 26t11.5 26q11 29 22.5 58.5t25.5 56.5q20 37 39 69
t30 76q2 11 2.5 19.5t6.5 12.5zM293 55q-13 -14 -25 -26t-37 -13q-11 0 -23 3t-23.5 9t-19.5 15t-9 21q-4 26 3 58.5t24 56.5t46.5 34.5t63.5 -6.5q1 -3 5.5 -9.5t9 -15.5t7.5 -19.5t0 -20.5zM224 108q1 -9 3.5 -21.5t16.5 -14.5q3 17 3 39.5t-1 40.5q-4 3 -18 3
q-5 -11 -5 -23t1 -24zM87 662q-3 19 4 34t20.5 25t31 15t33.5 4q10 -4 22 -12t12 -24q-1 -3 -3 -4.5t-4 -5.5q0 -20 -5 -42t-8 -42q-8 -12 -19 -20.5t-25 -10.5q-12 -2 -29.5 2.5t-25.5 12.5q-13 11 -11.5 31t7.5 37zM150 631q4 4 6.5 11.5t2.5 16t-3.5 15.5t-9.5 9
q-5 2 -9.5 -2.5t-8 -11.5t-4.5 -14t2 -11q6 -7 11 -14t13 1z" />
    <glyph glyph-name="ordmasculine" unicode="&#xba;" horiz-adv-x="177" 
d="M144 540q-6 -7 -15.5 -9.5t-20.5 -3.5t-22 -1.5t-20 -3.5q-17 3 -36 11.5t-24 27.5q-2 8 -2 20t1 20q0 7 -0.5 16t1.5 15q12 34 17 51.5t10.5 26t15 12.5t29.5 11q11 4 23 3.5t16 -0.5q16 0 22 -4t15 -15q3 -4 6.5 -6.5t4.5 -5.5q4 -8 4 -29t1 -32q1 -5 -1.5 -9t-3.5 -9
q0 -5 0.5 -9.5t-0.5 -8.5q-3 -20 -11 -36.5t-10 -31.5zM97 681q-7 1 -11 -2.5t-7 -9t-4.5 -11t-4.5 -9.5q8 -13 5.5 -30t2.5 -37q9 -6 21 -3q9 20 12 46t1 48q-8 0 -9 3.5t-6 4.5z" />
    <glyph glyph-name="ordfeminine" unicode="&#xaa;" horiz-adv-x="172" 
d="M98 572q-12 10 -19.5 8t-12 -10.5t-8 -20t-7.5 -20.5q-18 -6 -29.5 -2t-22.5 15q-1 11 1.5 17.5t-2.5 13.5q4 25 9 54q3 16 4 31.5t4.5 29t12 23.5t26.5 15q8 2 24 8.5t27 6.5q3 0 6 -1.5t7 -2.5q6 0 13.5 -0.5t12.5 -8.5q1 -2 3.5 -10t4.5 -17.5t4 -18t2 -11.5
q1 -15 -1 -27.5t6 -23.5q5 -24 1 -44.5t-4 -40.5q-14 -3 -28 -7t-30 1l-3 21t-1 22zM77 642q2 -2 7.5 -2t7.5 2q2 8 1.5 22.5t-8.5 19.5q-5 -7 -8 -19t0 -23z" />
    <glyph glyph-name="asterisk" unicode="*" horiz-adv-x="301" 
d="M254 709q10 8 21 0t16 -16q-22 -32 -47.5 -59.5t-43.5 -62.5q7 -5 17 -5t21 1t22 1.5t20 -2.5q2 -18 -3.5 -26t-16.5 -11t-27 -2.5t-34 0.5q7 -19 13.5 -30t14 -22t17 -26t22.5 -42q-6 -8 -15 -14t-19 -9.5t-19 -3.5t-16 5q-8 19 -17.5 38.5t-17.5 39.5q-5 -14 -7 -22.5
t-4 -16.5t-4.5 -17t-8.5 -24q-14 -5 -26 -1.5t-19 13.5q0 12 2.5 22t5.5 20.5t6.5 22t6.5 25.5q-22 -20 -39 -41t-36 -37q-13 0 -25 0.5t-17 8.5q20 35 47 62.5t54 54.5q-13 5 -29 6t-25 9q-3 15 4.5 19.5t19.5 4.5t26 -2t25 -1q-2 7 -11.5 19.5t-20.5 26t-21.5 25.5
t-14.5 19t-2 11t7 6.5l11 5.5t11 8q18 -13 31.5 -30.5t33.5 -42.5q-2 24 4.5 52t6.5 46q8 7 24.5 7t24.5 -7q1 -7 -1 -20.5t-5.5 -28t-8 -28t-7.5 -21.5z" />
    <glyph glyph-name="underscore" unicode="_" horiz-adv-x="419" 
d="M391 73q13 2 16.5 -7.5t7.5 -20.5q-1 -8 -9 -16.5t-28 -15.5q-28 -2 -55 -2.5t-54.5 -0.5t-55.5 -1.5t-58 -5.5q-18 4 -39 2.5t-41 -2.5t-39.5 2.5t-34.5 16.5q3 4 2 8.5t-2.5 8.5t-2 7.5t2.5 6.5q5 15 16.5 15t28.5 -2q48 -5 92.5 -3.5t89.5 0.5q20 0 40.5 2.5t41 5.5
t41 4.5t40.5 -2.5z" />
    <glyph glyph-name="minus" unicode="&#x2212;" horiz-adv-x="833" 
 />
    <glyph glyph-name="emdash" unicode="&#x2014;" horiz-adv-x="484" 
d="M15 261q-3 5 -8 15t-6 20.5t5.5 19.5t27.5 12q51 -3 106.5 -0.5t112.5 4.5t112 0t105 -15q7 -5 9 -10.5t0 -11.5t-6 -11t-8 -8q-6 -14 -15 -16.5t-28 0.5q-55 5 -105 2.5t-102 -1.5q-23 1 -48.5 -0.5t-51.5 -3t-51.5 -1t-48.5 4.5z" />
    <glyph glyph-name="hyphen" unicode="-" horiz-adv-x="296" 
d="M293 322q-3 -4 -7.5 -6t-9 -3.5t-8.5 -4t-6 -7.5q2 -5 7.5 -7t7.5 -7q-1 -9 -5.5 -13.5t-7.5 -11.5q-23 -9 -50.5 -3.5t-56.5 7.5q-32 1 -63 -1t-53 9q-5 -1 -11.5 -0.5t-13 2.5t-11 6t-4.5 10q0 3 4 8t9 10t10 9t7 7q35 5 68.5 5t66 -1.5t64 -4t63.5 -3.5z" />
    <glyph glyph-name="plus" unicode="+" horiz-adv-x="327" 
d="M202 428v-43t-5 -46q16 -1 32 1t31.5 2.5t30.5 -1.5t29 -10q-7 -5 -15 -8t-12 -10q3 -11 -0.5 -19t-8.5 -14q-20 -5 -42.5 -2t-44.5 -4q-4 -24 -3 -45t3 -41q-14 0 -26 -6t-22.5 -10t-21 -2.5t-20.5 16.5q4 19 5 41t3 39q-14 1 -29.5 0t-31 -1t-29.5 2t-25 10q2 9 4 13.5
t-1 14.5q10 7 24 10.5t29.5 5t31 1.5h27.5q0 26 1 54.5t3 56.5q8 5 19 6t23 0t23 -4t18 -7z" />
    <glyph glyph-name="Acircumflex" unicode="&#xc2;" horiz-adv-x="325" 
d="M206 748q-15 0 -25.5 7t-19 16.5t-17.5 19t-21 14.5l-16 -14t-17 -17q-6 -8 -13.5 -20t-15.5 -14q-11 -4 -17.5 3t-7.5 17.5t4 20.5t16 12q8 18 22 30t22 29q5 2 8 6.5t8 6.5q17 6 30 -3.5t19 -21.5q11 -4 19 -11t15 -15q7 2 9.5 -0.5t7.5 -3.5q6 -17 2.5 -33.5
t-12.5 -28.5zM201 20q7 32 10 68.5t3.5 74t0.5 74t2 68.5q-12 13 -32.5 9.5t-39.5 -6.5q-16 -2 -31.5 -2.5t-26.5 -8.5q3 -38 1.5 -72.5t-4 -69t-3.5 -69t3 -70.5q-8 -2 -18.5 -6t-21 -6.5t-20.5 -1t-17 11.5q-4 6 -3.5 14t0.5 18q2 65 1.5 127.5t0.5 120.5q0 14 -1 29
t-1 31q1 53 5.5 100.5t7.5 95.5q1 11 2.5 20t2.5 23q1 24 4.5 50t11.5 45.5t22 29.5t37 3q18 17 45 11q8 -2 12.5 -2t12.5 -1q24 -2 44.5 -16t39.5 -26q5 -16 15 -27t18 -24q8 -29 12.5 -60.5t6.5 -70.5q1 -25 -2 -51t-3 -52q0 -14 2.5 -27.5t0.5 -27.5q0 -4 -2 -8t-2 -8
q-1 -9 0.5 -18t0.5 -18q-1 -12 -4 -24.5t-4 -24.5q0 -6 1 -12t1 -12q-1 -10 -4.5 -19.5t-3.5 -19.5q-3 -42 -1 -81.5t1 -77.5q-1 -8 -9.5 -9.5t-16.5 -3.5q-6 -2 -12 -5.5t-11 -4.5q-11 -1 -20 5t-14 14zM144 659q-8 -6 -12.5 -15t-12.5 -16q-5 -17 -6 -33t-3 -32
q-2 -13 -6.5 -25.5t-6.5 -26.5q-1 -2 0.5 -5t0.5 -6q0 -5 -2 -10t-3 -10q-4 -32 -3 -64.5t-3 -65.5q16 -3 31.5 -2.5t31 3t31.5 4.5t34 2q6 25 5 52.5t-5 56.5t-8.5 60t-7.5 62q-2 14 -3 34t-7 36q-20 6 -45 1z" />
    <glyph glyph-name="Ecircumflex" unicode="&#xca;" horiz-adv-x="279" 
d="M206 748q-15 0 -25.5 7t-19 16.5t-17.5 19t-21 14.5l-16 -14t-17 -17q-6 -8 -13.5 -20t-15.5 -14q-11 -4 -17.5 3t-7.5 17.5t4 20.5t16 12q8 18 22 30t22 29q5 2 8 6.5t8 6.5q17 6 30 -3.5t19 -21.5q11 -4 19 -11t15 -15q7 2 9.5 -0.5t7.5 -3.5q6 -17 2.5 -33.5
t-12.5 -28.5zM263 713q-4 -8 -10 -14.5t-6 -19.5q-8 -10 -17 -4t-22 8q-24 3 -48.5 -1t-37.5 -16q8 -60 7 -124t1 -132q11 -4 29 -4.5t37 -0.5t37 -1.5t29 -8.5q-6 -4 -10.5 -10t-8 -12.5t-8.5 -11t-12 -5.5q-5 -1 -8.5 1t-8.5 4q-21 5 -42 0t-39 -13q-4 -13 -3 -25.5
t0 -23.5q-1 -4 -3.5 -7.5t-3.5 -7.5q0 -2 1.5 -4.5t1.5 -4.5q1 -12 -1.5 -24.5t-4.5 -25t-2.5 -24t4.5 -21.5q-4 -10 -4.5 -22t-0.5 -23q-1 -8 0.5 -16.5t0.5 -16.5q0 -8 -1.5 -16t3.5 -16q35 1 67 0.5t55 -15.5q-3 -1 -2.5 -4.5t1.5 -7t1.5 -6t-2.5 -1.5q-12 -13 -33 -15.5
t-45.5 -1t-49.5 3t-44 -3.5q-17 4 -30 10.5t-22 17.5q-7 54 -3 114t9 115q3 25 3 48t4 50q1 5 2.5 7.5t2.5 6.5q4 52 4 116.5t-6 121.5q-1 7 1 14t1 15q-1 7 -1 16t-2 18q-2 11 -2.5 21t15.5 13q14 3 32.5 0.5t33.5 -1.5q19 0 40.5 3t44.5 1q20 -1 41 -2t35 -11z" />
    <glyph glyph-name="Icircumflex" unicode="&#xce;" horiz-adv-x="146" 
d="M152 748q-15 0 -25.5 7t-19 16.5t-17.5 19t-21 14.5l-16 -14t-17 -17q-6 -8 -13.5 -20t-15.5 -14q-11 -4 -17.5 3t-7.5 17.5t4 20.5t16 12q8 18 22 30t22 29q5 2 8 6.5t8 6.5q17 6 30 -3.5t19 -21.5q11 -4 19 -11t15 -15q7 2 9.5 -0.5t7.5 -3.5q6 -17 2.5 -33.5
t-12.5 -28.5zM117 731q0 -12 1 -32.5t2 -32.5q2 -26 3 -55t1 -59q0 -11 3 -22t3 -22q0 -23 0.5 -49.5t-3.5 -49.5q-2 -13 -3 -28t-2 -31t-3 -31t-7 -28q2 -10 3.5 -21t-3.5 -17q2 -27 -0.5 -54t-4.5 -55q-2 -29 1 -58t1 -62q-8 -5 -17.5 -4t-18.5 -1q-8 -2 -12 -7t-10 -7
q-30 -12 -51 21q6 45 7 95.5t8 104.5q-4 18 -1 35t4 36q6 104 8.5 207.5t-1.5 200.5q7 9 18.5 15t24.5 9t26 3.5t23 -1.5z" />
    <glyph glyph-name="Ocircumflex" unicode="&#xd4;" horiz-adv-x="353" 
d="M257 759q-15 0 -25.5 7t-19 16.5t-17.5 19t-21 14.5l-16 -14t-17 -17q-6 -8 -13.5 -20t-15.5 -14q-11 -4 -17.5 3t-7.5 17.5t4 20.5t16 12q8 18 22 30t22 29q5 2 8 6.5t8 6.5q17 6 30 -3.5t19 -21.5q11 -4 19 -11t15 -15q7 2 9.5 -0.5t7.5 -3.5q6 -17 2.5 -33.5
t-12.5 -28.5zM318 158q3 -6 2 -12t-2.5 -12t-2 -11t2.5 -9q-6 -17 -12.5 -33t-16.5 -32q-8 -4 -16.5 -7.5t-19.5 -8.5q-7 -4 -11.5 -9t-9.5 -7q-24 -14 -60.5 -18t-72 2.5t-63.5 24.5t-35 49q-4 17 -3.5 41.5t2.5 43.5q2 45 5.5 94t10.5 88q11 57 18.5 113t12.5 112
q1 13 0.5 25t1.5 24q3 23 9.5 44t11.5 42q8 8 14 17.5t17 15.5q15 4 28 6.5t28 3.5q6 0 12 -2.5t13 -2.5q20 -1 38 1.5t38 -4.5q9 -4 23.5 -13t20.5 -17t11.5 -23.5t11.5 -23.5q5 -8 3.5 -24.5l-2.5 -27.5q0 -8 3 -14.5t2 -14.5q0 -4 -2 -8t-3 -8q-1 -11 2 -21.5t3 -21.5
q2 -21 -2 -41t-3 -35q1 -8 4 -15.5t3 -15.5q0 -19 -1.5 -38t-1.5 -38q0 -6 2 -12.5t3 -12.5q0 -11 -2.5 -23.5t-2.5 -24.5q0 -10 1 -19.5t0 -19.5q0 -7 -1.5 -14t-3.5 -14q-2 -11 -2.5 -21t-5.5 -18zM185 56q21 31 28.5 71.5t13.5 77.5q5 28 6 57l2 58q1 20 1 45.5t-2 45.5
q-1 5 1 9.5t2 8.5q-1 42 -1.5 83.5t-1.5 80.5q-1 26 -4 50.5t-14 47.5q-2 0 -2.5 1t-2.5 1q-11 -9 -25.5 -13t-31.5 -8q-12 -18 -16.5 -39.5t-6 -44t-3 -45.5t-6.5 -45q5 -14 1.5 -28t-5.5 -28q-1 -14 -1.5 -25.5t-2.5 -22.5q-2 -16 -2.5 -35.5t-0.5 -40.5t-1.5 -42
t-5.5 -40q3 -41 1.5 -84t11.5 -85q6 -7 10.5 -14.5t16.5 -8.5q8 6 19.5 7.5t21.5 4.5z" />
    <glyph glyph-name="Ucircumflex" unicode="&#xdb;" horiz-adv-x="370" 
d="M252 759q-15 0 -25.5 7t-19 16.5t-17.5 19t-21 14.5l-16 -14t-17 -17q-6 -8 -13.5 -20t-15.5 -14q-11 -4 -17.5 3t-7.5 17.5t4 20.5t16 12q8 18 22 30t22 29q5 2 8 6.5t8 6.5q17 6 30 -3.5t19 -21.5q11 -4 19 -11t15 -15q7 2 9.5 -0.5t7.5 -3.5q6 -17 2.5 -33.5
t-12.5 -28.5zM231 726q6 13 20 16.5t30.5 2t33 -5.5t28.5 -6q2 -8 1.5 -18.5t-3.5 -15.5q4 -12 2.5 -24t-0.5 -26q1 -24 4.5 -49.5t3.5 -53.5q0 -18 -3.5 -36.5t-4.5 -36.5t-3 -35.5t0 -35.5q2 -53 1 -108.5t-11 -108.5q-1 -10 -7 -18q0 -15 -4 -30t-10.5 -29.5t-13 -28
t-10.5 -26.5q-8 -4 -13.5 -11t-12.5 -13q-23 -8 -46 -19t-50 -12q-5 -1 -11.5 0.5t-14.5 2.5q-13 1 -27.5 1.5t-28 3t-25.5 7.5t-19 14q-8 4 -12 5q-6 11 -11.5 24t-11.5 24q-2 36 -0.5 68.5t5.5 64t8.5 62.5t8.5 63q-2 26 1 53t5 56q2 16 0.5 32t-0.5 34q2 32 3 65.5
t-6 64.5q4 10 2.5 23t-3 25t0 22.5t10.5 16.5q20 2 39.5 2.5t37.5 -10.5q1 -5 -2.5 -5t-4.5 -2q0 -40 1 -79l2 -78t0 -79.5t-4 -84.5q1 -6 0.5 -6.5t2.5 -4.5q0 -2 1.5 -4.5t1.5 -4.5q-4 -38 0 -82.5t2 -88.5q-1 -11 -4.5 -23t-3.5 -23q-1 -14 2 -27t-2 -30q4 -6 5.5 -12.5
t2 -13t2 -12.5t6.5 -12q8 -9 20 -10.5t25 2.5t24 12t17 16q5 15 11 31.5t11 33.5t7.5 33.5t0.5 31.5q8 28 8.5 61t0.5 68q1 26 1 58.5t-2 62.5q3 19 3.5 43.5t-1 51.5t-4 55t-5.5 53q0 4 1 7t1 7q-1 12 -4 21.5t2 18.5q-3 4 -3.5 10t-4.5 9z" />
    <glyph glyph-name="acircumflex" unicode="&#xe2;" horiz-adv-x="328" 
d="M206 748q-15 0 -25.5 7t-19 16.5t-17.5 19t-21 14.5l-16 -14t-17 -17q-6 -8 -13.5 -20t-15.5 -14q-11 -4 -17.5 3t-7.5 17.5t4 20.5t16 12q8 18 22 30t22 29q5 2 8 6.5t8 6.5q17 6 30 -3.5t19 -21.5q11 -4 19 -11t15 -15q7 2 9.5 -0.5t7.5 -3.5q6 -17 2.5 -33.5
t-12.5 -28.5zM309 44q-11 -4 -23 -9t-24 -8t-23.5 -3t-23.5 7q-1 33 1 64t2 69q1 11 3 22.5t1 20.5q-2 13 -2 34.5v41.5q-2 4 -4.5 6.5t2.5 6.5q-4 5 -15.5 8.5t-25 5t-26 0t-19.5 -6.5q-9 5 -18 -1t-19 -8q-3 -14 0.5 -28.5t5.5 -29.5q2 -12 0.5 -23.5t-0.5 -23.5
q1 -5 3 -8.5t2 -7.5q2 -17 1 -35t-1.5 -36t1 -35.5t7.5 -35.5q-6 -5 -13.5 -5t-15.5 -3q-6 -2 -11.5 -6t-11.5 -7.5t-13 -4.5t-16 3q-5 2 -8 7t-8 10q2 10 2 19t-1 20q0 10 2 21t2 23q-2 51 -2.5 108t-2.5 117q-1 21 -1 39t-0.5 36t-0.5 36.5t-1 40.5q-2 29 -4.5 63.5
t-4.5 66.5q-2 33 5 61t26 41q10 7 25.5 10t32.5 3.5t34 -1t30 -4.5q4 -1 8.5 -3t9.5 -3q11 -2 19.5 -1t16.5 -1q4 -1 8.5 -3t9.5 -3q14 -5 23.5 -11t18.5 -20q11 -18 13.5 -41t2.5 -48.5t-0.5 -50.5t4.5 -47q-2 0 -3.5 -8.5t-1.5 -10.5q1 -11 1.5 -18t1.5 -14.5t1.5 -16.5
t0.5 -22q0 -8 2.5 -16.5t3.5 -17.5q1 -8 -1 -15t-1 -14q1 -2 3 -5t2 -5q2 -8 2.5 -17t1.5 -17q1 -42 0 -83q3 -8 3 -16.5t-1 -17.5t-0.5 -17.5t4.5 -16.5q-5 -8 -3 -15.5t3 -15.5q1 -16 -4.5 -34.5t2.5 -35.5zM183 675q-6 1 -14 -1.5t-17 -6t-18 -6.5t-18 -2q-8 1 -11.5 4.5
t-12.5 3.5q-12 -18 -11 -40t1 -45t1.5 -47t-0.5 -47q-1 -14 1 -26.5t3 -25.5q2 -25 4 -47.5t7 -43.5q28 3 60 3.5t62 1.5q-5 76 -7.5 150.5t-10.5 146.5q-4 3 -5.5 7.5t-3 8.5t-3.5 7.5t-7 4.5z" />
    <glyph glyph-name="ecircumflex" unicode="&#xea;" horiz-adv-x="265" 
d="M206 757q-15 0 -25.5 7t-19 16.5t-17.5 19t-21 14.5l-16 -14t-17 -17q-6 -8 -13.5 -20t-15.5 -14q-11 -4 -17.5 3t-7.5 17.5t4 20.5t16 12q8 18 22 30t22 29q5 2 8 6.5t8 6.5q17 6 30 -3.5t19 -21.5q11 -4 19 -11t15 -15q7 2 9.5 -0.5t7.5 -3.5q6 -17 2.5 -33.5
t-12.5 -28.5zM238 735q-5 -5 -11 -8t-12 -9q-3 -18 -5 -28.5t-11 -19.5q-35 8 -63.5 5.5t-55.5 -14.5q2 -6 0.5 -11t4.5 -5q-6 -12 -1 -24.5t6 -25.5q1 -11 -1 -21t0 -21q2 -35 1.5 -71.5t1.5 -65.5q19 -3 38.5 -0.5t39.5 6t40.5 6.5t40.5 3q-2 -7 -7.5 -8.5t-10.5 -4.5
q3 -12 0 -20.5t-8.5 -15t-12 -13t-10.5 -13.5q-11 -6 -26.5 -8l-31 -4t-30 -5t-24.5 -12q1 -21 0.5 -45t-1 -49t-2 -49t-3.5 -44q3 -8 3 -17t-1 -18t-1 -18t4 -16q16 0 33.5 3t36 4.5t36 0.5t33.5 -8q2 -9 8 -12.5t10 -9.5q-3 -8 -7.5 -10t-9 -2.5t-8.5 -1t-7 -3.5
q-37 -2 -65 -7.5t-62 -13.5q-9 -2 -16.5 -3t-17.5 -3q-15 -3 -29 -5.5t-22 15.5q7 115 6.5 218t0.5 206q0 36 0.5 73.5t1.5 74.5q0 26 1.5 55t-3.5 49q-2 4 -4.5 7.5t-2.5 8.5q0 8 4.5 14.5t8.5 13.5q10 1 18.5 3t19.5 0q7 -1 14 -4t13.5 -4.5t13.5 -1t14 6.5q4 0 4.5 -2.5
t2.5 -4.5q34 2 65 7t58 0z" />
    <glyph glyph-name="icircumflex" unicode="&#xee;" horiz-adv-x="127" 
d="M80 712q7 -15 9 -29.5t3 -29.5t1 -30.5t2 -31.5q1 -11 0.5 -21t-0.5 -21q-1 -24 3 -48t5 -48q0 -14 -2 -28.5t-2 -29.5v-27t-1 -27q-1 -6 1 -11.5t2 -11.5q0 -11 -2.5 -22t-3.5 -22q-2 -14 0 -30.5t0 -30.5q-2 -8 -5 -14t-4 -14q0 -20 2.5 -38.5t-3.5 -36.5
q5 -22 8.5 -46.5t5.5 -42.5q0 -3 -7 -7t-17 -8t-21 -6t-20 0t-13 8.5t-11 12.5q-1 65 -4 130t-4 135q0 24 1.5 48.5t1.5 50.5q0 80 -0.5 160.5t-2.5 161.5q6 8 16 10.5t21 2t22 -3t19 -4.5zM119 748q-15 0 -25.5 7t-19 16.5t-17.5 19t-21 14.5l-16 -14t-17 -17
q-6 -8 -13.5 -20t-15.5 -14q-11 -4 -17.5 3t-7.5 17.5t4 20.5t16 12q8 18 22 30t22 29q5 2 8 6.5t8 6.5q17 6 30 -3.5t19 -21.5q11 -4 19 -11t15 -15q7 2 9.5 -0.5t7.5 -3.5q6 -17 2.5 -33.5t-12.5 -28.5z" />
    <glyph glyph-name="ocircumflex" unicode="&#xf4;" horiz-adv-x="350" 
d="M257 759q-15 0 -25.5 7t-19 16.5t-17.5 19t-21 14.5l-16 -14t-17 -17q-6 -8 -13.5 -20t-15.5 -14q-11 -4 -17.5 3t-7.5 17.5t4 20.5t16 12q8 18 22 30t22 29q5 2 8 6.5t8 6.5q17 6 30 -3.5t19 -21.5q11 -4 19 -11t15 -15q7 2 9.5 -0.5t7.5 -3.5q6 -17 2.5 -33.5
t-12.5 -28.5zM331 676q7 -33 7 -69t-3 -71.5t-7 -70.5t-7 -67q-2 -5 2 -4.5t3 -4.5q-8 -26 -7 -55t-1 -57q0 -7 -2.5 -13t-2.5 -12q0 -37 4 -73.5t9 -72.5q-5 -16 -6.5 -31.5t-8.5 -27.5q-4 -7 -11 -16.5t-13 -13.5q-13 -9 -28 -8t-32 -1q-5 0 -10.5 -3t-10.5 -5q-2 0 -6 1
t-7 1q-21 -2 -41.5 -3t-41.5 3q-8 2 -15 2t-11 1q-3 1 -5.5 4t-6.5 4q-2 1 -5.5 0t-5.5 0q-4 2 -13.5 8.5t-14.5 9.5q-10 9 -16 23.5t-1 28.5q-3 5 -6.5 10t-5.5 10q3 49 6.5 104.5t3.5 108.5q0 2 -1.5 3t-1.5 3q0 14 3 29t3 31q1 11 0 25t0 30q2 47 7 91.5t11 86.5
q3 20 10 42t14 34q19 30 53 39t79 7q14 -1 28.5 -6t26.5 -6q5 0 9 1.5t8 0.5q3 -1 7.5 -3.5t10.5 -4.5q5 -2 11.5 -2t10.5 -2q11 -5 15.5 -17t12.5 -22zM204 676q-5 0 -8.5 -2t-7.5 -1q-7 2 -12.5 5.5t-11.5 2.5q-13 -1 -19 -12t-14 -20q-1 -5 0.5 -7t1.5 -6q-8 -10 -8 -20
t-2 -21q-2 -14 -6 -28.5t-4 -28.5q0 -20 -2.5 -36.5t-3.5 -33.5q-1 -5 1 -10t2 -11q0 -15 -2.5 -30.5t-0.5 -29.5q2 -12 2.5 -23t-4.5 -21q4 -33 4 -68t-1.5 -70.5t-1.5 -71t6 -69.5q8 -10 11.5 -20.5t14.5 -13.5q8 -3 19 -2t21.5 4t19.5 7t13 7q21 18 24 48.5t-0.5 65
l-7 69t5.5 59.5q-4 25 0 50t7 51q9 77 14 151t-9 140q-10 -6 -19.5 -4.5t-21.5 0.5z" />
    <glyph glyph-name="ucircumflex" unicode="&#xfb;" horiz-adv-x="350" 
d="M252 759q-15 0 -25.5 7t-19 16.5t-17.5 19t-21 14.5l-16 -14t-17 -17q-6 -8 -13.5 -20t-15.5 -14q-11 -4 -17.5 3t-7.5 17.5t4 20.5t16 12q8 18 22 30t22 29q5 2 8 6.5t8 6.5q17 6 30 -3.5t19 -21.5q11 -4 19 -11t15 -15q7 2 9.5 -0.5t7.5 -3.5q6 -17 2.5 -33.5
t-12.5 -28.5zM110 731q1 -12 -1 -24t-4 -22.5t-2.5 -21t2.5 -19.5q-4 -18 -2.5 -40.5t0.5 -43.5q0 -20 1.5 -41.5t6.5 -41.5q-4 -35 -3 -80q1 -20 -1.5 -43.5t-3.5 -48.5q0 -26 0.5 -51.5t-1.5 -51.5q-3 -35 -7.5 -67.5t0.5 -58.5q3 -13 8 -23t15 -16q29 2 56.5 5t52.5 11
q14 26 15 58t4 65q1 4 3 8t2 9q1 5 -1 10.5t-2 10.5q-2 24 -1 50.5t-1 50.5q-6 70 -11 140t-15 128q2 32 -0.5 66t-4.5 67q8 9 19 9.5t21 -1.5q-2 0 2.5 -0.5t8.5 -2.5q23 -7 47 -8q2 -6 -1.5 -17t4.5 -16q-7 -8 -4 -16.5t4 -17.5q1 -3 -1 -7t-2 -8q-1 -9 0.5 -18t1.5 -17
q-1 -23 -2 -45t0 -45q1 -16 4.5 -32t5.5 -33q2 -18 0.5 -37.5t0.5 -40.5q1 -6 3.5 -12t3.5 -12q2 -11 0.5 -21t-0.5 -21q3 -32 4 -64.5t-2 -63.5t-11 -61t-24 -58q-8 -2 -10 -7.5t-7 -9.5q-20 -15 -56.5 -19.5t-72.5 -9.5q-9 -1 -18.5 -3.5t-18.5 -1.5q-29 2 -53.5 11
t-41.5 27q-14 16 -17.5 37.5t-1.5 53.5q3 43 8.5 91.5t9.5 96.5q6 72 12 134.5t7 130.5q0 17 -0.5 37t-1 39.5t-2 37t-2.5 31.5q12 15 34.5 13t43.5 -8z" />
    <glyph glyph-name="Atilde" unicode="&#xc3;" horiz-adv-x="319" 
d="M282 810q2 -8 -3 -12.5t-10 -8.5l-10 -10t-11 -8t-15 -9.5t-16 -7.5q-5 -1 -12.5 0t-12.5 0q-8 -1 -21 3t-27.5 8.5t-28.5 7.5t-24 1q-9 -7 -16 -11t-14 -7t-15 -4.5t-20 -4.5q-4 3 -7.5 6t-5.5 8q-1 5 -5 9t-2 7q-2 5 2.5 6.5t2.5 6.5q7 10 10 14t7.5 5.5t14 3t30.5 5.5
q15 -1 28.5 -3.5t27.5 -5.5t29.5 -5t33.5 -1q7 0 10 5t7 9.5t12 7.5t26 0q21 -5 35 -15zM201 20q7 32 10 68.5t3.5 74t0.5 74t2 68.5q-12 13 -32.5 9.5t-39.5 -6.5q-16 -2 -31.5 -2.5t-26.5 -8.5q3 -38 1.5 -72.5t-4 -69t-3.5 -69t3 -70.5q-8 -2 -18.5 -6t-21 -6.5t-20.5 -1
t-17 11.5q-4 6 -3.5 14t0.5 18q2 65 1.5 127.5t0.5 120.5q0 14 -1 29t-1 31q1 53 5.5 100.5t7.5 95.5q1 11 2.5 20t2.5 23q1 24 4.5 50t11.5 45.5t22 29.5t37 3q18 17 45 11q8 -2 12.5 -2t12.5 -1q24 -2 44.5 -16t39.5 -26q5 -16 15 -27t18 -24q8 -29 12.5 -60.5t6.5 -70.5
q1 -25 -2 -51t-3 -52q0 -14 2.5 -27.5t0.5 -27.5q0 -4 -2 -8t-2 -8q-1 -9 0.5 -18t0.5 -18q-1 -12 -4 -24.5t-4 -24.5q0 -6 1 -12t1 -12q-1 -10 -4.5 -19.5t-3.5 -19.5q-3 -42 -1 -81.5t1 -77.5q-1 -8 -9.5 -9.5t-16.5 -3.5q-6 -2 -12 -5.5t-11 -4.5q-11 -1 -20 5t-14 14z
M144 659q-8 -6 -12.5 -15t-12.5 -16q-5 -17 -6 -33t-3 -32q-2 -13 -6.5 -25.5t-6.5 -26.5q-1 -2 0.5 -5t0.5 -6q0 -5 -2 -10t-3 -10q-4 -32 -3 -64.5t-3 -65.5q16 -3 31.5 -2.5t31 3t31.5 4.5t34 2q6 25 5 52.5t-5 56.5t-8.5 60t-7.5 62q-2 14 -3 34t-7 36q-20 6 -45 1z" />
    <glyph glyph-name="atilde" unicode="&#xe3;" horiz-adv-x="328" 
d="M282 810q2 -8 -3 -12.5t-10 -8.5l-10 -10t-11 -8t-15 -9.5t-16 -7.5q-5 -1 -12.5 0t-12.5 0q-8 -1 -21 3t-27.5 8.5t-28.5 7.5t-24 1q-9 -7 -16 -11t-14 -7t-15 -4.5t-20 -4.5q-4 3 -7.5 6t-5.5 8q-1 5 -5 9t-2 7q-2 5 2.5 6.5t2.5 6.5q7 10 10 14t7.5 5.5t14 3t30.5 5.5
q15 -1 28.5 -3.5t27.5 -5.5t29.5 -5t33.5 -1q7 0 10 5t7 9.5t12 7.5t26 0q21 -5 35 -15zM309 44q-11 -4 -23 -9t-24 -8t-23.5 -3t-23.5 7q-1 33 1 64t2 69q1 11 3 22.5t1 20.5q-2 13 -2 34.5v41.5q-2 4 -4.5 6.5t2.5 6.5q-4 5 -15.5 8.5t-25 5t-26 0t-19.5 -6.5q-9 5 -18 -1
t-19 -8q-3 -14 0.5 -28.5t5.5 -29.5q2 -12 0.5 -23.5t-0.5 -23.5q1 -5 3 -8.5t2 -7.5q2 -17 1 -35t-1.5 -36t1 -35.5t7.5 -35.5q-6 -5 -13.5 -5t-15.5 -3q-6 -2 -11.5 -6t-11.5 -7.5t-13 -4.5t-16 3q-5 2 -8 7t-8 10q2 10 2 19t-1 20q0 10 2 21t2 23q-2 51 -2.5 108
t-2.5 117q-1 21 -1 39t-0.5 36t-0.5 36.5t-1 40.5q-2 29 -4.5 63.5t-4.5 66.5q-2 33 5 61t26 41q10 7 25.5 10t32.5 3.5t34 -1t30 -4.5q4 -1 8.5 -3t9.5 -3q11 -2 19.5 -1t16.5 -1q4 -1 8.5 -3t9.5 -3q14 -5 23.5 -11t18.5 -20q11 -18 13.5 -41t2.5 -48.5t-0.5 -50.5
t4.5 -47q-2 0 -3.5 -8.5t-1.5 -10.5q1 -11 1.5 -18t1.5 -14.5t1.5 -16.5t0.5 -22q0 -8 2.5 -16.5t3.5 -17.5q1 -8 -1 -15t-1 -14q1 -2 3 -5t2 -5q2 -8 2.5 -17t1.5 -17q1 -42 0 -83q3 -8 3 -16.5t-1 -17.5t-0.5 -17.5t4.5 -16.5q-5 -8 -3 -15.5t3 -15.5q1 -16 -4.5 -34.5
t2.5 -35.5zM183 675q-6 1 -14 -1.5t-17 -6t-18 -6.5t-18 -2q-8 1 -11.5 4.5t-12.5 3.5q-12 -18 -11 -40t1 -45t1.5 -47t-0.5 -47q-1 -14 1 -26.5t3 -25.5q2 -25 4 -47.5t7 -43.5q28 3 60 3.5t62 1.5q-5 76 -7.5 150.5t-10.5 146.5q-4 3 -5.5 7.5t-3 8.5t-3.5 7.5t-7 4.5z
" />
    <glyph glyph-name="Otilde" unicode="&#xd5;" horiz-adv-x="350" 
d="M328 810q2 -8 -3 -12.5t-10 -8.5l-10 -10t-11 -8t-15 -9.5t-16 -7.5q-5 -1 -12.5 0t-12.5 0q-8 -1 -21 3t-27.5 8.5t-28.5 7.5t-24 1q-9 -7 -16 -11t-14 -7t-15 -4.5t-20 -4.5q-4 3 -7.5 6t-5.5 8q-1 5 -5 9t-2 7q-2 5 2.5 6.5t2.5 6.5q7 10 10 14t7.5 5.5t14 3t30.5 5.5
q15 -1 28.5 -3.5t27.5 -5.5t29.5 -5t33.5 -1q7 0 10 5t7 9.5t12 7.5t26 0q21 -5 35 -15zM318 158q3 -6 2 -12t-2.5 -12t-2 -11t2.5 -9q-6 -17 -12.5 -33t-16.5 -32q-8 -4 -16.5 -7.5t-19.5 -8.5q-7 -4 -11.5 -9t-9.5 -7q-24 -14 -60.5 -18t-72 2.5t-63.5 24.5t-35 49
q-4 17 -3.5 41.5t2.5 43.5q2 45 5.5 94t10.5 88q11 57 18.5 113t12.5 112q1 13 0.5 25t1.5 24q3 23 9.5 44t11.5 42q8 8 14 17.5t17 15.5q15 4 28 6.5t28 3.5q6 0 12 -2.5t13 -2.5q20 -1 38 1.5t38 -4.5q9 -4 23.5 -13t20.5 -17t11.5 -23.5t11.5 -23.5q5 -8 3.5 -24.5
l-2.5 -27.5q0 -8 3 -14.5t2 -14.5q0 -4 -2 -8t-3 -8q-1 -11 2 -21.5t3 -21.5q2 -21 -2 -41t-3 -35q1 -8 4 -15.5t3 -15.5q0 -19 -1.5 -38t-1.5 -38q0 -6 2 -12.5t3 -12.5q0 -11 -2.5 -23.5t-2.5 -24.5q0 -10 1 -19.5t0 -19.5q0 -7 -1.5 -14t-3.5 -14q-2 -11 -2.5 -21
t-5.5 -18zM185 56q21 31 28.5 71.5t13.5 77.5q5 28 6 57l2 58q1 20 1 45.5t-2 45.5q-1 5 1 9.5t2 8.5q-1 42 -1.5 83.5t-1.5 80.5q-1 26 -4 50.5t-14 47.5q-2 0 -2.5 1t-2.5 1q-11 -9 -25.5 -13t-31.5 -8q-12 -18 -16.5 -39.5t-6 -44t-3 -45.5t-6.5 -45q5 -14 1.5 -28
t-5.5 -28q-1 -14 -1.5 -25.5t-2.5 -22.5q-2 -16 -2.5 -35.5t-0.5 -40.5t-1.5 -42t-5.5 -40q3 -41 1.5 -84t11.5 -85q6 -7 10.5 -14.5t16.5 -8.5q8 6 19.5 7.5t21.5 4.5z" />
    <glyph glyph-name="otilde" unicode="&#xf5;" 
d="M328 810q2 -8 -3 -12.5t-10 -8.5l-10 -10t-11 -8t-15 -9.5t-16 -7.5q-5 -1 -12.5 0t-12.5 0q-8 -1 -21 3t-27.5 8.5t-28.5 7.5t-24 1q-9 -7 -16 -11t-14 -7t-15 -4.5t-20 -4.5q-4 3 -7.5 6t-5.5 8q-1 5 -5 9t-2 7q-2 5 2.5 6.5t2.5 6.5q7 10 10 14t7.5 5.5t14 3t30.5 5.5
q15 -1 28.5 -3.5t27.5 -5.5t29.5 -5t33.5 -1q7 0 10 5t7 9.5t12 7.5t26 0q21 -5 35 -15zM331 676q7 -33 7 -69t-3 -71.5t-7 -70.5t-7 -67q-2 -5 2 -4.5t3 -4.5q-8 -26 -7 -55t-1 -57q0 -7 -2.5 -13t-2.5 -12q0 -37 4 -73.5t9 -72.5q-5 -16 -6.5 -31.5t-8.5 -27.5
q-4 -7 -11 -16.5t-13 -13.5q-13 -9 -28 -8t-32 -1q-5 0 -10.5 -3t-10.5 -5q-2 0 -6 1t-7 1q-21 -2 -41.5 -3t-41.5 3q-8 2 -15 2t-11 1q-3 1 -5.5 4t-6.5 4q-2 1 -5.5 0t-5.5 0q-4 2 -13.5 8.5t-14.5 9.5q-10 9 -16 23.5t-1 28.5q-3 5 -6.5 10t-5.5 10q3 49 6.5 104.5
t3.5 108.5q0 2 -1.5 3t-1.5 3q0 14 3 29t3 31q1 11 0 25t0 30q2 47 7 91.5t11 86.5q3 20 10 42t14 34q19 30 53 39t79 7q14 -1 28.5 -6t26.5 -6q5 0 9 1.5t8 0.5q3 -1 7.5 -3.5t10.5 -4.5q5 -2 11.5 -2t10.5 -2q11 -5 15.5 -17t12.5 -22zM204 676q-5 0 -8.5 -2t-7.5 -1
q-7 2 -12.5 5.5t-11.5 2.5q-13 -1 -19 -12t-14 -20q-1 -5 0.5 -7t1.5 -6q-8 -10 -8 -20t-2 -21q-2 -14 -6 -28.5t-4 -28.5q0 -20 -2.5 -36.5t-3.5 -33.5q-1 -5 1 -10t2 -11q0 -15 -2.5 -30.5t-0.5 -29.5q2 -12 2.5 -23t-4.5 -21q4 -33 4 -68t-1.5 -70.5t-1.5 -71t6 -69.5
q8 -10 11.5 -20.5t14.5 -13.5q8 -3 19 -2t21.5 4t19.5 7t13 7q21 18 24 48.5t-0.5 65l-7 69t5.5 59.5q-4 25 0 50t7 51q9 77 14 151t-9 140q-10 -6 -19.5 -4.5t-21.5 0.5z" />
    <glyph glyph-name="asciitilde" unicode="~" horiz-adv-x="283" 
 />
    <glyph glyph-name="equal" unicode="=" horiz-adv-x="317" 
d="M312 278q-14 -6 -18 -22t-11 -30q-25 -2 -54.5 -4l-59 -4t-58 -4t-50.5 -2q-14 -4 -26.5 2.5t-24.5 11.5q-7 13 -1 23t13 16q5 -2 15.5 0t13.5 7q2 -2 18.5 -2t40.5 1.5t52 3.5t53 4t44.5 3t25.5 1q5 1 5 -2.5t5 -2.5q5 -1 9 1.5t8 -1.5zM303 403q-2 -5 -6.5 -9.5
t-7.5 -9.5t-3.5 -10t4.5 -11q-10 -7 -15 -21q-20 -3 -43.5 -4t-48.5 -1.5t-49.5 -2t-46.5 -7.5q-13 0 -27.5 -1t-26.5 1t-20 10t-6 26q8 9 20.5 14t26.5 8.5t27.5 6.5t24.5 8q21 -2 38.5 -1t36.5 3q26 2 56 0.5t66 0.5z" />
    <glyph glyph-name="less" unicode="&#x3c;" horiz-adv-x="257" 
d="M186 465q2 -4 7.5 -7.5t10 -8t6 -10.5t-2.5 -15q-14 -6 -26 -24.5t-25 -36.5t-25 -32.5t-21 -28.5q-1 -9 8.5 -21.5t24.5 -27.5t32.5 -31t32 -30.5t24.5 -27.5t10 -21q-5 -5 -7.5 -10t-7.5 -10q-10 -7 -13 -8.5t-17 1.5q-8 7 -22.5 21t-25.5 19q-6 7 -20.5 21.5l-31 31
t-32 31t-23.5 20.5q-4 4 -10.5 7.5t-11.5 8t-8 10.5t-1 15q12 13 20 23t15 19t14 18.5t16 21.5q17 23 35 44t25 32q25 10 50 6z" />
    <glyph glyph-name="greater" unicode="&#x3e;" horiz-adv-x="266" 
d="M1 147q3 5 3 7.5t-1 8.5q9 13 32.5 30.5t50 35.5t49.5 35t32 31q-8 4 -26.5 18t-39 30.5t-38 33t-23.5 26.5q-5 8 -13.5 14.5t-13.5 12.5t-4.5 12.5t13.5 15.5q15 1 26 3t25 -3q7 -12 29 -29.5t46.5 -35.5t46 -35t29.5 -29q14 -8 23 -19.5t11.5 -22.5t-2 -20t-18.5 -13
q-2 -2 -8 -6.5t-13.5 -10.5t-15.5 -12t-14 -10q-5 -7 -16 -15.5t-23.5 -17.5t-24.5 -16.5t-19 -12.5q-3 -17 -16.5 -22.5t-30.5 -4t-33 7.5t-23 13z" />
    <glyph glyph-name="period" unicode="." horiz-adv-x="107" 
d="M99 49q3 -13 0.5 -20.5t2.5 -18.5q-12 -1 -25 -6.5t-25 -9.5t-23 -2.5t-18 15.5q-2 2 -5 1.5t-5 1.5q7 5 8.5 14.5t3.5 19.5q8 9 18.5 11.5t22 2t23.5 -3.5t22 -5z" />
    <glyph glyph-name="comma" unicode="," horiz-adv-x="85" 
d="M82 36q0 -16 -1.5 -25t-5.5 -15.5t-10.5 -12t-15.5 -13.5q-10 0 -20 -5t-20 -8.5t-18.5 -3t-14.5 11.5q5 10 13.5 15t12.5 16q0 3 -2.5 3t-2.5 2q6 7 8.5 12.5t4 11t4 11.5t8.5 13q15 0 32 -2.5t28 -10.5z" />
    <glyph glyph-name="semicolon" unicode=";" horiz-adv-x="97" 
d="M76 33q-1 -21 0 -42.5t-10 -32.5q-10 -2 -19.5 -8t-18.5 -11t-19 -7t-21 5q1 9 5.5 17t9.5 16.5t9 17.5t4 20q-1 9 -3 18t4 15q6 5 14 5.5t16.5 -1.5t16 -5.5t12.5 -6.5zM89 189q4 -11 3 -26.5t-5 -16.5q-11 -13 -31.5 -9.5t-46.5 8.5q-10 19 -4 32.5t20.5 20t32.5 5
t31 -13.5z" />
    <glyph glyph-name="colon" unicode=":" horiz-adv-x="94" 
d="M85 58q-5 -13 -2 -26.5t-1 -23.5q-10 0 -19.5 -3.5t-18.5 -6.5t-17 -2.5t-15 7.5q-3 3 -4.5 13.5t-0.5 21.5t4.5 21.5t10.5 13.5q12 -1 31 -4t32 -11zM88 216q-1 -8 -4 -14t-5 -12t-2.5 -12t3.5 -14q-11 -1 -17 -6.5t-14 -9.5q-47 -5 -52 27q-1 7 1.5 13.5t6 13t6.5 12.5
t4 12q16 7 38.5 4t34.5 -14z" />
    <glyph glyph-name="quotesingle" unicode="'" horiz-adv-x="80" 
d="M74 741q6 -56 -16 -99q-6 -2 -15 -9t-18 -12.5t-16.5 -6.5t-10.5 10q-2 6 0.5 10.5t6 8t6.5 8t3 10.5q0 3 -2.5 4t-2.5 4q5 10 6.5 20.5t2 20.5l1 20t5.5 19q11 2 25.5 1t24.5 -9z" />
    <glyph glyph-name="Agrave" unicode="&#xc0;" horiz-adv-x="322" 
d="M159 750q-17 -2 -34 5.5t-32 18t-26.5 20.5t-16.5 14q1 16 8 23.5t14.5 10t14.5 2t8 -0.5q20 -16 45 -26.5t47 -24.5q4 -16 -5.5 -26.5t-22.5 -15.5zM201 20q7 32 10 68.5t3.5 74t0.5 74t2 68.5q-12 13 -32.5 9.5t-39.5 -6.5q-16 -2 -31.5 -2.5t-26.5 -8.5
q3 -38 1.5 -72.5t-4 -69t-3.5 -69t3 -70.5q-8 -2 -18.5 -6t-21 -6.5t-20.5 -1t-17 11.5q-4 6 -3.5 14t0.5 18q2 65 1.5 127.5t0.5 120.5q0 14 -1 29t-1 31q1 53 5.5 100.5t7.5 95.5q1 11 2.5 20t2.5 23q1 24 4.5 50t11.5 45.5t22 29.5t37 3q18 17 45 11q8 -2 12.5 -2
t12.5 -1q24 -2 44.5 -16t39.5 -26q5 -16 15 -27t18 -24q8 -29 12.5 -60.5t6.5 -70.5q1 -25 -2 -51t-3 -52q0 -14 2.5 -27.5t0.5 -27.5q0 -4 -2 -8t-2 -8q-1 -9 0.5 -18t0.5 -18q-1 -12 -4 -24.5t-4 -24.5q0 -6 1 -12t1 -12q-1 -10 -4.5 -19.5t-3.5 -19.5q-3 -42 -1 -81.5
t1 -77.5q-1 -8 -9.5 -9.5t-16.5 -3.5q-6 -2 -12 -5.5t-11 -4.5q-11 -1 -20 5t-14 14zM144 659q-8 -6 -12.5 -15t-12.5 -16q-5 -17 -6 -33t-3 -32q-2 -13 -6.5 -25.5t-6.5 -26.5q-1 -2 0.5 -5t0.5 -6q0 -5 -2 -10t-3 -10q-4 -32 -3 -64.5t-3 -65.5q16 -3 31.5 -2.5t31 3
t31.5 4.5t34 2q6 25 5 52.5t-5 56.5t-8.5 60t-7.5 62q-2 14 -3 34t-7 36q-20 6 -45 1z" />
    <glyph glyph-name="Aacute" unicode="&#xc1;" horiz-adv-x="327" 
d="M196 836q10 -9 11 -18t-2 -16q-20 -11 -41.5 -28t-39.5 -25q-9 -4 -17 -2t-15 7t-12 12.5t-8 15.5q10 10 24 17t28 15q10 6 17.5 13t15 12t16.5 5.5t23 -8.5zM201 20q7 32 10 68.5t3.5 74t0.5 74t2 68.5q-12 13 -32.5 9.5t-39.5 -6.5q-16 -2 -31.5 -2.5t-26.5 -8.5
q3 -38 1.5 -72.5t-4 -69t-3.5 -69t3 -70.5q-8 -2 -18.5 -6t-21 -6.5t-20.5 -1t-17 11.5q-4 6 -3.5 14t0.5 18q2 65 1.5 127.5t0.5 120.5q0 14 -1 29t-1 31q1 53 5.5 100.5t7.5 95.5q1 11 2.5 20t2.5 23q1 24 4.5 50t11.5 45.5t22 29.5t37 3q18 17 45 11q8 -2 12.5 -2
t12.5 -1q24 -2 44.5 -16t39.5 -26q5 -16 15 -27t18 -24q8 -29 12.5 -60.5t6.5 -70.5q1 -25 -2 -51t-3 -52q0 -14 2.5 -27.5t0.5 -27.5q0 -4 -2 -8t-2 -8q-1 -9 0.5 -18t0.5 -18q-1 -12 -4 -24.5t-4 -24.5q0 -6 1 -12t1 -12q-1 -10 -4.5 -19.5t-3.5 -19.5q-3 -42 -1 -81.5
t1 -77.5q-1 -8 -9.5 -9.5t-16.5 -3.5q-6 -2 -12 -5.5t-11 -4.5q-11 -1 -20 5t-14 14zM144 659q-8 -6 -12.5 -15t-12.5 -16q-5 -17 -6 -33t-3 -32q-2 -13 -6.5 -25.5t-6.5 -26.5q-1 -2 0.5 -5t0.5 -6q0 -5 -2 -10t-3 -10q-4 -32 -3 -64.5t-3 -65.5q16 -3 31.5 -2.5t31 3
t31.5 4.5t34 2q6 25 5 52.5t-5 56.5t-8.5 60t-7.5 62q-2 14 -3 34t-7 36q-20 6 -45 1z" />
    <glyph glyph-name="Eacute" unicode="&#xc9;" horiz-adv-x="277" 
d="M196 836q10 -9 11 -18t-2 -16q-20 -11 -41.5 -28t-39.5 -25q-9 -4 -17 -2t-15 7t-12 12.5t-8 15.5q10 10 24 17t28 15q10 6 17.5 13t15 12t16.5 5.5t23 -8.5zM263 713q-4 -8 -10 -14.5t-6 -19.5q-8 -10 -17 -4t-22 8q-24 3 -48.5 -1t-37.5 -16q8 -60 7 -124t1 -132
q11 -4 29 -4.5t37 -0.5t37 -1.5t29 -8.5q-6 -4 -10.5 -10t-8 -12.5t-8.5 -11t-12 -5.5q-5 -1 -8.5 1t-8.5 4q-21 5 -42 0t-39 -13q-4 -13 -3 -25.5t0 -23.5q-1 -4 -3.5 -7.5t-3.5 -7.5q0 -2 1.5 -4.5t1.5 -4.5q1 -12 -1.5 -24.5t-4.5 -25t-2.5 -24t4.5 -21.5
q-4 -10 -4.5 -22t-0.5 -23q-1 -8 0.5 -16.5t0.5 -16.5q0 -8 -1.5 -16t3.5 -16q35 1 67 0.5t55 -15.5q-3 -1 -2.5 -4.5t1.5 -7t1.5 -6t-2.5 -1.5q-12 -13 -33 -15.5t-45.5 -1t-49.5 3t-44 -3.5q-17 4 -30 10.5t-22 17.5q-7 54 -3 114t9 115q3 25 3 48t4 50q1 5 2.5 7.5
t2.5 6.5q4 52 4 116.5t-6 121.5q-1 7 1 14t1 15q-1 7 -1 16t-2 18q-2 11 -2.5 21t15.5 13q14 3 32.5 0.5t33.5 -1.5q19 0 40.5 3t44.5 1q20 -1 41 -2t35 -11z" />
    <glyph glyph-name="Iacute" unicode="&#xcd;" horiz-adv-x="147" 
d="M155 836q10 -9 11 -18t-2 -16q-20 -11 -41.5 -28t-39.5 -25q-9 -4 -17 -2t-15 7t-12 12.5t-8 15.5q10 10 24 17t28 15q10 6 17.5 13t15 12t16.5 5.5t23 -8.5zM117 731q0 -12 1 -32.5t2 -32.5q2 -26 3 -55t1 -59q0 -11 3 -22t3 -22q0 -23 0.5 -49.5t-3.5 -49.5
q-2 -13 -3 -28t-2 -31t-3 -31t-7 -28q2 -10 3.5 -21t-3.5 -17q2 -27 -0.5 -54t-4.5 -55q-2 -29 1 -58t1 -62q-8 -5 -17.5 -4t-18.5 -1q-8 -2 -12 -7t-10 -7q-30 -12 -51 21q6 45 7 95.5t8 104.5q-4 18 -1 35t4 36q6 104 8.5 207.5t-1.5 200.5q7 9 18.5 15t24.5 9t26 3.5
t23 -1.5z" />
    <glyph glyph-name="Oacute" unicode="&#xd3;" 
d="M271 853q10 -9 11 -18t-2 -16q-20 -11 -41.5 -28t-39.5 -25q-9 -4 -17 -2t-15 7t-12 12.5t-8 15.5q10 10 24 17t28 15q10 6 17.5 13t15 12t16.5 5.5t23 -8.5zM318 158q3 -6 2 -12t-2.5 -12t-2 -11t2.5 -9q-6 -17 -12.5 -33t-16.5 -32q-8 -4 -16.5 -7.5t-19.5 -8.5
q-7 -4 -11.5 -9t-9.5 -7q-24 -14 -60.5 -18t-72 2.5t-63.5 24.5t-35 49q-4 17 -3.5 41.5t2.5 43.5q2 45 5.5 94t10.5 88q11 57 18.5 113t12.5 112q1 13 0.5 25t1.5 24q3 23 9.5 44t11.5 42q8 8 14 17.5t17 15.5q15 4 28 6.5t28 3.5q6 0 12 -2.5t13 -2.5q20 -1 38 1.5
t38 -4.5q9 -4 23.5 -13t20.5 -17t11.5 -23.5t11.5 -23.5q5 -8 3.5 -24.5l-2.5 -27.5q0 -8 3 -14.5t2 -14.5q0 -4 -2 -8t-3 -8q-1 -11 2 -21.5t3 -21.5q2 -21 -2 -41t-3 -35q1 -8 4 -15.5t3 -15.5q0 -19 -1.5 -38t-1.5 -38q0 -6 2 -12.5t3 -12.5q0 -11 -2.5 -23.5t-2.5 -24.5
q0 -10 1 -19.5t0 -19.5q0 -7 -1.5 -14t-3.5 -14q-2 -11 -2.5 -21t-5.5 -18zM185 56q21 31 28.5 71.5t13.5 77.5q5 28 6 57l2 58q1 20 1 45.5t-2 45.5q-1 5 1 9.5t2 8.5q-1 42 -1.5 83.5t-1.5 80.5q-1 26 -4 50.5t-14 47.5q-2 0 -2.5 1t-2.5 1q-11 -9 -25.5 -13t-31.5 -8
q-12 -18 -16.5 -39.5t-6 -44t-3 -45.5t-6.5 -45q5 -14 1.5 -28t-5.5 -28q-1 -14 -1.5 -25.5t-2.5 -22.5q-2 -16 -2.5 -35.5t-0.5 -40.5t-1.5 -42t-5.5 -40q3 -41 1.5 -84t11.5 -85q6 -7 10.5 -14.5t16.5 -8.5q8 6 19.5 7.5t21.5 4.5z" />
    <glyph glyph-name="Uacute" unicode="&#xda;" horiz-adv-x="369" 
d="M259 836q10 -9 11 -18t-2 -16q-20 -11 -41.5 -28t-39.5 -25q-9 -4 -17 -2t-15 7t-12 12.5t-8 15.5q10 10 24 17t28 15q10 6 17.5 13t15 12t16.5 5.5t23 -8.5zM231 726q6 13 20 16.5t30.5 2t33 -5.5t28.5 -6q2 -8 1.5 -18.5t-3.5 -15.5q4 -12 2.5 -24t-0.5 -26
q1 -24 4.5 -49.5t3.5 -53.5q0 -18 -3.5 -36.5t-4.5 -36.5t-3 -35.5t0 -35.5q2 -53 1 -108.5t-11 -108.5q-1 -10 -7 -18q0 -15 -4 -30t-10.5 -29.5t-13 -28t-10.5 -26.5q-8 -4 -13.5 -11t-12.5 -13q-23 -8 -46 -19t-50 -12q-5 -1 -11.5 0.5t-14.5 2.5q-13 1 -27.5 1.5t-28 3
t-25.5 7.5t-19 14q-8 4 -12 5q-6 11 -11.5 24t-11.5 24q-2 36 -0.5 68.5t5.5 64t8.5 62.5t8.5 63q-2 26 1 53t5 56q2 16 0.5 32t-0.5 34q2 32 3 65.5t-6 64.5q4 10 2.5 23t-3 25t0 22.5t10.5 16.5q20 2 39.5 2.5t37.5 -10.5q1 -5 -2.5 -5t-4.5 -2q0 -40 1 -79l2 -78t0 -79.5
t-4 -84.5q1 -6 0.5 -6.5t2.5 -4.5q0 -2 1.5 -4.5t1.5 -4.5q-4 -38 0 -82.5t2 -88.5q-1 -11 -4.5 -23t-3.5 -23q-1 -14 2 -27t-2 -30q4 -6 5.5 -12.5t2 -13t2 -12.5t6.5 -12q8 -9 20 -10.5t25 2.5t24 12t17 16q5 15 11 31.5t11 33.5t7.5 33.5t0.5 31.5q8 28 8.5 61t0.5 68
q1 26 1 58.5t-2 62.5q3 19 3.5 43.5t-1 51.5t-4 55t-5.5 53q0 4 1 7t1 7q-1 12 -4 21.5t2 18.5q-3 4 -3.5 10t-4.5 9z" />
    <glyph glyph-name="uacute" unicode="&#xfa;" 
d="M256 836q10 -9 11 -18t-2 -16q-20 -11 -41.5 -28t-39.5 -25q-9 -4 -17 -2t-15 7t-12 12.5t-8 15.5q10 10 24 17t28 15q10 6 17.5 13t15 12t16.5 5.5t23 -8.5zM110 731q1 -12 -1 -24t-4 -22.5t-2.5 -21t2.5 -19.5q-4 -18 -2.5 -40.5t0.5 -43.5q0 -20 1.5 -41.5t6.5 -41.5
q-4 -35 -3 -80q1 -20 -1.5 -43.5t-3.5 -48.5q0 -26 0.5 -51.5t-1.5 -51.5q-3 -35 -7.5 -67.5t0.5 -58.5q3 -13 8 -23t15 -16q29 2 56.5 5t52.5 11q14 26 15 58t4 65q1 4 3 8t2 9q1 5 -1 10.5t-2 10.5q-2 24 -1 50.5t-1 50.5q-6 70 -11 140t-15 128q2 32 -0.5 66t-4.5 67
q8 9 19 9.5t21 -1.5q-2 0 2.5 -0.5t8.5 -2.5q23 -7 47 -8q2 -6 -1.5 -17t4.5 -16q-7 -8 -4 -16.5t4 -17.5q1 -3 -1 -7t-2 -8q-1 -9 0.5 -18t1.5 -17q-1 -23 -2 -45t0 -45q1 -16 4.5 -32t5.5 -33q2 -18 0.5 -37.5t0.5 -40.5q1 -6 3.5 -12t3.5 -12q2 -11 0.5 -21t-0.5 -21
q3 -32 4 -64.5t-2 -63.5t-11 -61t-24 -58q-8 -2 -10 -7.5t-7 -9.5q-20 -15 -56.5 -19.5t-72.5 -9.5q-9 -1 -18.5 -3.5t-18.5 -1.5q-29 2 -53.5 11t-41.5 27q-14 16 -17.5 37.5t-1.5 53.5q3 43 8.5 91.5t9.5 96.5q6 72 12 134.5t7 130.5q0 17 -0.5 37t-1 39.5t-2 37
t-2.5 31.5q12 15 34.5 13t43.5 -8z" />
    <glyph glyph-name="iacute" unicode="&#xed;" horiz-adv-x="129" 
d="M80 712q7 -15 9 -29.5t3 -29.5t1 -30.5t2 -31.5q1 -11 0.5 -21t-0.5 -21q-1 -24 3 -48t5 -48q0 -14 -2 -28.5t-2 -29.5v-27t-1 -27q-1 -6 1 -11.5t2 -11.5q0 -11 -2.5 -22t-3.5 -22q-2 -14 0 -30.5t0 -30.5q-2 -8 -5 -14t-4 -14q0 -20 2.5 -38.5t-3.5 -36.5
q5 -22 8.5 -46.5t5.5 -42.5q0 -3 -7 -7t-17 -8t-21 -6t-20 0t-13 8.5t-11 12.5q-1 65 -4 130t-4 135q0 24 1.5 48.5t1.5 50.5q0 80 -0.5 160.5t-2.5 161.5q6 8 16 10.5t21 2t22 -3t19 -4.5zM133 836q10 -9 11 -18t-2 -16q-20 -11 -41.5 -28t-39.5 -25q-9 -4 -17 -2t-15 7
t-12 12.5t-8 15.5q10 10 24 17t28 15q10 6 17.5 13t15 12t16.5 5.5t23 -8.5z" />
    <glyph glyph-name="eacute" unicode="&#xe9;" horiz-adv-x="266" 
d="M196 836q10 -9 11 -18t-2 -16q-20 -11 -41.5 -28t-39.5 -25q-9 -4 -17 -2t-15 7t-12 12.5t-8 15.5q10 10 24 17t28 15q10 6 17.5 13t15 12t16.5 5.5t23 -8.5zM238 735q-5 -5 -11 -8t-12 -9q-3 -18 -5 -28.5t-11 -19.5q-35 8 -63.5 5.5t-55.5 -14.5q2 -6 0.5 -11t4.5 -5
q-6 -12 -1 -24.5t6 -25.5q1 -11 -1 -21t0 -21q2 -35 1.5 -71.5t1.5 -65.5q19 -3 38.5 -0.5t39.5 6t40.5 6.5t40.5 3q-2 -7 -7.5 -8.5t-10.5 -4.5q3 -12 0 -20.5t-8.5 -15t-12 -13t-10.5 -13.5q-11 -6 -26.5 -8l-31 -4t-30 -5t-24.5 -12q1 -21 0.5 -45t-1 -49t-2 -49
t-3.5 -44q3 -8 3 -17t-1 -18t-1 -18t4 -16q16 0 33.5 3t36 4.5t36 0.5t33.5 -8q2 -9 8 -12.5t10 -9.5q-3 -8 -7.5 -10t-9 -2.5t-8.5 -1t-7 -3.5q-37 -2 -65 -7.5t-62 -13.5q-9 -2 -16.5 -3t-17.5 -3q-15 -3 -29 -5.5t-22 15.5q7 115 6.5 218t0.5 206q0 36 0.5 73.5t1.5 74.5
q0 26 1.5 55t-3.5 49q-2 4 -4.5 7.5t-2.5 8.5q0 8 4.5 14.5t8.5 13.5q10 1 18.5 3t19.5 0q7 -1 14 -4t13.5 -4.5t13.5 -1t14 6.5q4 0 4.5 -2.5t2.5 -4.5q34 2 65 7t58 0z" />
    <glyph glyph-name="agrave" unicode="&#xe0;" horiz-adv-x="328" 
d="M159 750q-17 -2 -34 5.5t-32 18t-26.5 20.5t-16.5 14q1 16 8 23.5t14.5 10t14.5 2t8 -0.5q20 -16 45 -26.5t47 -24.5q4 -16 -5.5 -26.5t-22.5 -15.5zM309 44q-11 -4 -23 -9t-24 -8t-23.5 -3t-23.5 7q-1 33 1 64t2 69q1 11 3 22.5t1 20.5q-2 13 -2 34.5v41.5
q-2 4 -4.5 6.5t2.5 6.5q-4 5 -15.5 8.5t-25 5t-26 0t-19.5 -6.5q-9 5 -18 -1t-19 -8q-3 -14 0.5 -28.5t5.5 -29.5q2 -12 0.5 -23.5t-0.5 -23.5q1 -5 3 -8.5t2 -7.5q2 -17 1 -35t-1.5 -36t1 -35.5t7.5 -35.5q-6 -5 -13.5 -5t-15.5 -3q-6 -2 -11.5 -6t-11.5 -7.5t-13 -4.5
t-16 3q-5 2 -8 7t-8 10q2 10 2 19t-1 20q0 10 2 21t2 23q-2 51 -2.5 108t-2.5 117q-1 21 -1 39t-0.5 36t-0.5 36.5t-1 40.5q-2 29 -4.5 63.5t-4.5 66.5q-2 33 5 61t26 41q10 7 25.5 10t32.5 3.5t34 -1t30 -4.5q4 -1 8.5 -3t9.5 -3q11 -2 19.5 -1t16.5 -1q4 -1 8.5 -3t9.5 -3
q14 -5 23.5 -11t18.5 -20q11 -18 13.5 -41t2.5 -48.5t-0.5 -50.5t4.5 -47q-2 0 -3.5 -8.5t-1.5 -10.5q1 -11 1.5 -18t1.5 -14.5t1.5 -16.5t0.5 -22q0 -8 2.5 -16.5t3.5 -17.5q1 -8 -1 -15t-1 -14q1 -2 3 -5t2 -5q2 -8 2.5 -17t1.5 -17q1 -42 0 -83q3 -8 3 -16.5t-1 -17.5
t-0.5 -17.5t4.5 -16.5q-5 -8 -3 -15.5t3 -15.5q1 -16 -4.5 -34.5t2.5 -35.5zM183 675q-6 1 -14 -1.5t-17 -6t-18 -6.5t-18 -2q-8 1 -11.5 4.5t-12.5 3.5q-12 -18 -11 -40t1 -45t1.5 -47t-0.5 -47q-1 -14 1 -26.5t3 -25.5q2 -25 4 -47.5t7 -43.5q28 3 60 3.5t62 1.5
q-5 76 -7.5 150.5t-10.5 146.5q-4 3 -5.5 7.5t-3 8.5t-3.5 7.5t-7 4.5z" />
    <glyph glyph-name="aacute" unicode="&#xe1;" horiz-adv-x="327" 
d="M196 836q10 -9 11 -18t-2 -16q-20 -11 -41.5 -28t-39.5 -25q-9 -4 -17 -2t-15 7t-12 12.5t-8 15.5q10 10 24 17t28 15q10 6 17.5 13t15 12t16.5 5.5t23 -8.5zM309 44q-11 -4 -23 -9t-24 -8t-23.5 -3t-23.5 7q-1 33 1 64t2 69q1 11 3 22.5t1 20.5q-2 13 -2 34.5v41.5
q-2 4 -4.5 6.5t2.5 6.5q-4 5 -15.5 8.5t-25 5t-26 0t-19.5 -6.5q-9 5 -18 -1t-19 -8q-3 -14 0.5 -28.5t5.5 -29.5q2 -12 0.5 -23.5t-0.5 -23.5q1 -5 3 -8.5t2 -7.5q2 -17 1 -35t-1.5 -36t1 -35.5t7.5 -35.5q-6 -5 -13.5 -5t-15.5 -3q-6 -2 -11.5 -6t-11.5 -7.5t-13 -4.5
t-16 3q-5 2 -8 7t-8 10q2 10 2 19t-1 20q0 10 2 21t2 23q-2 51 -2.5 108t-2.5 117q-1 21 -1 39t-0.5 36t-0.5 36.5t-1 40.5q-2 29 -4.5 63.5t-4.5 66.5q-2 33 5 61t26 41q10 7 25.5 10t32.5 3.5t34 -1t30 -4.5q4 -1 8.5 -3t9.5 -3q11 -2 19.5 -1t16.5 -1q4 -1 8.5 -3t9.5 -3
q14 -5 23.5 -11t18.5 -20q11 -18 13.5 -41t2.5 -48.5t-0.5 -50.5t4.5 -47q-2 0 -3.5 -8.5t-1.5 -10.5q1 -11 1.5 -18t1.5 -14.5t1.5 -16.5t0.5 -22q0 -8 2.5 -16.5t3.5 -17.5q1 -8 -1 -15t-1 -14q1 -2 3 -5t2 -5q2 -8 2.5 -17t1.5 -17q1 -42 0 -83q3 -8 3 -16.5t-1 -17.5
t-0.5 -17.5t4.5 -16.5q-5 -8 -3 -15.5t3 -15.5q1 -16 -4.5 -34.5t2.5 -35.5zM183 675q-6 1 -14 -1.5t-17 -6t-18 -6.5t-18 -2q-8 1 -11.5 4.5t-12.5 3.5q-12 -18 -11 -40t1 -45t1.5 -47t-0.5 -47q-1 -14 1 -26.5t3 -25.5q2 -25 4 -47.5t7 -43.5q28 3 60 3.5t62 1.5
q-5 76 -7.5 150.5t-10.5 146.5q-4 3 -5.5 7.5t-3 8.5t-3.5 7.5t-7 4.5z" />
    <glyph glyph-name="egrave" unicode="&#xe8;" horiz-adv-x="263" 
d="M112 750q-17 -2 -34 5.5t-32 18t-26.5 20.5t-16.5 14q1 16 8 23.5t14.5 10t14.5 2t8 -0.5q20 -16 45 -26.5t47 -24.5q4 -16 -5.5 -26.5t-22.5 -15.5zM238 735q-5 -5 -11 -8t-12 -9q-3 -18 -5 -28.5t-11 -19.5q-35 8 -63.5 5.5t-55.5 -14.5q2 -6 0.5 -11t4.5 -5
q-6 -12 -1 -24.5t6 -25.5q1 -11 -1 -21t0 -21q2 -35 1.5 -71.5t1.5 -65.5q19 -3 38.5 -0.5t39.5 6t40.5 6.5t40.5 3q-2 -7 -7.5 -8.5t-10.5 -4.5q3 -12 0 -20.5t-8.5 -15t-12 -13t-10.5 -13.5q-11 -6 -26.5 -8l-31 -4t-30 -5t-24.5 -12q1 -21 0.5 -45t-1 -49t-2 -49
t-3.5 -44q3 -8 3 -17t-1 -18t-1 -18t4 -16q16 0 33.5 3t36 4.5t36 0.5t33.5 -8q2 -9 8 -12.5t10 -9.5q-3 -8 -7.5 -10t-9 -2.5t-8.5 -1t-7 -3.5q-37 -2 -65 -7.5t-62 -13.5q-9 -2 -16.5 -3t-17.5 -3q-15 -3 -29 -5.5t-22 15.5q7 115 6.5 218t0.5 206q0 36 0.5 73.5t1.5 74.5
q0 26 1.5 55t-3.5 49q-2 4 -4.5 7.5t-2.5 8.5q0 8 4.5 14.5t8.5 13.5q10 1 18.5 3t19.5 0q7 -1 14 -4t13.5 -4.5t13.5 -1t14 6.5q4 0 4.5 -2.5t2.5 -4.5q34 2 65 7t58 0z" />
    <glyph glyph-name="Egrave" unicode="&#xc8;" horiz-adv-x="282" 
d="M146 750q-17 -2 -34 5.5t-32 18t-26.5 20.5t-16.5 14q1 16 8 23.5t14.5 10t14.5 2t8 -0.5q20 -16 45 -26.5t47 -24.5q4 -16 -5.5 -26.5t-22.5 -15.5zM263 713q-4 -8 -10 -14.5t-6 -19.5q-8 -10 -17 -4t-22 8q-24 3 -48.5 -1t-37.5 -16q8 -60 7 -124t1 -132q11 -4 29 -4.5
t37 -0.5t37 -1.5t29 -8.5q-6 -4 -10.5 -10t-8 -12.5t-8.5 -11t-12 -5.5q-5 -1 -8.5 1t-8.5 4q-21 5 -42 0t-39 -13q-4 -13 -3 -25.5t0 -23.5q-1 -4 -3.5 -7.5t-3.5 -7.5q0 -2 1.5 -4.5t1.5 -4.5q1 -12 -1.5 -24.5t-4.5 -25t-2.5 -24t4.5 -21.5q-4 -10 -4.5 -22t-0.5 -23
q-1 -8 0.5 -16.5t0.5 -16.5q0 -8 -1.5 -16t3.5 -16q35 1 67 0.5t55 -15.5q-3 -1 -2.5 -4.5t1.5 -7t1.5 -6t-2.5 -1.5q-12 -13 -33 -15.5t-45.5 -1t-49.5 3t-44 -3.5q-17 4 -30 10.5t-22 17.5q-7 54 -3 114t9 115q3 25 3 48t4 50q1 5 2.5 7.5t2.5 6.5q4 52 4 116.5t-6 121.5
q-1 7 1 14t1 15q-1 7 -1 16t-2 18q-2 11 -2.5 21t15.5 13q14 3 32.5 0.5t33.5 -1.5q19 0 40.5 3t44.5 1q20 -1 41 -2t35 -11z" />
    <glyph glyph-name="Igrave" unicode="&#xcc;" horiz-adv-x="144" 
d="M74 750q-17 -2 -34 5.5t-32 18t-26.5 20.5t-16.5 14q1 16 8 23.5t14.5 10t14.5 2t8 -0.5q20 -16 45 -26.5t47 -24.5q4 -16 -5.5 -26.5t-22.5 -15.5zM117 731q0 -12 1 -32.5t2 -32.5q2 -26 3 -55t1 -59q0 -11 3 -22t3 -22q0 -23 0.5 -49.5t-3.5 -49.5q-2 -13 -3 -28
t-2 -31t-3 -31t-7 -28q2 -10 3.5 -21t-3.5 -17q2 -27 -0.5 -54t-4.5 -55q-2 -29 1 -58t1 -62q-8 -5 -17.5 -4t-18.5 -1q-8 -2 -12 -7t-10 -7q-30 -12 -51 21q6 45 7 95.5t8 104.5q-4 18 -1 35t4 36q6 104 8.5 207.5t-1.5 200.5q7 9 18.5 15t24.5 9t26 3.5t23 -1.5z" />
    <glyph glyph-name="igrave" unicode="&#xec;" horiz-adv-x="116" 
d="M80 712q7 -15 9 -29.5t3 -29.5t1 -30.5t2 -31.5q1 -11 0.5 -21t-0.5 -21q-1 -24 3 -48t5 -48q0 -14 -2 -28.5t-2 -29.5v-27t-1 -27q-1 -6 1 -11.5t2 -11.5q0 -11 -2.5 -22t-3.5 -22q-2 -14 0 -30.5t0 -30.5q-2 -8 -5 -14t-4 -14q0 -20 2.5 -38.5t-3.5 -36.5
q5 -22 8.5 -46.5t5.5 -42.5q0 -3 -7 -7t-17 -8t-21 -6t-20 0t-13 8.5t-11 12.5q-1 65 -4 130t-4 135q0 24 1.5 48.5t1.5 50.5q0 80 -0.5 160.5t-2.5 161.5q6 8 16 10.5t21 2t22 -3t19 -4.5zM43 750q-17 -2 -34 5.5t-32 18t-26.5 20.5t-16.5 14q1 16 8 23.5t14.5 10t14.5 2
t8 -0.5q20 -16 45 -26.5t47 -24.5q4 -16 -5.5 -26.5t-22.5 -15.5z" />
    <glyph glyph-name="Ugrave" unicode="&#xd9;" horiz-adv-x="373" 
d="M175 750q-17 -2 -34 5.5t-32 18t-26.5 20.5t-16.5 14q1 16 8 23.5t14.5 10t14.5 2t8 -0.5q20 -16 45 -26.5t47 -24.5q4 -16 -5.5 -26.5t-22.5 -15.5zM231 726q6 13 20 16.5t30.5 2t33 -5.5t28.5 -6q2 -8 1.5 -18.5t-3.5 -15.5q4 -12 2.5 -24t-0.5 -26q1 -24 4.5 -49.5
t3.5 -53.5q0 -18 -3.5 -36.5t-4.5 -36.5t-3 -35.5t0 -35.5q2 -53 1 -108.5t-11 -108.5q-1 -10 -7 -18q0 -15 -4 -30t-10.5 -29.5t-13 -28t-10.5 -26.5q-8 -4 -13.5 -11t-12.5 -13q-23 -8 -46 -19t-50 -12q-5 -1 -11.5 0.5t-14.5 2.5q-13 1 -27.5 1.5t-28 3t-25.5 7.5t-19 14
q-8 4 -12 5q-6 11 -11.5 24t-11.5 24q-2 36 -0.5 68.5t5.5 64t8.5 62.5t8.5 63q-2 26 1 53t5 56q2 16 0.5 32t-0.5 34q2 32 3 65.5t-6 64.5q4 10 2.5 23t-3 25t0 22.5t10.5 16.5q20 2 39.5 2.5t37.5 -10.5q1 -5 -2.5 -5t-4.5 -2q0 -40 1 -79l2 -78t0 -79.5t-4 -84.5
q1 -6 0.5 -6.5t2.5 -4.5q0 -2 1.5 -4.5t1.5 -4.5q-4 -38 0 -82.5t2 -88.5q-1 -11 -4.5 -23t-3.5 -23q-1 -14 2 -27t-2 -30q4 -6 5.5 -12.5t2 -13t2 -12.5t6.5 -12q8 -9 20 -10.5t25 2.5t24 12t17 16q5 15 11 31.5t11 33.5t7.5 33.5t0.5 31.5q8 28 8.5 61t0.5 68q1 26 1 58.5
t-2 62.5q3 19 3.5 43.5t-1 51.5t-4 55t-5.5 53q0 4 1 7t1 7q-1 12 -4 21.5t2 18.5q-3 4 -3.5 10t-4.5 9z" />
    <glyph glyph-name="ugrave" unicode="&#xf9;" horiz-adv-x="352" 
d="M175 750q-17 -2 -34 5.5t-32 18t-26.5 20.5t-16.5 14q1 16 8 23.5t14.5 10t14.5 2t8 -0.5q20 -16 45 -26.5t47 -24.5q4 -16 -5.5 -26.5t-22.5 -15.5zM110 731q1 -12 -1 -24t-4 -22.5t-2.5 -21t2.5 -19.5q-4 -18 -2.5 -40.5t0.5 -43.5q0 -20 1.5 -41.5t6.5 -41.5
q-4 -35 -3 -80q1 -20 -1.5 -43.5t-3.5 -48.5q0 -26 0.5 -51.5t-1.5 -51.5q-3 -35 -7.5 -67.5t0.5 -58.5q3 -13 8 -23t15 -16q29 2 56.5 5t52.5 11q14 26 15 58t4 65q1 4 3 8t2 9q1 5 -1 10.5t-2 10.5q-2 24 -1 50.5t-1 50.5q-6 70 -11 140t-15 128q2 32 -0.5 66t-4.5 67
q8 9 19 9.5t21 -1.5q-2 0 2.5 -0.5t8.5 -2.5q23 -7 47 -8q2 -6 -1.5 -17t4.5 -16q-7 -8 -4 -16.5t4 -17.5q1 -3 -1 -7t-2 -8q-1 -9 0.5 -18t1.5 -17q-1 -23 -2 -45t0 -45q1 -16 4.5 -32t5.5 -33q2 -18 0.5 -37.5t0.5 -40.5q1 -6 3.5 -12t3.5 -12q2 -11 0.5 -21t-0.5 -21
q3 -32 4 -64.5t-2 -63.5t-11 -61t-24 -58q-8 -2 -10 -7.5t-7 -9.5q-20 -15 -56.5 -19.5t-72.5 -9.5q-9 -1 -18.5 -3.5t-18.5 -1.5q-29 2 -53.5 11t-41.5 27q-14 16 -17.5 37.5t-1.5 53.5q3 43 8.5 91.5t9.5 96.5q6 72 12 134.5t7 130.5q0 17 -0.5 37t-1 39.5t-2 37
t-2.5 31.5q12 15 34.5 13t43.5 -8z" />
    <glyph glyph-name="bullet" unicode="&#x2022;" horiz-adv-x="101" 
d="M53 338q8 3 12.5 3.5t7.5 0l6 -1t8 0.5q-2 -8 -0.5 -18t2 -20.5t0 -20.5t-5.5 -17q-7 -5 -18 -2.5t-21 0.5q-4 -1 -10.5 -3.5t-13 -3.5t-11.5 1t-6 11q-5 2 -7.5 8.5t-7.5 8.5q3 9 0.5 15t-5 11t-3.5 10.5t4 14.5q19 2 34 3t35 -1z" />
    <glyph glyph-name="Udieresis" unicode="&#xdc;" horiz-adv-x="362" 
d="M139 830q4 -18 0 -35t-18 -29q-10 -6 -19.5 -2t-19.5 9q0 9 -2.5 18.5t-4 18.5t-0.5 17t7 14q5 4 13 5t16.5 -1.5t16 -6.5t11.5 -8zM269 827q2 -20 -1 -36t-14 -26q-9 -5 -19 -5.5t-21 8.5l-6 13.5t-3 7.5t-1.5 5t-1.5 7q-2 19 5 30t17.5 13.5t23 -2t21.5 -15.5zM231 726
q6 13 20 16.5t30.5 2t33 -5.5t28.5 -6q2 -8 1.5 -18.5t-3.5 -15.5q4 -12 2.5 -24t-0.5 -26q1 -24 4.5 -49.5t3.5 -53.5q0 -18 -3.5 -36.5t-4.5 -36.5t-3 -35.5t0 -35.5q2 -53 1 -108.5t-11 -108.5q-1 -10 -7 -18q0 -15 -4 -30t-10.5 -29.5t-13 -28t-10.5 -26.5
q-8 -4 -13.5 -11t-12.5 -13q-23 -8 -46 -19t-50 -12q-5 -1 -11.5 0.5t-14.5 2.5q-13 1 -27.5 1.5t-28 3t-25.5 7.5t-19 14q-8 4 -12 5q-6 11 -11.5 24t-11.5 24q-2 36 -0.5 68.5t5.5 64t8.5 62.5t8.5 63q-2 26 1 53t5 56q2 16 0.5 32t-0.5 34q2 32 3 65.5t-6 64.5
q4 10 2.5 23t-3 25t0 22.5t10.5 16.5q20 2 39.5 2.5t37.5 -10.5q1 -5 -2.5 -5t-4.5 -2q0 -40 1 -79l2 -78t0 -79.5t-4 -84.5q1 -6 0.5 -6.5t2.5 -4.5q0 -2 1.5 -4.5t1.5 -4.5q-4 -38 0 -82.5t2 -88.5q-1 -11 -4.5 -23t-3.5 -23q-1 -14 2 -27t-2 -30q4 -6 5.5 -12.5t2 -13
t2 -12.5t6.5 -12q8 -9 20 -10.5t25 2.5t24 12t17 16q5 15 11 31.5t11 33.5t7.5 33.5t0.5 31.5q8 28 8.5 61t0.5 68q1 26 1 58.5t-2 62.5q3 19 3.5 43.5t-1 51.5t-4 55t-5.5 53q0 4 1 7t1 7q-1 12 -4 21.5t2 18.5q-3 4 -3.5 10t-4.5 9z" />
    <glyph glyph-name="udieresis" unicode="&#xfc;" horiz-adv-x="352" 
d="M139 830q4 -18 0 -35t-18 -29q-10 -6 -19.5 -2t-19.5 9q0 9 -2.5 18.5t-4 18.5t-0.5 17t7 14q5 4 13 5t16.5 -1.5t16 -6.5t11.5 -8zM269 827q2 -20 -1 -36t-14 -26q-9 -5 -19 -5.5t-21 8.5l-6 13.5t-3 7.5t-1.5 5t-1.5 7q-2 19 5 30t17.5 13.5t23 -2t21.5 -15.5zM110 731
q1 -12 -1 -24t-4 -22.5t-2.5 -21t2.5 -19.5q-4 -18 -2.5 -40.5t0.5 -43.5q0 -20 1.5 -41.5t6.5 -41.5q-4 -35 -3 -80q1 -20 -1.5 -43.5t-3.5 -48.5q0 -26 0.5 -51.5t-1.5 -51.5q-3 -35 -7.5 -67.5t0.5 -58.5q3 -13 8 -23t15 -16q29 2 56.5 5t52.5 11q14 26 15 58t4 65
q1 4 3 8t2 9q1 5 -1 10.5t-2 10.5q-2 24 -1 50.5t-1 50.5q-6 70 -11 140t-15 128q2 32 -0.5 66t-4.5 67q8 9 19 9.5t21 -1.5q-2 0 2.5 -0.5t8.5 -2.5q23 -7 47 -8q2 -6 -1.5 -17t4.5 -16q-7 -8 -4 -16.5t4 -17.5q1 -3 -1 -7t-2 -8q-1 -9 0.5 -18t1.5 -17q-1 -23 -2 -45
t0 -45q1 -16 4.5 -32t5.5 -33q2 -18 0.5 -37.5t0.5 -40.5q1 -6 3.5 -12t3.5 -12q2 -11 0.5 -21t-0.5 -21q3 -32 4 -64.5t-2 -63.5t-11 -61t-24 -58q-8 -2 -10 -7.5t-7 -9.5q-20 -15 -56.5 -19.5t-72.5 -9.5q-9 -1 -18.5 -3.5t-18.5 -1.5q-29 2 -53.5 11t-41.5 27
q-14 16 -17.5 37.5t-1.5 53.5q3 43 8.5 91.5t9.5 96.5q6 72 12 134.5t7 130.5q0 17 -0.5 37t-1 39.5t-2 37t-2.5 31.5q12 15 34.5 13t43.5 -8z" />
    <glyph glyph-name="Idieresis" unicode="&#xcf;" horiz-adv-x="153" 
d="M43 830q4 -18 0 -35t-18 -29q-10 -6 -19.5 -2t-19.5 9q0 9 -2.5 18.5t-4 18.5t-0.5 17t7 14q5 4 13 5t16.5 -1.5t16 -6.5t11.5 -8zM173 827q2 -20 -1 -36t-14 -26q-9 -5 -19 -5.5t-21 8.5l-6 13.5t-3 7.5t-1.5 5t-1.5 7q-2 19 5 30t17.5 13.5t23 -2t21.5 -15.5zM117 731
q0 -12 1 -32.5t2 -32.5q2 -26 3 -55t1 -59q0 -11 3 -22t3 -22q0 -23 0.5 -49.5t-3.5 -49.5q-2 -13 -3 -28t-2 -31t-3 -31t-7 -28q2 -10 3.5 -21t-3.5 -17q2 -27 -0.5 -54t-4.5 -55q-2 -29 1 -58t1 -62q-8 -5 -17.5 -4t-18.5 -1q-8 -2 -12 -7t-10 -7q-30 -12 -51 21
q6 45 7 95.5t8 104.5q-4 18 -1 35t4 36q6 104 8.5 207.5t-1.5 200.5q7 9 18.5 15t24.5 9t26 3.5t23 -1.5z" />
    <glyph glyph-name="idieresis" unicode="&#xef;" horiz-adv-x="129" 
d="M80 712q7 -15 9 -29.5t3 -29.5t1 -30.5t2 -31.5q1 -11 0.5 -21t-0.5 -21q-1 -24 3 -48t5 -48q0 -14 -2 -28.5t-2 -29.5v-27t-1 -27q-1 -6 1 -11.5t2 -11.5q0 -11 -2.5 -22t-3.5 -22q-2 -14 0 -30.5t0 -30.5q-2 -8 -5 -14t-4 -14q0 -20 2.5 -38.5t-3.5 -36.5
q5 -22 8.5 -46.5t5.5 -42.5q0 -3 -7 -7t-17 -8t-21 -6t-20 0t-13 8.5t-11 12.5q-1 65 -4 130t-4 135q0 24 1.5 48.5t1.5 50.5q0 80 -0.5 160.5t-2.5 161.5q6 8 16 10.5t21 2t22 -3t19 -4.5zM25 830q4 -18 0 -35t-18 -29q-10 -6 -19.5 -2t-19.5 9q0 9 -2.5 18.5t-4 18.5
t-0.5 17t7 14q5 4 13 5t16.5 -1.5t16 -6.5t11.5 -8zM128 827q2 -20 -1 -36t-14 -26q-9 -5 -19 -5.5t-21 8.5l-6 13.5t-3 7.5t-1.5 5t-1.5 7q-2 19 5 30t17.5 13.5t23 -2t21.5 -15.5z" />
    <glyph glyph-name="Adieresis" unicode="&#xc4;" horiz-adv-x="328" 
d="M105 830q4 -18 0 -35t-18 -29q-10 -6 -19.5 -2t-19.5 9q0 9 -2.5 18.5t-4 18.5t-0.5 17t7 14q5 4 13 5t16.5 -1.5t16 -6.5t11.5 -8zM235 827q2 -20 -1 -36t-14 -26q-9 -5 -19 -5.5t-21 8.5l-6 13.5t-3 7.5t-1.5 5t-1.5 7q-2 19 5 30t17.5 13.5t23 -2t21.5 -15.5zM201 20
q7 32 10 68.5t3.5 74t0.5 74t2 68.5q-12 13 -32.5 9.5t-39.5 -6.5q-16 -2 -31.5 -2.5t-26.5 -8.5q3 -38 1.5 -72.5t-4 -69t-3.5 -69t3 -70.5q-8 -2 -18.5 -6t-21 -6.5t-20.5 -1t-17 11.5q-4 6 -3.5 14t0.5 18q2 65 1.5 127.5t0.5 120.5q0 14 -1 29t-1 31q1 53 5.5 100.5
t7.5 95.5q1 11 2.5 20t2.5 23q1 24 4.5 50t11.5 45.5t22 29.5t37 3q18 17 45 11q8 -2 12.5 -2t12.5 -1q24 -2 44.5 -16t39.5 -26q5 -16 15 -27t18 -24q8 -29 12.5 -60.5t6.5 -70.5q1 -25 -2 -51t-3 -52q0 -14 2.5 -27.5t0.5 -27.5q0 -4 -2 -8t-2 -8q-1 -9 0.5 -18t0.5 -18
q-1 -12 -4 -24.5t-4 -24.5q0 -6 1 -12t1 -12q-1 -10 -4.5 -19.5t-3.5 -19.5q-3 -42 -1 -81.5t1 -77.5q-1 -8 -9.5 -9.5t-16.5 -3.5q-6 -2 -12 -5.5t-11 -4.5q-11 -1 -20 5t-14 14zM144 659q-8 -6 -12.5 -15t-12.5 -16q-5 -17 -6 -33t-3 -32q-2 -13 -6.5 -25.5t-6.5 -26.5
q-1 -2 0.5 -5t0.5 -6q0 -5 -2 -10t-3 -10q-4 -32 -3 -64.5t-3 -65.5q16 -3 31.5 -2.5t31 3t31.5 4.5t34 2q6 25 5 52.5t-5 56.5t-8.5 60t-7.5 62q-2 14 -3 34t-7 36q-20 6 -45 1z" />
    <glyph glyph-name="adieresis" unicode="&#xe4;" horiz-adv-x="327" 
d="M105 830q4 -18 0 -35t-18 -29q-10 -6 -19.5 -2t-19.5 9q0 9 -2.5 18.5t-4 18.5t-0.5 17t7 14q5 4 13 5t16.5 -1.5t16 -6.5t11.5 -8zM235 827q2 -20 -1 -36t-14 -26q-9 -5 -19 -5.5t-21 8.5l-6 13.5t-3 7.5t-1.5 5t-1.5 7q-2 19 5 30t17.5 13.5t23 -2t21.5 -15.5zM309 44
q-11 -4 -23 -9t-24 -8t-23.5 -3t-23.5 7q-1 33 1 64t2 69q1 11 3 22.5t1 20.5q-2 13 -2 34.5v41.5q-2 4 -4.5 6.5t2.5 6.5q-4 5 -15.5 8.5t-25 5t-26 0t-19.5 -6.5q-9 5 -18 -1t-19 -8q-3 -14 0.5 -28.5t5.5 -29.5q2 -12 0.5 -23.5t-0.5 -23.5q1 -5 3 -8.5t2 -7.5
q2 -17 1 -35t-1.5 -36t1 -35.5t7.5 -35.5q-6 -5 -13.5 -5t-15.5 -3q-6 -2 -11.5 -6t-11.5 -7.5t-13 -4.5t-16 3q-5 2 -8 7t-8 10q2 10 2 19t-1 20q0 10 2 21t2 23q-2 51 -2.5 108t-2.5 117q-1 21 -1 39t-0.5 36t-0.5 36.5t-1 40.5q-2 29 -4.5 63.5t-4.5 66.5q-2 33 5 61
t26 41q10 7 25.5 10t32.5 3.5t34 -1t30 -4.5q4 -1 8.5 -3t9.5 -3q11 -2 19.5 -1t16.5 -1q4 -1 8.5 -3t9.5 -3q14 -5 23.5 -11t18.5 -20q11 -18 13.5 -41t2.5 -48.5t-0.5 -50.5t4.5 -47q-2 0 -3.5 -8.5t-1.5 -10.5q1 -11 1.5 -18t1.5 -14.5t1.5 -16.5t0.5 -22q0 -8 2.5 -16.5
t3.5 -17.5q1 -8 -1 -15t-1 -14q1 -2 3 -5t2 -5q2 -8 2.5 -17t1.5 -17q1 -42 0 -83q3 -8 3 -16.5t-1 -17.5t-0.5 -17.5t4.5 -16.5q-5 -8 -3 -15.5t3 -15.5q1 -16 -4.5 -34.5t2.5 -35.5zM183 675q-6 1 -14 -1.5t-17 -6t-18 -6.5t-18 -2q-8 1 -11.5 4.5t-12.5 3.5
q-12 -18 -11 -40t1 -45t1.5 -47t-0.5 -47q-1 -14 1 -26.5t3 -25.5q2 -25 4 -47.5t7 -43.5q28 3 60 3.5t62 1.5q-5 76 -7.5 150.5t-10.5 146.5q-4 3 -5.5 7.5t-3 8.5t-3.5 7.5t-7 4.5z" />
    <glyph glyph-name="Odieresis" unicode="&#xd6;" horiz-adv-x="350" 
d="M141 830q4 -18 0 -35t-18 -29q-10 -6 -19.5 -2t-19.5 9q0 9 -2.5 18.5t-4 18.5t-0.5 17t7 14q5 4 13 5t16.5 -1.5t16 -6.5t11.5 -8zM271 827q2 -20 -1 -36t-14 -26q-9 -5 -19 -5.5t-21 8.5l-6 13.5t-3 7.5t-1.5 5t-1.5 7q-2 19 5 30t17.5 13.5t23 -2t21.5 -15.5zM318 158
q3 -6 2 -12t-2.5 -12t-2 -11t2.5 -9q-6 -17 -12.5 -33t-16.5 -32q-8 -4 -16.5 -7.5t-19.5 -8.5q-7 -4 -11.5 -9t-9.5 -7q-24 -14 -60.5 -18t-72 2.5t-63.5 24.5t-35 49q-4 17 -3.5 41.5t2.5 43.5q2 45 5.5 94t10.5 88q11 57 18.5 113t12.5 112q1 13 0.5 25t1.5 24
q3 23 9.5 44t11.5 42q8 8 14 17.5t17 15.5q15 4 28 6.5t28 3.5q6 0 12 -2.5t13 -2.5q20 -1 38 1.5t38 -4.5q9 -4 23.5 -13t20.5 -17t11.5 -23.5t11.5 -23.5q5 -8 3.5 -24.5l-2.5 -27.5q0 -8 3 -14.5t2 -14.5q0 -4 -2 -8t-3 -8q-1 -11 2 -21.5t3 -21.5q2 -21 -2 -41t-3 -35
q1 -8 4 -15.5t3 -15.5q0 -19 -1.5 -38t-1.5 -38q0 -6 2 -12.5t3 -12.5q0 -11 -2.5 -23.5t-2.5 -24.5q0 -10 1 -19.5t0 -19.5q0 -7 -1.5 -14t-3.5 -14q-2 -11 -2.5 -21t-5.5 -18zM185 56q21 31 28.5 71.5t13.5 77.5q5 28 6 57l2 58q1 20 1 45.5t-2 45.5q-1 5 1 9.5t2 8.5
q-1 42 -1.5 83.5t-1.5 80.5q-1 26 -4 50.5t-14 47.5q-2 0 -2.5 1t-2.5 1q-11 -9 -25.5 -13t-31.5 -8q-12 -18 -16.5 -39.5t-6 -44t-3 -45.5t-6.5 -45q5 -14 1.5 -28t-5.5 -28q-1 -14 -1.5 -25.5t-2.5 -22.5q-2 -16 -2.5 -35.5t-0.5 -40.5t-1.5 -42t-5.5 -40q3 -41 1.5 -84
t11.5 -85q6 -7 10.5 -14.5t16.5 -8.5q8 6 19.5 7.5t21.5 4.5z" />
    <glyph glyph-name="odieresis" unicode="&#xf6;" horiz-adv-x="355" 
d="M146 830q4 -18 0 -35t-18 -29q-10 -6 -19.5 -2t-19.5 9q0 9 -2.5 18.5t-4 18.5t-0.5 17t7 14q5 4 13 5t16.5 -1.5t16 -6.5t11.5 -8zM276 827q2 -20 -1 -36t-14 -26q-9 -5 -19 -5.5t-21 8.5l-6 13.5t-3 7.5t-1.5 5t-1.5 7q-2 19 5 30t17.5 13.5t23 -2t21.5 -15.5zM331 676
q7 -33 7 -69t-3 -71.5t-7 -70.5t-7 -67q-2 -5 2 -4.5t3 -4.5q-8 -26 -7 -55t-1 -57q0 -7 -2.5 -13t-2.5 -12q0 -37 4 -73.5t9 -72.5q-5 -16 -6.5 -31.5t-8.5 -27.5q-4 -7 -11 -16.5t-13 -13.5q-13 -9 -28 -8t-32 -1q-5 0 -10.5 -3t-10.5 -5q-2 0 -6 1t-7 1q-21 -2 -41.5 -3
t-41.5 3q-8 2 -15 2t-11 1q-3 1 -5.5 4t-6.5 4q-2 1 -5.5 0t-5.5 0q-4 2 -13.5 8.5t-14.5 9.5q-10 9 -16 23.5t-1 28.5q-3 5 -6.5 10t-5.5 10q3 49 6.5 104.5t3.5 108.5q0 2 -1.5 3t-1.5 3q0 14 3 29t3 31q1 11 0 25t0 30q2 47 7 91.5t11 86.5q3 20 10 42t14 34q19 30 53 39
t79 7q14 -1 28.5 -6t26.5 -6q5 0 9 1.5t8 0.5q3 -1 7.5 -3.5t10.5 -4.5q5 -2 11.5 -2t10.5 -2q11 -5 15.5 -17t12.5 -22zM204 676q-5 0 -8.5 -2t-7.5 -1q-7 2 -12.5 5.5t-11.5 2.5q-13 -1 -19 -12t-14 -20q-1 -5 0.5 -7t1.5 -6q-8 -10 -8 -20t-2 -21q-2 -14 -6 -28.5
t-4 -28.5q0 -20 -2.5 -36.5t-3.5 -33.5q-1 -5 1 -10t2 -11q0 -15 -2.5 -30.5t-0.5 -29.5q2 -12 2.5 -23t-4.5 -21q4 -33 4 -68t-1.5 -70.5t-1.5 -71t6 -69.5q8 -10 11.5 -20.5t14.5 -13.5q8 -3 19 -2t21.5 4t19.5 7t13 7q21 18 24 48.5t-0.5 65l-7 69t5.5 59.5q-4 25 0 50
t7 51q9 77 14 151t-9 140q-10 -6 -19.5 -4.5t-21.5 0.5z" />
    <glyph glyph-name="Edieresis" unicode="&#xcb;" horiz-adv-x="277" 
d="M108 830q4 -18 0 -35t-18 -29q-10 -6 -19.5 -2t-19.5 9q0 9 -2.5 18.5t-4 18.5t-0.5 17t7 14q5 4 13 5t16.5 -1.5t16 -6.5t11.5 -8zM238 827q2 -20 -1 -36t-14 -26q-9 -5 -19 -5.5t-21 8.5l-6 13.5t-3 7.5t-1.5 5t-1.5 7q-2 19 5 30t17.5 13.5t23 -2t21.5 -15.5zM263 713
q-4 -8 -10 -14.5t-6 -19.5q-8 -10 -17 -4t-22 8q-24 3 -48.5 -1t-37.5 -16q8 -60 7 -124t1 -132q11 -4 29 -4.5t37 -0.5t37 -1.5t29 -8.5q-6 -4 -10.5 -10t-8 -12.5t-8.5 -11t-12 -5.5q-5 -1 -8.5 1t-8.5 4q-21 5 -42 0t-39 -13q-4 -13 -3 -25.5t0 -23.5q-1 -4 -3.5 -7.5
t-3.5 -7.5q0 -2 1.5 -4.5t1.5 -4.5q1 -12 -1.5 -24.5t-4.5 -25t-2.5 -24t4.5 -21.5q-4 -10 -4.5 -22t-0.5 -23q-1 -8 0.5 -16.5t0.5 -16.5q0 -8 -1.5 -16t3.5 -16q35 1 67 0.5t55 -15.5q-3 -1 -2.5 -4.5t1.5 -7t1.5 -6t-2.5 -1.5q-12 -13 -33 -15.5t-45.5 -1t-49.5 3
t-44 -3.5q-17 4 -30 10.5t-22 17.5q-7 54 -3 114t9 115q3 25 3 48t4 50q1 5 2.5 7.5t2.5 6.5q4 52 4 116.5t-6 121.5q-1 7 1 14t1 15q-1 7 -1 16t-2 18q-2 11 -2.5 21t15.5 13q14 3 32.5 0.5t33.5 -1.5q19 0 40.5 3t44.5 1q20 -1 41 -2t35 -11z" />
    <glyph glyph-name="edieresis" unicode="&#xeb;" horiz-adv-x="269" 
d="M86 830q4 -18 0 -35t-18 -29q-10 -6 -19.5 -2t-19.5 9q0 9 -2.5 18.5t-4 18.5t-0.5 17t7 14q5 4 13 5t16.5 -1.5t16 -6.5t11.5 -8zM216 827q2 -20 -1 -36t-14 -26q-9 -5 -19 -5.5t-21 8.5l-6 13.5t-3 7.5t-1.5 5t-1.5 7q-2 19 5 30t17.5 13.5t23 -2t21.5 -15.5zM238 735
q-5 -5 -11 -8t-12 -9q-3 -18 -5 -28.5t-11 -19.5q-35 8 -63.5 5.5t-55.5 -14.5q2 -6 0.5 -11t4.5 -5q-6 -12 -1 -24.5t6 -25.5q1 -11 -1 -21t0 -21q2 -35 1.5 -71.5t1.5 -65.5q19 -3 38.5 -0.5t39.5 6t40.5 6.5t40.5 3q-2 -7 -7.5 -8.5t-10.5 -4.5q3 -12 0 -20.5t-8.5 -15
t-12 -13t-10.5 -13.5q-11 -6 -26.5 -8l-31 -4t-30 -5t-24.5 -12q1 -21 0.5 -45t-1 -49t-2 -49t-3.5 -44q3 -8 3 -17t-1 -18t-1 -18t4 -16q16 0 33.5 3t36 4.5t36 0.5t33.5 -8q2 -9 8 -12.5t10 -9.5q-3 -8 -7.5 -10t-9 -2.5t-8.5 -1t-7 -3.5q-37 -2 -65 -7.5t-62 -13.5
q-9 -2 -16.5 -3t-17.5 -3q-15 -3 -29 -5.5t-22 15.5q7 115 6.5 218t0.5 206q0 36 0.5 73.5t1.5 74.5q0 26 1.5 55t-3.5 49q-2 4 -4.5 7.5t-2.5 8.5q0 8 4.5 14.5t8.5 13.5q10 1 18.5 3t19.5 0q7 -1 14 -4t13.5 -4.5t13.5 -1t14 6.5q4 0 4.5 -2.5t2.5 -4.5q34 2 65 7t58 0z
" />
    <glyph glyph-name="germandbls" unicode="&#xdf;" horiz-adv-x="296" 
d="M221 461q10 -14 26.5 -21t23.5 -24q-1 -5 0.5 -10.5t3 -10t1.5 -9t-3 -8.5q5 -21 6 -43t0.5 -45.5t-1 -49t2.5 -53.5q3 -27 -6.5 -44t-22.5 -34q-18 -17 -31 -34t-36 -28q-58 -3 -71 35q10 8 21.5 14.5t22.5 14t20 16.5t14 22q3 7 4 18.5t1.5 23.5t0.5 23.5v19.5
q-3 43 -1 87.5t-10 86.5h-24t-18 2.5t-14.5 8t-14.5 16.5q6 9 11.5 16.5t11 14.5t10 15t8.5 19q3 25 2 59t-3 66q-1 14 0.5 28.5t-3.5 22.5q-8 11 -23 10.5t-29 -2.5q-7 -13 -7.5 -27.5t0.5 -29.5t1 -30.5t-6 -28.5q6 -17 3 -33t-3 -32q0 -9 -0.5 -31.5t-1 -48t-1 -48
t-0.5 -32.5q-1 -10 -3 -18.5t-2 -16.5q2 -29 1.5 -67t0.5 -71q4 -4 4 -10.5t-0.5 -13t0 -13t5.5 -11.5q-3 -19 -1 -36t3 -33q1 -17 3.5 -37.5t1.5 -40t-6.5 -35.5t-19.5 -23q-17 -2 -27.5 3t-21.5 13q1 42 -1 79.5t-5.5 73t-7 70.5t-5.5 73q6 40 5 80t0 86q0 68 1.5 133.5
t4.5 132.5q-3 8 -2.5 15.5t2 15t2.5 15t0 16.5q10 10 24.5 14t30 4.5t31 0t27.5 -0.5q3 0 12.5 -1.5t8.5 -3.5q25 3 41.5 -5.5t32.5 -22.5q11 -10 15 -23.5t5 -29.5t0.5 -33.5t1.5 -33.5q2 -17 3.5 -36.5t-0.5 -37t-8.5 -32t-21.5 -21.5z" />
    <glyph glyph-name="guillemotleft" unicode="&#xab;" horiz-adv-x="308" 
d="M204 315q7 -18 20.5 -31.5l27 -27t24 -28.5t11.5 -35q-6 -6 -14 -11.5t-17 -8t-18.5 -0.5t-17.5 11q-5 4 -13 13.5t-16.5 21t-17 22.5t-13.5 17q-6 8 -14.5 14t-12.5 14q-9 15 -4 31t15 30q5 1 11 9.5t11 7.5q5 10 10 16.5t11 11t13 9t15 11.5q8 21 26 33t29 10
q1 -2 11 -7.5t12 -5.5q4 -8 7.5 -17t-2.5 -19q-26 -21 -49.5 -43.5t-44.5 -47.5zM157 450q5 -9 9.5 -20.5t1.5 -23.5q-5 -4 -9 -8t-10 -7q-8 -23 -28 -45t-31 -44q3 -12 16 -24.5t27.5 -25.5t25.5 -26t11 -25q-3 -6 -7.5 -10.5t-7.5 -10.5q-6 -6 -12.5 -5.5t-26.5 11.5
q-7 4 -11.5 10.5t-9.5 11.5q-9 8 -18.5 13.5t-12.5 16.5q-16 8 -25 21t-25 20q-9 7 -9.5 15t3.5 15.5t11 13.5t14 10q16 23 33 45.5t34 45.5q-1 6 2 8.5t5 7.5q22 14 50 10z" />
    <glyph glyph-name="guillemotright" unicode="&#xbb;" horiz-adv-x="302" 
d="M213 286q-8 14 -17.5 32.5t-20 37t-21.5 36t-22 29.5q0 17 7.5 21.5t18.5 12.5q9 7 25.5 1t24.5 -17q2 -3 3 -8t3 -10q5 -12 11.5 -18.5t7.5 -20.5q0 -7 4.5 -16t10.5 -18l12 -18t11 -16q6 -10 12.5 -17t9.5 -13.5t1.5 -14t-10.5 -17.5q-3 -3 -7.5 -5.5t-7.5 -5.5
q-11 -11 -23 -27.5t-24 -29.5q-1 -2 -4 -6t-4 -5q-5 -5 -7.5 -6.5t-6.5 -3.5q-8 -5 -18 -7.5t-19 2.5q-14 3 -16.5 12t-5.5 14zM26 172q-5 4 3.5 16.5t21 26t24 24t12.5 11.5q5 14 13 23.5t13 23.5q-28 29 -61 58q-11 9 -21.5 18.5t-17.5 19t-8.5 18.5t7.5 17q2 0 6 3.5
t8.5 7.5t8 7t5.5 3q5 3 10.5 0t11.5 -9t11.5 -12t10.5 -8q6 -14 15 -23t18.5 -17t18.5 -16.5t16 -21.5q4 -2 10.5 -10t9.5 -10q11 -13 8 -28.5t-18 -25.5q-10 -17 -18.5 -35t-20.5 -32q0 -9 -11 -17.5t-19 -13.5q-8 -6 -14.5 -11.5t-15.5 -6.5q-8 0 -19.5 9.5t-17.5 10.5z
" />
    <glyph glyph-name="oacute" unicode="&#xf3;" 
d="M271 853q10 -9 11 -18t-2 -16q-20 -11 -41.5 -28t-39.5 -25q-9 -4 -17 -2t-15 7t-12 12.5t-8 15.5q10 10 24 17t28 15q10 6 17.5 13t15 12t16.5 5.5t23 -8.5zM331 676q7 -33 7 -69t-3 -71.5t-7 -70.5t-7 -67q-2 -5 2 -4.5t3 -4.5q-8 -26 -7 -55t-1 -57q0 -7 -2.5 -13
t-2.5 -12q0 -37 4 -73.5t9 -72.5q-5 -16 -6.5 -31.5t-8.5 -27.5q-4 -7 -11 -16.5t-13 -13.5q-13 -9 -28 -8t-32 -1q-5 0 -10.5 -3t-10.5 -5q-2 0 -6 1t-7 1q-21 -2 -41.5 -3t-41.5 3q-8 2 -15 2t-11 1q-3 1 -5.5 4t-6.5 4q-2 1 -5.5 0t-5.5 0q-4 2 -13.5 8.5t-14.5 9.5
q-10 9 -16 23.5t-1 28.5q-3 5 -6.5 10t-5.5 10q3 49 6.5 104.5t3.5 108.5q0 2 -1.5 3t-1.5 3q0 14 3 29t3 31q1 11 0 25t0 30q2 47 7 91.5t11 86.5q3 20 10 42t14 34q19 30 53 39t79 7q14 -1 28.5 -6t26.5 -6q5 0 9 1.5t8 0.5q3 -1 7.5 -3.5t10.5 -4.5q5 -2 11.5 -2t10.5 -2
q11 -5 15.5 -17t12.5 -22zM204 676q-5 0 -8.5 -2t-7.5 -1q-7 2 -12.5 5.5t-11.5 2.5q-13 -1 -19 -12t-14 -20q-1 -5 0.5 -7t1.5 -6q-8 -10 -8 -20t-2 -21q-2 -14 -6 -28.5t-4 -28.5q0 -20 -2.5 -36.5t-3.5 -33.5q-1 -5 1 -10t2 -11q0 -15 -2.5 -30.5t-0.5 -29.5
q2 -12 2.5 -23t-4.5 -21q4 -33 4 -68t-1.5 -70.5t-1.5 -71t6 -69.5q8 -10 11.5 -20.5t14.5 -13.5q8 -3 19 -2t21.5 4t19.5 7t13 7q21 18 24 48.5t-0.5 65l-7 69t5.5 59.5q-4 25 0 50t7 51q9 77 14 151t-9 140q-10 -6 -19.5 -4.5t-21.5 0.5z" />
    <glyph glyph-name="ograve" unicode="&#xf2;" 
d="M210 750q-17 -2 -34 5.5t-32 18t-26.5 20.5t-16.5 14q1 16 8 23.5t14.5 10t14.5 2t8 -0.5q20 -16 45 -26.5t47 -24.5q4 -16 -5.5 -26.5t-22.5 -15.5zM331 676q7 -33 7 -69t-3 -71.5t-7 -70.5t-7 -67q-2 -5 2 -4.5t3 -4.5q-8 -26 -7 -55t-1 -57q0 -7 -2.5 -13t-2.5 -12
q0 -37 4 -73.5t9 -72.5q-5 -16 -6.5 -31.5t-8.5 -27.5q-4 -7 -11 -16.5t-13 -13.5q-13 -9 -28 -8t-32 -1q-5 0 -10.5 -3t-10.5 -5q-2 0 -6 1t-7 1q-21 -2 -41.5 -3t-41.5 3q-8 2 -15 2t-11 1q-3 1 -5.5 4t-6.5 4q-2 1 -5.5 0t-5.5 0q-4 2 -13.5 8.5t-14.5 9.5
q-10 9 -16 23.5t-1 28.5q-3 5 -6.5 10t-5.5 10q3 49 6.5 104.5t3.5 108.5q0 2 -1.5 3t-1.5 3q0 14 3 29t3 31q1 11 0 25t0 30q2 47 7 91.5t11 86.5q3 20 10 42t14 34q19 30 53 39t79 7q14 -1 28.5 -6t26.5 -6q5 0 9 1.5t8 0.5q3 -1 7.5 -3.5t10.5 -4.5q5 -2 11.5 -2t10.5 -2
q11 -5 15.5 -17t12.5 -22zM204 676q-5 0 -8.5 -2t-7.5 -1q-7 2 -12.5 5.5t-11.5 2.5q-13 -1 -19 -12t-14 -20q-1 -5 0.5 -7t1.5 -6q-8 -10 -8 -20t-2 -21q-2 -14 -6 -28.5t-4 -28.5q0 -20 -2.5 -36.5t-3.5 -33.5q-1 -5 1 -10t2 -11q0 -15 -2.5 -30.5t-0.5 -29.5
q2 -12 2.5 -23t-4.5 -21q4 -33 4 -68t-1.5 -70.5t-1.5 -71t6 -69.5q8 -10 11.5 -20.5t14.5 -13.5q8 -3 19 -2t21.5 4t19.5 7t13 7q21 18 24 48.5t-0.5 65l-7 69t5.5 59.5q-4 25 0 50t7 51q9 77 14 151t-9 140q-10 -6 -19.5 -4.5t-21.5 0.5z" />
    <glyph glyph-name="Ograve" unicode="&#xd2;" horiz-adv-x="356" 
d="M202 763q-17 -2 -34 5.5t-32 18t-26.5 20.5t-16.5 14q1 16 8 23.5t14.5 10t14.5 2t8 -0.5q20 -16 45 -26.5t47 -24.5q4 -16 -5.5 -26.5t-22.5 -15.5zM318 158q3 -6 2 -12t-2.5 -12t-2 -11t2.5 -9q-6 -17 -12.5 -33t-16.5 -32q-8 -4 -16.5 -7.5t-19.5 -8.5q-7 -4 -11.5 -9
t-9.5 -7q-24 -14 -60.5 -18t-72 2.5t-63.5 24.5t-35 49q-4 17 -3.5 41.5t2.5 43.5q2 45 5.5 94t10.5 88q11 57 18.5 113t12.5 112q1 13 0.5 25t1.5 24q3 23 9.5 44t11.5 42q8 8 14 17.5t17 15.5q15 4 28 6.5t28 3.5q6 0 12 -2.5t13 -2.5q20 -1 38 1.5t38 -4.5q9 -4 23.5 -13
t20.5 -17t11.5 -23.5t11.5 -23.5q5 -8 3.5 -24.5l-2.5 -27.5q0 -8 3 -14.5t2 -14.5q0 -4 -2 -8t-3 -8q-1 -11 2 -21.5t3 -21.5q2 -21 -2 -41t-3 -35q1 -8 4 -15.5t3 -15.5q0 -19 -1.5 -38t-1.5 -38q0 -6 2 -12.5t3 -12.5q0 -11 -2.5 -23.5t-2.5 -24.5q0 -10 1 -19.5t0 -19.5
q0 -7 -1.5 -14t-3.5 -14q-2 -11 -2.5 -21t-5.5 -18zM185 56q21 31 28.5 71.5t13.5 77.5q5 28 6 57l2 58q1 20 1 45.5t-2 45.5q-1 5 1 9.5t2 8.5q-1 42 -1.5 83.5t-1.5 80.5q-1 26 -4 50.5t-14 47.5q-2 0 -2.5 1t-2.5 1q-11 -9 -25.5 -13t-31.5 -8q-12 -18 -16.5 -39.5
t-6 -44t-3 -45.5t-6.5 -45q5 -14 1.5 -28t-5.5 -28q-1 -14 -1.5 -25.5t-2.5 -22.5q-2 -16 -2.5 -35.5t-0.5 -40.5t-1.5 -42t-5.5 -40q3 -41 1.5 -84t11.5 -85q6 -7 10.5 -14.5t16.5 -8.5q8 6 19.5 7.5t21.5 4.5z" />
    <glyph glyph-name="q" unicode="q" horiz-adv-x="339" 
d="M286 27q-14 -5 -28.5 -10t-30.5 -10q-3 -29 -3 -57.5t6 -59.5q-10 -5 -15 1t-13 11q-14 7 -27.5 9.5t-21.5 16.5q-5 9 -4.5 22.5t0.5 24.5l-3 21q-24 0 -49 3q-10 2 -18 5t-20 7q-8 11 -18 20t-17 22q-11 66 -15 125.5t3 127.5q2 17 2 32.5t1 31.5q2 36 3.5 73t0.5 73
q-1 19 -2.5 37t0.5 36q0 4 2.5 9t4.5 11q2 10 2 20.5t2 18.5q8 20 22.5 36.5t28.5 33.5q17 8 31 14.5t34 6.5q5 0 10 -1.5t11 -2.5q20 -1 38.5 0.5t38.5 -1.5q21 -4 35 -11.5t22 -26.5q2 -5 1.5 -10.5t1.5 -11.5q3 -11 7 -21.5t6 -21.5q1 -4 -0.5 -8t-1.5 -9q2 -60 3 -117.5
t4 -117.5q2 -33 0 -61t-2 -54q0 -19 2 -36.5t1 -34.5q0 -15 -3 -30t-1 -32q-1 -16 -2 -30l-2 -24t-3 -19t-6 -12l-8 -10t-10 -9zM239 73q4 19 3 54t-3.5 72.5t-4 71t0.5 50.5q-6 30 -3 61.5t3 63.5q0 37 -2 71.5t-4 68.5q-2 17 -2 32.5t-5 29.5q-2 6 -7 18t-7 14
q-6 8 -15.5 10t-20.5 1t-22.5 -3.5t-21.5 -2.5q-7 -4 -11 -11.5t-6.5 -16.5t-4.5 -18.5t-6 -16.5q2 -12 -1.5 -24t-3.5 -23q-1 -37 6 -68.5t5 -63.5q-1 -14 -0.5 -26t-0.5 -25q-1 -4 -3 -7.5t-2 -6.5q0 -7 2 -16.5t1 -17.5q-2 -21 -3.5 -41.5t-1.5 -41.5q1 -29 4.5 -49.5
t7.5 -48.5q2 -19 1 -38.5t4 -34.5q3 -13 12.5 -25t17.5 -20l2 36q3 8 2 15.5t-2.5 14.5t-2.5 14.5t3 15.5q22 12 36.5 6.5t29.5 -13.5l10 -74q14 6 16 13z" />
    <glyph glyph-name="tilde" unicode="&#x2dc;" horiz-adv-x="277" 
d="M275 810q2 -8 -3 -12.5t-10 -8.5l-10 -10t-11 -8t-15 -9.5t-16 -7.5q-5 -1 -12.5 0t-12.5 0q-8 -1 -21 3t-27.5 8.5t-28.5 7.5t-24 1q-9 -7 -16 -11t-14 -7t-15 -4.5t-20 -4.5q-4 3 -7.5 6t-5.5 8q-1 5 -5 9t-2 7q-2 5 2.5 6.5t2.5 6.5q7 10 10 14t7.5 5.5t14 3t30.5 5.5
q15 -1 28.5 -3.5t27.5 -5.5t29.5 -5t33.5 -1q7 0 10 5t7 9.5t12 7.5t26 0q21 -5 35 -15z" />
    <glyph glyph-name="circumflex" unicode="&#x2c6;" horiz-adv-x="189" 
d="M170 759q-15 0 -25.5 7t-19 16.5t-17.5 19t-21 14.5l-16 -14t-17 -17q-6 -8 -13.5 -20t-15.5 -14q-11 -4 -17.5 3t-7.5 17.5t4 20.5t16 12q8 18 22 30t22 29q5 2 8 6.5t8 6.5q17 6 30 -3.5t19 -21.5q11 -4 19 -11t15 -15q7 2 9.5 -0.5t7.5 -3.5q6 -17 2.5 -33.5
t-12.5 -28.5z" />
    <glyph glyph-name="acute" unicode="&#xb4;" horiz-adv-x="254" 
d="M196 836q10 -9 11 -18t-2 -16q-20 -11 -41.5 -28t-39.5 -25q-9 -4 -17 -2t-15 7t-12 12.5t-8 15.5q10 10 24 17t28 15q10 6 17.5 13t15 12t16.5 5.5t23 -8.5z" />
    <glyph glyph-name="divide" unicode="&#xf7;" horiz-adv-x="313" 
d="M5 264q-9 19 0 30.5t29 29.5q23 9 50.5 3.5t56.5 -7.5q16 -1 35.5 2t39 5t37 2.5t28.5 -5.5q9 2 13 -7.5t3 -22.5q0 -3 -4 -8t-9 -10t-10 -9t-7 -7q-35 -5 -68.5 -5t-66 1.5t-64 4t-63.5 3.5zM117 371q-6 9 -7 16t0.5 13t4.5 11t5 10q12 13 34 16t36 -11q3 -3 4.5 -13.5
t0.5 -21.5t-4.5 -21.5t-10.5 -13.5q-12 1 -31 4t-32 11zM94 162q-5 14 -5 23t9 24q6 10 17 8.5t20 0.5q23 6 35.5 3t14.5 -18q2 -14 0 -30t-13 -21q-5 -2 -17 -3.5t-24.5 -1t-23 3.5t-13.5 11z" />
    <glyph glyph-name="dieresis" unicode="&#xa8;" horiz-adv-x="317" 
d="M139 830q4 -18 0 -35t-18 -29q-10 -6 -19.5 -2t-19.5 9q0 9 -2.5 18.5t-4 18.5t-0.5 17t7 14q5 4 13 5t16.5 -1.5t16 -6.5t11.5 -8zM269 827q2 -20 -1 -36t-14 -26q-9 -5 -19 -5.5t-21 8.5l-6 13.5t-3 7.5t-1.5 5t-1.5 7q-2 19 5 30t17.5 13.5t23 -2t21.5 -15.5z" />
    <glyph glyph-name="multiply" unicode="&#xd7;" horiz-adv-x="257" 
d="M71 421l30 -30t29 -36q12 11 22 23.5t20.5 24t22.5 20.5t28 13q13 -12 17 -27.5t6 -32.5q-6 -9 -15.5 -17t-20 -15.5t-20 -16t-14.5 -18.5q7 -10 17 -20.5t20.5 -20.5t20 -19t17.5 -15q-6 -5 -10 -12.5t-9 -16t-14.5 -16t-25.5 -11.5q-5 8 -15 18t-20.5 20t-20.5 19.5
t-15 16.5q-11 -9 -20.5 -21.5t-20 -25t-21.5 -22.5t-24 -12q-5 8 -14.5 13t-12.5 19q1 12 10 25t20.5 25t23.5 23t20 20q-18 18 -36.5 33.5t-36.5 36.5q15 32 35 47t27 8z" />
    <glyph glyph-name="Yacute" unicode="&#xdd;" horiz-adv-x="347" 
d="M328 719q-1 -9 -3.5 -16t-3.5 -17q-9 -12 -15.5 -28.5t-13.5 -34t-15.5 -33.5t-21.5 -26q-2 -17 -7 -26.5t-14 -20.5q3 -8 -2 -13.5t-7 -12.5q-3 -14 -2 -28.5t-4 -28.5t-5 -32t-2 -38q-2 -40 -0.5 -73t0.5 -66q0 -6 -2 -11t-2 -11q-2 -10 0 -20.5t1 -19.5
q-1 -6 -3.5 -11.5t-2.5 -11.5q-1 -4 1 -7t2 -8t-1.5 -10.5t-1.5 -10.5q-1 -20 1.5 -41t4.5 -42q-3 -6 -10.5 -7.5t-10.5 -8.5q-13 4 -24.5 1.5t-22 -6t-19.5 -4t-17 8.5q-3 4 -4 14t-1 19q1 17 3 38.5t4.5 43.5t3.5 42.5t-1 34.5q5 7 4 14t-1 15q1 5 2.5 8t2.5 8
q2 14 0.5 27.5t-0.5 24.5q1 18 3 40.5t4 46.5t3 47t0 42q-30 68 -62 128t-70 117q5 11 15.5 14t23 2.5t24.5 -3t20 -3.5q23 -42 49 -91t46 -91q12 15 22 38t18 47.5t15 49t13 44.5q8 9 19 10.5t22.5 -1t23 -6.5t21.5 -6zM249 836q10 -9 11 -18t-2 -16q-20 -11 -41.5 -28
t-39.5 -25q-9 -4 -17 -2t-15 7t-12 12.5t-8 15.5q10 10 24 17t28 15q10 6 17.5 13t15 12t16.5 5.5t23 -8.5zM328 719q-1 -9 -3.5 -16t-3.5 -17q-9 -12 -15.5 -28.5t-13.5 -34t-15.5 -33.5t-21.5 -26q-2 -17 -7 -26.5t-14 -20.5q3 -8 -2 -13.5t-7 -12.5q-3 -14 -2 -28.5
t-4 -28.5t-5 -32t-2 -38q-2 -40 -0.5 -73t0.5 -66q0 -6 -2 -11t-2 -11q-2 -10 0 -20.5t1 -19.5q-1 -6 -3.5 -11.5t-2.5 -11.5q-1 -4 1 -7t2 -8t-1.5 -10.5t-1.5 -10.5q-1 -20 1.5 -41t4.5 -42q-3 -6 -10.5 -7.5t-10.5 -8.5q-13 4 -24.5 1.5t-22 -6t-19.5 -4t-17 8.5
q-3 4 -4 14t-1 19q1 17 3 38.5t4.5 43.5t3.5 42.5t-1 34.5q5 7 4 14t-1 15q1 5 2.5 8t2.5 8q2 14 0.5 27.5t-0.5 24.5q1 18 3 40.5t4 46.5t3 47t0 42q-30 68 -62 128t-70 117q5 11 15.5 14t23 2.5t24.5 -3t20 -3.5q23 -42 49 -91t46 -91q12 15 22 38t18 47.5t15 49t13 44.5
q8 9 19 10.5t22.5 -1t23 -6.5t21.5 -6z" />
    <glyph glyph-name="yacute" unicode="&#xfd;" horiz-adv-x="339" 
d="M323 725q4 -16 0 -35.5t-9 -34.5q-1 -5 -3.5 -16t-5.5 -16q-3 -6 -9.5 -16t-8.5 -19q-2 -5 -1 -9t-1 -8q-3 -10 -7.5 -17.5t-9 -15.5t-8 -16.5t-4.5 -19.5q-8 -6 -11 -16t-10 -18q-1 -11 -6 -20t-10 -19q-3 -6 -5 -13t-5 -13q-1 -2 -4 -4.5t-4 -5.5q-2 -7 -1 -15t-1 -15
q-1 -4 -3 -6.5t-3 -5.5q-2 -6 -1.5 -13t-0.5 -14q-1 -9 -3.5 -17t-3.5 -16q-3 -35 -8.5 -70t-8.5 -71q-2 -15 -0.5 -30t0.5 -31q-1 -5 -3 -8.5t-2 -8.5q0 -8 1.5 -16.5t3 -17.5t1 -18.5t-5.5 -17.5q-14 2 -26.5 -0.5t-25 -4.5t-24 -0.5t-22.5 10.5q3 35 2 69.5t5 69.5
t10.5 80.5t11.5 87.5q4 18 7.5 36.5t7.5 39.5q2 12 2 25t8 24q-13 21 -21.5 51t-19.5 55q-17 38 -34 73.5t-37 73.5q-4 5 -8.5 8t-4.5 9q0 10 7.5 13.5t19 4.5t23.5 1.5t20 4.5q5 -5 14.5 -5.5t17.5 -2.5q-2 -11 4.5 -23.5t6.5 -23.5q21 -30 35.5 -67.5t31.5 -70.5
q24 42 40 92t33 99q7 6 16.5 7.5t20 0t21 -5.5t19.5 -8zM249 836q10 -9 11 -18t-2 -16q-20 -11 -41.5 -28t-39.5 -25q-9 -4 -17 -2t-15 7t-12 12.5t-8 15.5q10 10 24 17t28 15q10 6 17.5 13t15 12t16.5 5.5t23 -8.5z" />
    <glyph glyph-name="quotedbl" unicode="&#x22;" horiz-adv-x="160" 
d="M57 602q-10 -6 -15 -1.5t-8 12.5t-7 17.5t-11 13.5q-6 24 -8.5 51.5t9.5 53.5q16 2 33 -1.5t17 -20.5zM141 743v-58.5t-16 -57.5q-4 -7 -7.5 -14t-8 -11t-9.5 -3.5t-12 7.5q3 9 2 24t-2.5 32t-1.5 35.5t4 35.5q2 7 8.5 10t14.5 3.5t15.5 -0.5t12.5 -3z" />
    <glyph glyph-name="quotedblleft" unicode="&#x201c;" horiz-adv-x="153" 
d="M142 635q1 -4 -1.5 -4.5t-3.5 -3.5q2 -13 8.5 -22t4.5 -20q-9 -8 -15.5 -5.5t-12.5 8.5t-12.5 13t-14.5 10q-10 23 -14.5 53.5t3.5 58.5q15 5 32.5 4.5t20.5 -17.5q1 -8 0.5 -18t-1 -20.5t0.5 -20t5 -16.5zM59 734q6 -9 6.5 -20.5t0.5 -23.5t1 -24t7 -21q-9 -11 -1 -23.5
t11 -25.5q-5 -9 -10 -9.5t-10.5 3t-10.5 9t-10 10.5q-4 4 -10 6t-9 7q-3 4 -5.5 11t-5 14.5t-4 15t-2.5 11.5q-1 6 1.5 11.5t2.5 11.5q0 10 -3 19t3 17q9 6 23 5.5t25 -4.5z" />
    <glyph glyph-name="quotedblright" unicode="&#x201d;" horiz-adv-x="160" 
d="M80 730q2 -26 -1.5 -48t-14.5 -44q-8 -2 -15 -8.5t-14 -12.5t-14.5 -7.5t-16.5 6.5q0 6 2 10t4.5 7.5t5 7.5t2.5 10q4 5 0 6t-3 7q5 7 6.5 17.5t2 21t1.5 20t5 15.5q14 3 28 1.5t22 -9.5zM147 735q2 -10 3.5 -22.5t-0.5 -24.5q-1 -8 -5 -23t-10 -23q-2 -2 -7.5 -4.5
t-8.5 -4.5q-6 -5 -11.5 -10.5t-10.5 -8.5t-10 -2t-12 8q-1 9 5.5 16t9.5 16q2 5 -0.5 6.5t-2.5 5.5q4 7 5.5 17t1.5 21t1 21t6 17q12 3 24.5 1t21.5 -6z" />
    <glyph glyph-name="quoteright" unicode="&#x2019;" horiz-adv-x="85" 
d="M80 730q2 -26 -1.5 -48t-14.5 -44q-8 -2 -15 -8.5t-14 -12.5t-14.5 -7.5t-16.5 6.5q0 6 2 10t4.5 7.5t5 7.5t2.5 10q4 5 0 6t-3 7q5 7 6.5 17.5t2 21t1.5 20t5 15.5q14 3 28 1.5t22 -9.5z" />
    <glyph glyph-name="quoteleft" unicode="&#x2018;" horiz-adv-x="87" 
d="M59 734q11 -17 14 -42t1 -47q-1 -14 3 -24.5t7 -24.5q-5 -9 -10 -9.5t-10.5 3t-10.5 9t-10 10.5q-4 4 -10 6t-9 7q-3 4 -5.5 11t-5 14.5t-4 15t-2.5 11.5q-1 6 1.5 11.5t2.5 11.5q0 10 -3 19t3 17q9 6 23 5.5t25 -4.5z" />
    <glyph glyph-name="Ydieresis" unicode="&#x178;" horiz-adv-x="344" 
d="M328 719q-1 -9 -3.5 -16t-3.5 -17q-9 -12 -15.5 -28.5t-13.5 -34t-15.5 -33.5t-21.5 -26q-2 -17 -7 -26.5t-14 -20.5q3 -8 -2 -13.5t-7 -12.5q-3 -14 -2 -28.5t-4 -28.5t-5 -32t-2 -38q-2 -40 -0.5 -73t0.5 -66q0 -6 -2 -11t-2 -11q-2 -10 0 -20.5t1 -19.5
q-1 -6 -3.5 -11.5t-2.5 -11.5q-1 -4 1 -7t2 -8t-1.5 -10.5t-1.5 -10.5q-1 -20 1.5 -41t4.5 -42q-3 -6 -10.5 -7.5t-10.5 -8.5q-13 4 -24.5 1.5t-22 -6t-19.5 -4t-17 8.5q-3 4 -4 14t-1 19q1 17 3 38.5t4.5 43.5t3.5 42.5t-1 34.5q5 7 4 14t-1 15q1 5 2.5 8t2.5 8
q2 14 0.5 27.5t-0.5 24.5q1 18 3 40.5t4 46.5t3 47t0 42q-30 68 -62 128t-70 117q5 11 15.5 14t23 2.5t24.5 -3t20 -3.5q23 -42 49 -91t46 -91q12 15 22 38t18 47.5t15 49t13 44.5q8 9 19 10.5t22.5 -1t23 -6.5t21.5 -6zM141 830q4 -18 0 -35t-18 -29q-10 -6 -19.5 -2
t-19.5 9q0 9 -2.5 18.5t-4 18.5t-0.5 17t7 14q5 4 13 5t16.5 -1.5t16 -6.5t11.5 -8zM271 827q2 -20 -1 -36t-14 -26q-9 -5 -19 -5.5t-21 8.5l-6 13.5t-3 7.5t-1.5 5t-1.5 7q-2 19 5 30t17.5 13.5t23 -2t21.5 -15.5z" />
    <glyph glyph-name="ydieresis" unicode="&#xff;" horiz-adv-x="342" 
d="M323 725q4 -16 0 -35.5t-9 -34.5q-1 -5 -3.5 -16t-5.5 -16q-3 -6 -9.5 -16t-8.5 -19q-2 -5 -1 -9t-1 -8q-3 -10 -7.5 -17.5t-9 -15.5t-8 -16.5t-4.5 -19.5q-8 -6 -11 -16t-10 -18q-1 -11 -6 -20t-10 -19q-3 -6 -5 -13t-5 -13q-1 -2 -4 -4.5t-4 -5.5q-2 -7 -1 -15t-1 -15
q-1 -4 -3 -6.5t-3 -5.5q-2 -6 -1.5 -13t-0.5 -14q-1 -9 -3.5 -17t-3.5 -16q-3 -35 -8.5 -70t-8.5 -71q-2 -15 -0.5 -30t0.5 -31q-1 -5 -3 -8.5t-2 -8.5q0 -8 1.5 -16.5t3 -17.5t1 -18.5t-5.5 -17.5q-14 2 -26.5 -0.5t-25 -4.5t-24 -0.5t-22.5 10.5q3 35 2 69.5t5 69.5
t10.5 80.5t11.5 87.5q4 18 7.5 36.5t7.5 39.5q2 12 2 25t8 24q-13 21 -21.5 51t-19.5 55q-17 38 -34 73.5t-37 73.5q-4 5 -8.5 8t-4.5 9q0 10 7.5 13.5t19 4.5t23.5 1.5t20 4.5q5 -5 14.5 -5.5t17.5 -2.5q-2 -11 4.5 -23.5t6.5 -23.5q21 -30 35.5 -67.5t31.5 -70.5
q24 42 40 92t33 99q7 6 16.5 7.5t20 0t21 -5.5t19.5 -8zM139 830q4 -18 0 -35t-18 -29q-10 -6 -19.5 -2t-19.5 9q0 9 -2.5 18.5t-4 18.5t-0.5 17t7 14q5 4 13 5t16.5 -1.5t16 -6.5t11.5 -8zM269 827q2 -20 -1 -36t-14 -26q-9 -5 -19 -5.5t-21 8.5l-6 13.5t-3 7.5t-1.5 5
t-1.5 7q-2 19 5 30t17.5 13.5t23 -2t21.5 -15.5z" />
    <glyph glyph-name="cent" unicode="&#xa2;" horiz-adv-x="314" 
d="M175 -8q-1 -7 -0.5 -16.5t0.5 -16.5q-7 -9 -18 -12t-23 -2.5t-24.5 3.5t-22.5 5q1 11 -2.5 25.5t-4.5 25.5q0 2 0.5 4t0.5 4q-27 15 -42 40q-11 20 -17 45.5t-5 50.5q-8 24 -9 50t0 56q1 29 1.5 61.5t2.5 65.5q0 19 -3 37.5t-2 36.5q1 23 1.5 45t-0.5 45q0 13 -2.5 26.5
t-1.5 26.5q2 12 7 28q5 38 21.5 54t46.5 26q15 4 39 6q-2 16 -3.5 31t-3.5 27q9 0 17 4t15.5 8.5t15 7.5t15.5 2q9 -2 14 -9t13 -13q-1 -17 -1.5 -33.5t0.5 -33.5q7 -4 14.5 -4.5t15.5 -2.5q6 -2 11.5 -5.5t9.5 -5.5q17 -7 25 -24.5t17 -29.5q-1 -11 1 -22t2 -27
q-6 -3 -14.5 -5t-18 -3t-18.5 -1t-15 1q-19 4 -20 16.5t-4 29.5q-2 11 -9 27.5t-15 22.5q-6 4 -15.5 4.5t-19 -1.5t-17 -5t-10.5 -5q-14 -21 -18 -49t-4 -51q-1 -32 3 -66.5t6 -68.5q0 -12 1 -23.5t2 -23.5q-1 -11 -1 -21.5t-1 -19.5q0 -12 -2 -26t-2 -18q0 -27 -2 -59
t2 -63q1 -7 3.5 -13.5t3.5 -13.5q1 -4 -1 -7.5t-2 -7.5q1 -9 5.5 -23t8.5 -23q3 -9 13.5 -17t24.5 -11t31.5 0t34.5 15q11 8 25 8q7 -1 20 -8.5t11 -21.5q-1 -4 -4.5 -6.5t-7.5 -7.5t-5.5 -9.5t-4.5 -6.5q-5 -4 -17 -12t-18 -9q-4 0 -11 -1.5t-14.5 -3t-14 -2.5t-10.5 -1z
" />
    <glyph glyph-name="copyright" unicode="&#xa9;" horiz-adv-x="452" 
d="M411 193q3 -5 2 -9.5t-2.5 -9t-2 -9t2.5 -7.5q-6 -14 -12.5 -26t-16.5 -25q-16 -4 -36 -13q-7 -2 -11.5 -6t-9.5 -6q-16 -7 -44.5 -11.5t-62 -5.5t-68.5 1.5t-64.5 9t-50 17.5t-25.5 27q-4 14 -3.5 33t2.5 34q2 35 2.5 76t2.5 72q2 24 1 46.5t-2.5 45t-2 44.5t2.5 44
q1 11 0.5 20t1.5 19q3 17 9.5 33.5t11.5 33.5q8 7 14 14.5t17 12.5q15 2 36.5 6t36.5 5q3 0 23 -0.5t44 -0.5t44.5 -0.5t23.5 -0.5q20 0 38 -1.5t38 -6.5q9 -3 23.5 -10t20.5 -14q6 -5 11.5 -17.5t11.5 -18.5q5 -7 3.5 -19.5t-2.5 -22.5q0 -5 3 -11t2 -11q0 -4 -2 -7.5
t-3 -5.5q-1 -9 2 -17t3 -17q2 -17 -2 -32.5t-3 -27.5q1 -7 4 -12t3 -12q0 -15 -1.5 -30t-1.5 -30q0 -5 2 -10t3 -9q0 -9 -2.5 -19t-2.5 -20q0 -8 1 -15t0 -15q0 -5 -1.5 -11t-3.5 -11q-2 -9 -2.5 -16.5t-5.5 -14.5zM296 134q13 13 19.5 23t10.5 19.5t6.5 20.5t6.5 26
q5 24 7.5 49t3.5 49q1 18 1.5 40t-1.5 40q-1 4 1 8t2 7q0 18 -1 29.5t-1.5 21t-1.5 20t-1 26.5q-2 23 -3.5 37.5t-14.5 34.5q-2 0 -2.5 1t-2.5 1q-10 3 -39.5 6t-63 3t-65 -3.5t-46.5 -13.5q-18 -12 -22 -23t-3.5 -23.5t1.5 -27t-5 -33.5q5 -11 1 -24t-8 -24
q-1 -11 -1.5 -21t-2.5 -20q-3 -14 -4 -31t-1.5 -35t-2 -36t-6.5 -34q1 -17 2 -28.5t3 -22.5t6.5 -23.5t12.5 -30.5q5 -7 13 -13t23 -7q3 2 16.5 3t32 2t39.5 2t40 1.5t33 1.5t18 2zM189 374q0 -2 1 -15.5t1 -19.5q2 -8 2 -13q-2 -35 6 -71q2 -13 8.5 -24.5t17.5 -17.5
q10 0 12 6.5t4 13.5q14 7 28.5 6t30.5 -4q1 -5 -1 -7.5t-4 -11.5q-12 -7 -26 -12.5t-31 -9.5q-21 -5 -45 -1t-38 11q-11 8 -15 26t-6 34q-2 11 -2.5 21.5t-1.5 21.5q-1 27 -1.5 44.5t0.5 42.5q1 14 2 27t6 25q0 11 4.5 23t12.5 22q14 16 40 24.5t52 5.5q2 0 10 -0.5t11 -2.5
q2 -1 2.5 -3t2.5 -4q3 -3 5 -4t2 -3q1 -7 -7 -10.5t-12 -4.5q-5 0 -8.5 1.5t-7.5 2.5q-14 2 -19.5 -1t-18.5 -17q-3 -4 -6.5 -10.5t-3.5 -11.5q0 -2 0.5 -3.5t0.5 -3.5q-1 -4 -2.5 -7t-2.5 -7q-3 -14 -2.5 -30t-0.5 -28z" />
    <glyph glyph-name="registered" unicode="&#xae;" horiz-adv-x="438" 
d="M269 359q7 -7 8 -15.5t3 -18.5q4 -8 5 -15t2 -17q2 -7 1 -13t-1 -13q0 -8 2 -15t1 -15q-1 -4 -0.5 -7t1.5 -8q2 -8 2.5 -14.5t5.5 -12.5q-12 -3 -26 -1q-6 -9 -31 -6q-5 1 -6.5 4.5t-3.5 8.5q-2 16 -1.5 35t-2.5 33q1 14 0 27.5t-2 29.5q0 5 -0.5 9.5t-5.5 8.5
q-8 -2 -20.5 -2t-16.5 -7v-10q1 -8 3 -13.5t3 -11.5q0 -5 -2.5 -11.5t-1.5 -14.5q0 -7 3.5 -13t4.5 -11q2 -2 2.5 -5.5t0.5 -6.5q0 -1 -1.5 -2t-1.5 -2q3 -5 4 -15v-8.5t2 -7.5q-5 -3 -9.5 -1.5t-8.5 0.5q-5 -2 -9 -4.5t-9 -2.5q-3 -1 -6.5 0t-7.5 0q-9 2 -11.5 6.5t-2 10.5
t2 12.5t0.5 12.5q-2 23 -2.5 55.5t-0.5 58.5q0 23 3.5 50.5t3.5 48.5q0 8 -1 17t-1 16q0 8 1 19t7 14q32 7 70 4t67 -8q1 -2 3.5 -3t4.5 -3l0.5 -3t1.5 -6.5t1.5 -6.5t0.5 -2q3 -11 5.5 -24t-1.5 -27q-2 -2 -2.5 -3t-1.5 -2q0 -4 1 -6t0 -4q-1 -14 -7 -26.5t-14 -23.5
q-4 -2 -6 -6t-2 -7zM179 483q1 -15 0 -29t-2.5 -27t-1 -26.5t5.5 -27.5q17 0 30 2.5t18 13.5q8 14 10.5 31t2.5 32q0 8 -0.5 17t-4.5 17q-13 2 -30 2t-28 -5zM13 526q-3 4 -2 9t2.5 9.5t2 9t-2.5 7.5q6 14 12.5 26t16.5 25q16 4 36 13q7 2 11.5 6t9.5 6q16 7 44.5 11.5
t62 5.5t68.5 -1.5t64.5 -9t50 -17.5t25.5 -27q4 -14 3.5 -33t-2.5 -34q-2 -35 -2.5 -76t-2.5 -72q-2 -24 -1 -46.5t2.5 -45t2 -44.5t-2.5 -44q-1 -11 -0.5 -20t-1.5 -19q-3 -17 -9.5 -33.5t-11.5 -33.5q-8 -7 -14 -14.5t-17 -12.5q-15 -2 -36.5 -6t-36.5 -5q-3 0 -23 0.5
t-44 0.5t-44.5 0.5t-23.5 0.5q-20 0 -38 1.5t-38 6.5q-9 3 -23.5 10t-20.5 14q-6 5 -11.5 17.5t-11.5 18.5q-5 7 -3.5 19.5t2.5 22.5q0 5 -3 11t-2 11q0 4 2 7.5t3 5.5q1 9 -2 17t-3 17q-2 17 2 32.5t3 27.5q-1 7 -4 12t-3 12q0 15 1.5 30t1.5 30q0 5 -2 10t-3 9q0 9 2.5 19
t2.5 20q0 8 -1 15t0 15q0 5 1.5 11t3.5 11q2 9 2.5 16.5t5.5 14.5zM128 583q-13 -14 -19.5 -23.5t-10.5 -19t-6.5 -20.5t-6.5 -26q-5 -24 -7.5 -49t-3.5 -49q-1 -18 -1.5 -40t1.5 -40q1 -4 -1 -8t-2 -7q0 -18 1 -29.5t1.5 -21t1.5 -20t1 -26.5q1 -12 1.5 -20.5t2 -17
t4.5 -16.5t10 -18q2 0 2.5 -1t2.5 -1q10 -3 38.5 -4.5t62 -0.5t65 4t48.5 9q15 15 19 27t4 23.5v24.5t6 32q-5 11 -1 24t8 24q1 11 1.5 21t2.5 20q3 14 4 31t1.5 35t2 36t6.5 34q-1 17 -2 28.5t-3.5 22.5t-6.5 23.5t-12 30.5q-5 7 -13 13t-23 7q-5 -2 -31 -3.5t-57 -3
t-58 -3t-33 -2.5z" />
    <glyph glyph-name="d" unicode="d" horiz-adv-x="293" 
d="M14 692q9 6 16.5 13t15.5 13q19 2 43.5 7t47.5 1q8 -1 17 -3t14 -8q4 0 5.5 2.5t6.5 0.5q14 -8 26.5 -10t21.5 -13q9 -9 14 -21t8 -25t5.5 -26t7.5 -24q-3 -12 -1.5 -26t4 -29t3.5 -30t-3 -28q8 -88 3.5 -168.5t-11.5 -165.5q-2 -17 -1.5 -37t-6.5 -31q-2 -3 -7 -6
t-10 -7q-18 -17 -46 -31t-58 -14q-18 -10 -40.5 -15t-42.5 -2q-12 -6 -28 -3t-19 16q-1 5 1 9t3 11q0 5 -2 10.5t-2 10.5q0 14 2.5 28t1.5 27q-1 4 0 8.5t1 9.5q1 14 2.5 26.5t2.5 27.5q1 11 -1 21t-1 19q2 13 5 33t-1 34q4 30 6.5 59t4.5 58q4 64 4 133t-12 145zM157 109
q4 25 7.5 49t5.5 50q4 47 8 96t5.5 98.5t-0.5 98.5t-10 95q-7 43 -26 81q-12 7 -27 6t-22 -12q4 -29 3 -54t2 -48q-8 -7 -6 -15t3 -16q2 -28 -4 -58.5t-4 -58.5q0 -5 2 -9t3 -9q3 -38 0 -76t1 -74q2 -5 -2 -6t-2 -7q5 -17 1.5 -34.5t-3.5 -35.5q0 -14 3 -29t2 -29t-2 -27.5
t7 -24.5q17 9 32 19.5t23 29.5z" />
    <glyph glyph-name="c" unicode="c" horiz-adv-x="313" 
d="M157 675q-13 -2 -22.5 -9t-11.5 -22q-1 -7 1.5 -13.5t1.5 -14.5q0 -18 -2.5 -37t-4.5 -38.5t-2.5 -39.5t3.5 -39q-8 -30 -4.5 -58.5t2.5 -57.5q0 -15 -3 -30t-5 -30q-2 -34 3.5 -68.5t4.5 -66.5q-1 -23 1.5 -51t16.5 -50q6 -4 16.5 -10t24.5 4q8 6 15.5 22.5t10.5 27.5
q2 9 2.5 16.5t2.5 13.5t6 10t13 6q14 2 34.5 -0.5t32.5 -7.5v-12v-8.5t-1 -11l-3 -19.5q-9 -12 -18.5 -29t-26.5 -23q-4 -2 -10.5 -1.5t-12.5 -1.5q-13 -4 -24 -11.5t-26 -9.5q-8 -1 -16.5 -1t-16.5 -1q-17 -2 -35.5 -1t-32.5 6q-29 10 -44.5 26t-20.5 54q-1 7 -3 14.5
t-2 12.5q0 14 3 27t4 27q2 23 2 45t-1 44q0 44 3.5 87.5t3.5 88.5q0 33 -1.5 74t-1.5 76q-1 26 3.5 51.5t12.5 42.5q4 8 9.5 13t6.5 13q9 7 22 12t29 8t32.5 4t32.5 0h19t21.5 -1t19 -2.5t13.5 -4.5q8 -6 14.5 -22.5t4.5 -27.5q-1 -9 -7.5 -13t-11.5 -10q-6 -7 -14 -15.5
t-25 -5.5q-8 1 -13 7t-9 13t-7.5 15t-8.5 14z" />
    <glyph glyph-name="D" unicode="D" horiz-adv-x="316" 
d="M16 687q2 12 10.5 17.5t19 8t22 3.5t20.5 5q35 -5 64.5 -7t60.5 -15q16 -11 28 -25.5t27 -26.5q4 -9 5.5 -20t7.5 -19q3 -38 5 -82t4 -87q1 -59 4 -114.5t-7 -114.5q-2 -5 0.5 -7t2.5 -6q-5 -9 -6.5 -18.5t-1.5 -20.5t-1 -22.5t-6 -23.5q-8 -19 -24 -30t-36 -18
q-3 -1 -4 -3.5t-4 -3.5q-14 -5 -28 -12.5t-27.5 -14t-27.5 -12t-28 -6.5q-3 0 -3.5 -3t-3.5 -3q-11 2 -22.5 -1t-24.5 1q-14 5 -19.5 16.5t-14.5 21.5q4 80 3.5 159.5t4.5 171.5q3 45 6.5 89t5.5 87q2 32 0 63t-1 60q-1 5 -5 6.5t-6 6.5zM171 103q14 38 20 77.5t8 79.5t1 80
t-1 80q-1 29 -0.5 60.5t-1 63t-7.5 62t-20 58.5q-15 5 -31 6.5t-37 -1.5q-4 -19 0 -37.5t6 -35.5t0.5 -33.5t4.5 -31.5q-5 -46 -2.5 -95t-0.5 -100q0 -6 -2 -11t-3 -10q-1 -13 1 -25.5t2 -22.5q0 -4 0.5 -8.5t-0.5 -8.5q-1 -18 -0.5 -34t-1.5 -31q0 -5 -1.5 -10t-1.5 -10
q-1 -12 2 -23.5t3 -23.5q0 -14 -2.5 -27t1.5 -25q10 0 19 3.5t16.5 9.5t14.5 12.5t14 11.5z" />
  </font>
</defs>
</svg>
