<?xml version="1.0" encoding="UTF-8" standalone="no"?>
<!-- Created with Inkscape (http://www.inkscape.org/) -->

<svg
   xmlns:dc="http://purl.org/dc/elements/1.1/"
   xmlns:cc="http://creativecommons.org/ns#"
   xmlns:rdf="http://www.w3.org/1999/02/22-rdf-syntax-ns#"
   xmlns:svg="http://www.w3.org/2000/svg"
   xmlns="http://www.w3.org/2000/svg"
   xmlns:xlink="http://www.w3.org/1999/xlink"
   xmlns:sodipodi="http://sodipodi.sourceforge.net/DTD/sodipodi-0.dtd"
   xmlns:inkscape="http://www.inkscape.org/namespaces/inkscape"
   width="1000"
   height="312.10007"
   id="svg3176"
   version="1.1"
   inkscape:version="0.48.2 r9819"
   sodipodi:docname="New document 5">
  <defs
     id="defs3178">
    <radialGradient
       inkscape:collect="always"
       xlink:href="#linearGradient3110"
       id="radialGradient3116"
       cx="218.80334"
       cy="2060.4209"
       fx="218.80334"
       fy="2060.4209"
       r="740.5"
       gradientTransform="matrix(0,1.6152668,-1.3457152,0,3206.476,1472.5864)"
       gradientUnits="userSpaceOnUse" />
    <linearGradient
       inkscape:collect="always"
       id="linearGradient3110">
      <stop
         style="stop-color:#a9d03f;stop-opacity:1"
         offset="0"
         id="stop3112" />
      <stop
         id="stop3122"
         offset="0.07105015"
         style="stop-color:#a9d03f;stop-opacity:1" />
      <stop
         id="stop3120"
         offset="0.24677444"
         style="stop-color:#a1cc3e;stop-opacity:1" />
      <stop
         style="stop-color:#94c93d;stop-opacity:1"
         offset="0.45569649"
         id="stop3126" />
      <stop
         style="stop-color:#8dc540;stop-opacity:1"
         offset="0.5965941"
         id="stop3124" />
      <stop
         id="stop3118"
         offset="0.79657596"
         style="stop-color:#84bc41;stop-opacity:1" />
      <stop
         style="stop-color:#79b641;stop-opacity:1"
         offset="1"
         id="stop3114" />
    </linearGradient>
  </defs>
  <sodipodi:namedview
     id="base"
     pagecolor="#ffffff"
     bordercolor="#666666"
     borderopacity="1.0"
     inkscape:pageopacity="0.0"
     inkscape:pageshadow="2"
     inkscape:zoom="0.35"
     inkscape:cx="1802.1504"
     inkscape:cy="671.66674"
     inkscape:document-units="px"
     inkscape:current-layer="layer1"
     showgrid="false"
     fit-margin-left="0.5"
     fit-margin-bottom="0.5"
     fit-margin-top="0.5"
     fit-margin-right="0.5"
     inkscape:window-width="1511"
     inkscape:window-height="1036"
     inkscape:window-x="403"
     inkscape:window-y="-21"
     inkscape:window-maximized="0" />
  <metadata
     id="metadata3181">
    <rdf:RDF>
      <cc:Work
         rdf:about="">
        <dc:format>image/svg+xml</dc:format>
        <dc:type
           rdf:resource="http://purl.org/dc/dcmitype/StillImage" />
        <dc:title></dc:title>
      </cc:Work>
    </rdf:RDF>
  </metadata>
  <g
     inkscape:label="Layer 1"
     inkscape:groupmode="layer"
     id="layer1"
     transform="translate(1427.1504,-891.92887)">
    <g
       transform="matrix(0.37570303,0,0,0.37570303,-1141.6023,902.42898)"
       id="g3128">
      <path
         sodipodi:nodetypes="ccccccscccccccccccc"
         inkscape:connector-curvature="0"
         id="path3017"
         d="m 195.80635,525.49235 c -4.3049,-3.29924 -2.70141,-6.77064 -0.0893,-9.77371 l 37.18624,-43.8785 c 3.00699,-3.33061 5.8685,-2.89517 9.28077,0.0631 33.42029,28.81482 63.4789,45.7094 111.36932,45.7094 30.61889,0 61.2405,-11.69526 61.2405,-42.42641 0,-10.06337 -3.38036,-18.66788 -9.36139,-24.73121 -38.5652,-39.09592 -197.59361,-18.89765 -197.59361,-142.44904 0,-54.08403 39.32476,-113.64216 132.70879,-113.64216 57.10346,0 100.33482,19.89186 134.22402,46.15135 5.10822,4.03217 3.85059,6.83441 1.34563,9.93247 l -32.78663,46.3204 c -3.16243,4.05417 -5.28825,4.13693 -11.23795,0 -19.18386,-14.7975 -52.26765,-34.59773 -93.56538,-34.59773 -34.03236,0 -55.93719,15.48869 -55.93719,40.27984 0,73.85525 206.955,26.4887 206.955,167.18024 0,68.14903 -52.74832,115.28366 -137.00194,115.28366 -59.52328,0 -110.81113,-20.15523 -156.73689,-59.4217 z"
         style="fill:#000000;stroke:none" />
      <path
         inkscape:connector-curvature="0"
         id="path3019"
         d="m 677.0625,284.875 c -45.56113,0 -69.07351,20.58604 -89.5625,42.5 l 0,-30.59375 c 0,-4.00618 -1.61859,-5.90625 -5.75,-5.90625 l -60.75,0 c -6.23457,0 -7,1.5626 -7,7 l 0,360.5 c 0,4.13604 1.62891,6 6,6 l 60.5,0 c 4.65354,0 7,-1.46938 7,-7 l 0,-112.65625 c 15.66085,20.1393 46.77047,40.78125 89.28125,40.78125 66.71669,0 135.375,-49.57746 135.375,-150 0,-106.78684 -74.68456,-150.625 -135.09375,-150.625 z m -14.65625,65.3125 c 37.693,0 75.125,29.66521 75.125,85.84375 0,50.30306 -32.85994,84.21875 -75.125,84.21875 C 617.00262,520.25 586,479.95142 586,435.53125 c 0,-44.11649 28.99767,-85.34375 76.40625,-85.34375 z"
         style="fill:#000000;stroke:none" />
      <g
         id="flowRoot3023"
         style="font-size:40px;font-style:normal;font-weight:normal;line-height:125%;letter-spacing:0px;word-spacing:0px;fill:#000000;fill-opacity:1;stroke:none;font-family:Sans"
         transform="matrix(13.258321,0,0,13.518561,-7360.2406,-3893.01)">
        <path
           sodipodi:nodetypes="ccccccccssssssssccccccccc"
           inkscape:connector-curvature="0"
           id="path3032"
           style="font-variant:normal;font-weight:bold;font-stretch:normal;fill:#000000;stroke:none;font-family:Gotham;-inkscape-font-specification:Gotham Bold"
           d="m 641.06787,320.20208 0,-0.0806 c -2e-5,-1.54621 -0.2934,-2.99275 -0.88013,-4.3396 -0.58677,-1.34683 -1.39345,-2.52013 -2.42004,-3.5199 -1.02663,-0.99974 -2.24672,-1.78627 -3.66028,-2.35962 -1.41359,-0.5733 -2.94679,-0.85996 -4.59961,-0.85998 -1.68051,2e-5 -3.22734,0.29319 -4.6405,0.87951 -1.41318,0.58637 -2.63978,1.38633 -3.67981,2.3999 -1.04004,1.01361 -1.85344,2.19362 -2.44019,3.54004 -0.58675,1.34645 -0.88012,2.79319 -0.88012,4.34021 l 0,0.0793 c 0,1.54705 0.29337,2.99398 0.88012,4.34082 0.58675,1.34685 1.39343,2.52015 2.42005,3.5199 1.0266,0.99975 2.2467,1.78629 3.66028,2.35962 1.41356,0.57332 2.94676,0.85998 4.59961,0.85998 1.68048,0 3.22732,-0.29337 4.6405,-0.88013 1.41315,-0.58675 2.63975,-1.38671 3.67981,-2.3999 1.04002,-1.01318 1.85341,-2.19319 2.44018,-3.54004 0.58673,-1.34683 0.88011,-2.79336 0.88013,-4.3396 z m -11.57353,6.31664 c -3.98075,0 -6.09207,-3.45123 -6.09207,-6.37087 0,-3.60639 2.58843,-6.25595 6.00478,-6.25595 2.99839,0 6.1043,2.33187 6.1043,6.38935 0,3.9065 -2.89347,6.23747 -6.01701,6.23747 z" />
      </g>
      <path
         sodipodi:nodetypes="ccccccccccccccccccccccccc"
         inkscape:connector-curvature="0"
         id="path3034"
         d="m 1283.0357,517.80861 c 16.0498,0 28.1526,-5.31191 34.1072,-8.03571 5.7297,-3.1797 9.8571,-1.63363 9.8571,4.58928 l 0,50 c 0,3.0536 -1.6821,4.76786 -4.3214,6.21429 -16.2317,8.11723 -32.5632,13.92857 -58.6607,13.92857 -57.105,0 -85.0179,-31.07822 -85.0179,-85.14286 l 0,-144 -30,0 c -3.8877,0 -5,-2.03536 -5,-5 l 0,-55.5 c 0,-2.55098 1.2747,-4 4,-4 l 31,0 0,-70.5 c 0,-3.2742 1.0895,-6 6,-6 l 61,0 c 5.2873,0 7,2.25989 7,7 l 0,69.5 69.6945,0 c 3.0586,0 5.3055,1.59768 5.3055,6 l 0,52.5 c 0,4.09435 -1.8713,6 -6,6 l -69,0 0,131 c 0,17.56626 5.0223,31.44643 30.0357,31.44643 z"
         style="fill:#000000;stroke:none" />
      <path
         sodipodi:nodetypes="ccccccccc"
         inkscape:connector-curvature="0"
         id="path3036"
         d="m 1363,579.36218 c -3.952,0 -6,-1.88746 -6,-6 l 0,-276.5 c 0,-3.84865 1.6336,-6 6,-6 l 61.8839,0 c 4.6873,0 6.1161,2.61466 6.1161,6.05298 l 0,276.44702 c 0,4.71362 -2.0868,6 -6,6 z"
         style="fill:#000000;stroke:none" />
      <path
         transform="matrix(2.3799723,0,0,2.3799723,-1773.897,-209.60063)"
         d="m 1350.5739,176.18112 c 0,10.66968 -8.6495,19.31917 -19.3191,19.31917 -10.6697,0 -19.3192,-8.64949 -19.3192,-19.31917 0,-10.66968 8.6495,-19.31917 19.3192,-19.31917 10.6696,0 19.3191,8.64949 19.3191,19.31917 z"
         sodipodi:ry="19.319168"
         sodipodi:rx="19.319168"
         sodipodi:cy="176.18112"
         sodipodi:cx="1331.2548"
         id="path3038"
         style="fill:#000000;stroke:none"
         sodipodi:type="arc" />
      <path
         sodipodi:nodetypes="ccccccccccccccccccccccccccccccccccccc"
         inkscape:connector-curvature="0"
         id="path3040"
         d="m 1501,579.36218 c -3.4638,0 -5,-1.88567 -5,-5 l 0,-219 -30,0 -5,-5 0,-54.40037 c 0,-3.41817 1.0207,-5.09963 5,-5.09963 l 30,0 0,-13.5 c 0,-53.34238 21.553,-96.73145 90.6902,-96.73145 21.3394,0 43.3842,5.05159 51.6487,7.04563 3.5038,1.07172 4.6611,2.60169 4.6611,5.68582 l 0,53 c 0,5.40836 -3.8695,6.38323 -10.6577,3.94602 -5.2283,-1.79651 -17.638,-5.33037 -31.2327,-5.33037 -25.6471,0 -33.1096,15.15589 -33.1096,38.38435 l 0,7.5 109,0 c 3.0149,0 4.3736,1.22629 6.0641,5.68638 l 73.4591,192.62681 66.7962,-191.39357 c 1.7851,-4.87914 2.7977,-6.41962 6.6806,-6.41962 l 65,0 c 6.2761,0 6.2308,4.36536 3.7429,10.33411 l -108.8725,282.35023 c -16.2176,37.20473 -32.116,81.74322 -96.9375,81.74322 -30.9903,0 -47.7327,-7.31914 -68.253,-16.95316 -4.7607,-2.15203 -2.6173,-6.92269 -0.039,-11.79817 l 18.9062,-41.56023 c 2.1757,-4.82067 5.4319,-4.17487 9.6999,-2.11075 5.1329,2.59122 18.1879,8.995 32.8151,8.995 18.9106,0 26.8554,-12.02983 34.2658,-27.46032 L 1629,355.36218 l -60,0 0,219 c 0,3.23345 -1.5607,5 -5,5 z"
         style="fill:#000000;stroke:none" />
      <g
         transform="matrix(0.55912573,0,0,0.55912573,-580.3448,-883.96648)"
         id="g3099">
        <path
           sodipodi:nodetypes="cccccccccccc"
           inkscape:connector-curvature="0"
           id="path3103"
           d="m -32.232076,2470.9067 2.498611,24.4864 18.906153,8.7451 c 1.0883761,-28.9648 19.1004892,-46.5575 42.892814,-50.8051 75.396078,-16.3949 168.136898,-32.0655 276.179748,-32.0655 169.88111,0 316.42432,42.1228 435.0081,114.4364 17.50756,10.6399 23.24109,23.8903 25.73569,41.4769 l 65.88003,-42.6429 -16.65741,-65.6302 -491.72655,-131.9267 -459.74434,58.6341 z"
           style="fill:#7a9f3f;fill-opacity:1;stroke:#008080;stroke-width:0.25;stroke-linecap:butt;stroke-linejoin:miter;stroke-opacity:1" />
        <path
           sodipodi:nodetypes="cccccccccc"
           inkscape:connector-curvature="0"
           id="path3105"
           d="m -63.298134,2288.0084 22.320921,-8.4193 c 0.777447,-27.9786 15.866602,-51.2406 48.1398965,-60.0427 83.4998055,-24.5312 181.5646665,-39.8944 288.6728065,-39.8944 205.47725,0 393.79485,53.8294 531.37299,136.7856 22.01576,13.5192 30.47178,23.5036 34.62407,58.9095 l 101.18276,-55.6115 -424.97055,-198.8222 -710.48292,41.4606 z"
           style="fill:#82a73e;fill-opacity:1;stroke:#000080;stroke-width:0.25;stroke-linecap:butt;stroke-linejoin:miter;stroke-opacity:1" />
        <path
           sodipodi:nodetypes="ccccccccc"
           inkscape:connector-curvature="0"
           id="path3107"
           d="m -91.282571,2051.973 c -2.267185,-41.8019 19.668471,-71.8823 51.804525,-81.1216 105.642687,-30.6842 218.937916,-45.7246 352.803806,-45.7246 222.65858,0 446.35049,46.6038 609.99579,141.1341 32.16303,17.5033 41.45638,41.0164 43.20712,76.9391 l 101.55143,-67.0451 -304.82922,-257.715 -932.86219,99.8822 z"
           style="fill:#81a83e;fill-opacity:1;stroke:#000000;stroke-width:0.25;stroke-linecap:butt;stroke-linejoin:miter;stroke-opacity:1" />
        <path
           inkscape:connector-curvature="0"
           id="path3101"
           d="m 421.5,1533.375 c -408.962711,0 -740.5,331.5059 -740.5,740.4688 0,408.9627 331.537289,740.5 740.5,740.5 408.96271,0 740.5,-331.5373 740.5,-740.5 0,-408.9629 -331.53729,-740.4688 -740.5,-740.4688 z m -108.65625,386.4688 c 217.43517,0 446.20772,44.7272 613.3125,142.875 22.52392,12.7572 38.15625,31.9913 38.15625,67.25 0,40.3663 -32.44499,69.375 -69.84375,69.375 -15.07662,0 -24.02197,-3.6682 -38.15625,-11.4063 -134.03398,-80.3689 -342.03029,-124.625 -543.1875,-124.625 -100.41216,0 -202.39625,10.2115 -295.8125,35.5625 -10.759107,2.7077 -24.3563097,8.0938 -37.96875,8.0938 -39.50214,0 -69.8125,-31.2512 -69.8125,-70.75 0,-40.2419 24.940384,-62.8318 51.84375,-70.7813 105.55739,-31.0977 223.38382,-45.5937 351.46875,-45.5937 z M 297.75,2174.2812 c 193.82587,0 381.3323,48.274 528.75,136.5 24.71404,14.1715 33.8125,32.1677 33.8125,58.5313 0,32.0638 -25.52675,57.9687 -57.71875,57.9687 -16.06736,0 -26.17436,-6.4925 -37.09375,-12.8437 -120.45544,-71.4829 -287.40206,-118.9687 -470.21875,-118.9687 -93.76484,0 -174.69742,13.1295 -241.6875,30.9687 -14.43304,3.9722 -22.524473,8.25 -36.03125,8.25 -31.847449,0 -57.84375,-25.9521 -57.84375,-58.0625 0,-31.4884 15.272073,-53.1698 46.0625,-61.8438 83.240862,-22.8613 168.24466,-40.5 291.96875,-40.5 z m 10.15625,241.8126 c 162.03991,0 306.45491,37.1729 430.71875,111.6562 18.49491,10.7979 29.34375,21.832 29.34375,49.2188 0,26.6948 -21.70954,46.3124 -46.0625,46.3124 -11.97535,0 -20.14536,-4.1543 -31.34375,-10.9687 -107.32034,-64.9297 -241.13396,-99.0625 -383.15625,-99.0625 -79.23347,0 -158.97893,10.1616 -233.5625,25.6875 -12.127857,2.6292 -27.38982,7.3125 -36.5,7.3125 -28.1208138,0 -46.875,-22.3372 -46.875,-46.5312 0,-31.116 17.9529286,-46.6095 40.28125,-50.875 91.46135,-20.8435 182.54857,-32.75 277.15625,-32.75 z"
           style="fill:url(#radialGradient3116);fill-opacity:1;stroke:none" />
      </g>
    </g>
  </g>
</svg>
